<svg width="462" height="267" viewBox="0 0 462 267" fill="none" xmlns="http://www.w3.org/2000/svg">
<path d="M15.4174 14.4541C17.5462 14.4541 19.2718 12.7284 19.2718 10.5997C19.2718 8.47102 17.5462 6.74536 15.4174 6.74536C13.2887 6.74536 11.5631 8.47102 11.5631 10.5997C11.5631 12.7284 13.2887 14.4541 15.4174 14.4541Z" fill="#F9A826"/>
<path d="M26.017 14.4541C28.1457 14.4541 29.8713 12.7284 29.8713 10.5997C29.8713 8.47102 28.1457 6.74536 26.017 6.74536C23.8883 6.74536 22.1626 8.47102 22.1626 10.5997C22.1626 12.7284 23.8883 14.4541 26.017 14.4541Z" fill="#F9A826"/>
<path d="M36.6165 14.4541C38.7452 14.4541 40.4708 12.7284 40.4708 10.5997C40.4708 8.47102 38.7452 6.74536 36.6165 6.74536C34.4877 6.74536 32.7621 8.47102 32.7621 10.5997C32.7621 12.7284 34.4877 14.4541 36.6165 14.4541Z" fill="#F9A826"/>
<path opacity="0.3" d="M126.231 155.979H70.3422V161.761H126.231V155.979Z" fill="#F9A826"/>
<path opacity="0.3" d="M123.21 168.506H70.3422V174.287H123.21V168.506Z" fill="#F9A826"/>
<path opacity="0.3" d="M108.86 181.033H70.3422V186.814H108.86V181.033Z" fill="#F9A826"/>
<g opacity="0.3">
<path opacity="0.3" d="M256.316 155.979H200.427V161.761H256.316V155.979Z" fill="#F9A826"/>
<path opacity="0.3" d="M253.295 168.506H200.427V174.287H253.295V168.506Z" fill="#F9A826"/>
<path opacity="0.3" d="M238.945 181.033H200.427V186.814H238.945V181.033Z" fill="#F9A826"/>
<path opacity="0.3" d="M256.316 155.979H200.427V161.761H256.316V155.979Z" fill="#F9A826"/>
<path opacity="0.3" d="M253.295 168.506H200.427V174.287H253.295V168.506Z" fill="#F9A826"/>
<path opacity="0.3" d="M238.945 181.033H200.427V186.814H238.945V181.033Z" fill="#F9A826"/>
</g>
<path opacity="0.3" d="M391.219 155.979H335.33V161.761H391.219V155.979Z" fill="#F9A826"/>
<path opacity="0.3" d="M388.198 168.506H335.33V174.287H388.198V168.506Z" fill="#F9A826"/>
<path opacity="0.3" d="M373.848 181.033H335.33V186.814H373.848V181.033Z" fill="#F9A826"/>
<path opacity="0.3" d="M133.939 80.8191H62.6335V144.416H133.939V80.8191Z" fill="#F9A826"/>
<path d="M264.024 80.8191H192.718V144.416H264.024V80.8191Z" fill="#3F3D56"/>
<path d="M398.927 80.8191H327.621V144.416H398.927V80.8191Z" fill="#3F3D56"/>
<path d="M219.081 144.149L218.14 144.13C218.161 143.089 218.748 118.536 228.414 111.75L228.954 112.52C219.679 119.032 219.086 143.898 219.081 144.149Z" fill="#F9A826"/>
<path d="M233.388 111.439C235.986 111.439 238.092 109.333 238.092 106.736C238.092 104.138 235.986 102.032 233.388 102.032C230.79 102.032 228.684 104.138 228.684 106.736C228.684 109.333 230.79 111.439 233.388 111.439Z" fill="#F9A826"/>
<path d="M232.437 123.344C229.99 124.112 227.385 124.225 224.881 123.67C226.471 121.646 228.612 120.125 231.046 119.29C233.481 118.455 236.105 118.341 238.602 118.964C236.966 120.938 234.84 122.449 232.437 123.344Z" fill="#F9A826"/>
<path d="M353.984 144.149L353.043 144.13C353.063 143.089 353.651 118.536 363.317 111.75L363.857 112.52C354.582 119.032 353.989 143.898 353.984 144.149Z" fill="#F9A826"/>
<path d="M368.291 111.439C370.889 111.439 372.995 109.333 372.995 106.736C372.995 104.138 370.889 102.032 368.291 102.032C365.693 102.032 363.587 104.138 363.587 106.736C363.587 109.333 365.693 111.439 368.291 111.439Z" fill="#F9A826"/>
<path d="M367.34 123.344C364.893 124.112 362.288 124.225 359.784 123.67C361.374 121.646 363.515 120.125 365.949 119.29C368.384 118.455 371.008 118.341 373.505 118.964C371.869 120.938 369.743 122.449 367.34 123.344Z" fill="#F9A826"/>
<path d="M461.561 266.915H0V0H461.561V266.915ZM1.92718 264.988H459.634V1.92719H1.92718V264.988Z" fill="#2F2E41"/>
<path d="M460.597 19.3345H0.963562V21.2617H460.597V19.3345Z" fill="#2F2E41"/>
</svg>
