<svg width="135" height="75" viewBox="0 0 135 75" fill="none" xmlns="http://www.w3.org/2000/svg">
<path d="M63.448 12.672V48H57.544V44.112C56.808 45.456 55.752 46.512 54.376 47.28C53 48.016 51.432 48.384 49.672 48.384C47.592 48.384 45.736 47.856 44.104 46.8C42.472 45.744 41.192 44.256 40.264 42.336C39.368 40.384 38.92 38.16 38.92 35.664C38.92 33.168 39.368 30.976 40.264 29.088C41.16 27.2 42.424 25.744 44.056 24.72C45.688 23.664 47.56 23.136 49.672 23.136C51.4 23.136 52.936 23.504 54.28 24.24C55.656 24.944 56.712 25.952 57.448 27.264V12.672H63.448ZM51.256 43.68C53.24 43.68 54.776 42.992 55.864 41.616C56.984 40.24 57.544 38.288 57.544 35.76C57.544 33.232 57 31.28 55.912 29.904C54.824 28.528 53.288 27.84 51.304 27.84C49.288 27.84 47.72 28.528 46.6 29.904C45.512 31.248 44.968 33.168 44.968 35.664C44.968 38.192 45.512 40.16 46.6 41.568C47.72 42.976 49.272 43.68 51.256 43.68ZM83.8068 23.136C85.9188 23.136 87.7748 23.664 89.3748 24.72C91.0068 25.744 92.2708 27.2 93.1667 29.088C94.0628 30.976 94.5108 33.168 94.5108 35.664C94.5108 38.16 94.0468 40.384 93.1188 42.336C92.2228 44.256 90.9588 45.744 89.3268 46.8C87.7268 47.856 85.8868 48.384 83.8068 48.384C82.0148 48.384 80.4148 48 79.0068 47.232C77.6308 46.464 76.5908 45.392 75.8868 44.016V48H69.9828V12.672H75.9348V27.408C76.6708 26.064 77.7268 25.024 79.1028 24.288C80.4788 23.52 82.0468 23.136 83.8068 23.136ZM82.2228 43.68C84.2068 43.68 85.7428 42.976 86.8308 41.568C87.9188 40.16 88.4628 38.192 88.4628 35.664C88.4628 33.168 87.9188 31.248 86.8308 29.904C85.7428 28.528 84.1908 27.84 82.1748 27.84C80.1588 27.84 78.6068 28.528 77.5188 29.904C76.4308 31.28 75.8868 33.232 75.8868 35.76C75.8868 38.32 76.4308 40.288 77.5188 41.664C78.6068 43.008 80.1748 43.68 82.2228 43.68Z" fill="#193D5D"/>
<path d="M2.112 69V51.912H7.848C9.672 51.912 11.224 52.248 12.504 52.92C13.784 53.576 14.76 54.544 15.432 55.824C16.104 57.088 16.44 58.624 16.44 60.432C16.44 62.256 16.096 63.808 15.408 65.088C14.736 66.352 13.76 67.32 12.48 67.992C11.2 68.664 9.656 69 7.848 69H2.112ZM4.08 67.32H7.728C9.936 67.32 11.592 66.744 12.696 65.592C13.816 64.44 14.376 62.72 14.376 60.432C14.376 55.872 12.16 53.592 7.728 53.592H4.08V67.32ZM19.7783 69V60.312C19.7783 59.752 19.7623 59.192 19.7303 58.632C19.7143 58.056 19.6663 57.488 19.5863 56.928H21.4342L21.6983 59.904L21.4342 59.832C21.6583 58.776 22.1383 57.984 22.8743 57.456C23.6263 56.912 24.4663 56.64 25.3943 56.64C25.6023 56.64 25.7943 56.656 25.9703 56.688C26.1623 56.704 26.3383 56.736 26.4983 56.784L26.4503 58.56C26.0823 58.432 25.6583 58.368 25.1783 58.368C24.3463 58.368 23.6743 58.552 23.1623 58.92C22.6663 59.288 22.2983 59.76 22.0583 60.336C21.8343 60.896 21.7223 61.488 21.7223 62.112V69H19.7783ZM38.1272 67.56C37.5992 68.056 36.9192 68.448 36.0872 68.736C35.2712 69.024 34.4312 69.168 33.5672 69.168C32.3192 69.168 31.2392 68.92 30.3272 68.424C29.4312 67.928 28.7352 67.216 28.2392 66.288C27.7592 65.344 27.5192 64.224 27.5192 62.928C27.5192 61.68 27.7592 60.584 28.2392 59.64C28.7192 58.696 29.3832 57.96 30.2312 57.432C31.0952 56.904 32.0872 56.64 33.2072 56.64C34.2792 56.64 35.1992 56.88 35.9672 57.36C36.7352 57.824 37.3192 58.496 37.7192 59.376C38.1352 60.256 38.3432 61.312 38.3432 62.544V62.904H29.2232V61.632H37.2392L36.6152 62.52C36.6472 61.112 36.3672 60.032 35.7752 59.28C35.1992 58.528 34.3512 58.152 33.2312 58.152C32.0632 58.152 31.1432 58.568 30.4712 59.4C29.8152 60.216 29.4872 61.352 29.4872 62.808C29.4872 64.376 29.8312 65.56 30.5192 66.36C31.2232 67.16 32.2472 67.56 33.5912 67.56C34.2952 67.56 34.9672 67.448 35.6072 67.224C36.2632 66.984 36.8872 66.624 37.4792 66.144L38.1272 67.56ZM45.9259 69.168C44.8539 69.168 43.9099 68.92 43.0939 68.424C42.2939 67.912 41.6699 67.192 41.2219 66.264C40.7899 65.32 40.5739 64.216 40.5739 62.952C40.5739 61.688 40.7979 60.584 41.2459 59.64C41.6939 58.696 42.3179 57.96 43.1179 57.432C43.9339 56.904 44.8699 56.64 45.9259 56.64C47.0299 56.64 47.9659 56.912 48.7339 57.456C49.5019 58 50.0219 58.776 50.2939 59.784L50.0059 59.976V56.928H51.9259V69H50.0059V65.88L50.2939 66.024C50.0219 67.032 49.5019 67.808 48.7339 68.352C47.9659 68.896 47.0299 69.168 45.9259 69.168ZM46.3099 67.56C47.4939 67.56 48.4059 67.16 49.0459 66.36C49.6859 65.544 50.0059 64.392 50.0059 62.904C50.0059 61.416 49.6779 60.272 49.0219 59.472C48.3819 58.672 47.4779 58.272 46.3099 58.272C45.1259 58.272 44.1979 58.688 43.5259 59.52C42.8699 60.336 42.5419 61.48 42.5419 62.952C42.5419 64.424 42.8699 65.56 43.5259 66.36C44.1979 67.16 45.1259 67.56 46.3099 67.56ZM55.6845 69V60.312C55.6845 59.752 55.6685 59.192 55.6365 58.632C55.6205 58.056 55.5725 57.488 55.4925 56.928H57.3405L57.5565 59.424L57.3165 59.592C57.6045 58.648 58.1005 57.92 58.8045 57.408C59.5245 56.896 60.3725 56.64 61.3485 56.64C62.5165 56.64 63.4205 56.928 64.0605 57.504C64.7165 58.08 65.1325 58.96 65.3085 60.144L64.7325 59.832C64.9885 58.856 65.5005 58.08 66.2685 57.504C67.0525 56.928 67.9885 56.64 69.0765 56.64C70.4045 56.64 71.4045 57.04 72.0765 57.84C72.7485 58.624 73.0845 59.816 73.0845 61.416V69H71.1405V61.512C71.1405 60.392 70.9405 59.576 70.5405 59.064C70.1405 58.536 69.5085 58.272 68.6445 58.272C67.6365 58.272 66.8365 58.616 66.2445 59.304C65.6685 59.992 65.3805 60.928 65.3805 62.112V69H63.4365V61.512C63.4365 60.392 63.2285 59.576 62.8125 59.064C62.4125 58.536 61.7805 58.272 60.9165 58.272C59.8925 58.272 59.0845 58.616 58.4925 59.304C57.9165 59.992 57.6285 60.928 57.6285 62.112V69H55.6845ZM77.0183 69V51.912H83.8823C85.6103 51.912 86.9623 52.304 87.9383 53.088C88.9143 53.856 89.4023 54.952 89.4023 56.376C89.4023 57.368 89.1303 58.208 88.5863 58.896C88.0583 59.568 87.3223 60.048 86.3783 60.336V60.144C87.4503 60.352 88.2903 60.824 88.8983 61.56C89.5063 62.296 89.8103 63.224 89.8103 64.344C89.8103 65.848 89.3143 67 88.3223 67.8C87.3303 68.6 85.9303 69 84.1223 69H77.0183ZM78.9623 67.368H83.9543C85.2983 67.368 86.2823 67.12 86.9062 66.624C87.5463 66.128 87.8663 65.352 87.8663 64.296C87.8663 63.256 87.5463 62.472 86.9062 61.944C86.2663 61.416 85.2823 61.152 83.9543 61.152H78.9623V67.368ZM78.9623 59.496H83.5703C84.8663 59.496 85.8343 59.24 86.4743 58.728C87.1303 58.216 87.4583 57.464 87.4583 56.472C87.4583 55.496 87.1383 54.768 86.4983 54.288C85.8583 53.792 84.8823 53.544 83.5703 53.544H78.9623V59.496ZM97.7462 69.168C96.6742 69.168 95.7302 68.92 94.9142 68.424C94.1142 67.912 93.4902 67.192 93.0422 66.264C92.6102 65.32 92.3942 64.216 92.3942 62.952C92.3942 61.688 92.6182 60.584 93.0662 59.64C93.5142 58.696 94.1382 57.96 94.9382 57.432C95.7542 56.904 96.6902 56.64 97.7462 56.64C98.8502 56.64 99.7862 56.912 100.554 57.456C101.322 58 101.842 58.776 102.114 59.784L101.826 59.976V56.928H103.746V69H101.826V65.88L102.114 66.024C101.842 67.032 101.322 67.808 100.554 68.352C99.7862 68.896 98.8502 69.168 97.7462 69.168ZM98.1302 67.56C99.3142 67.56 100.226 67.16 100.866 66.36C101.506 65.544 101.826 64.392 101.826 62.904C101.826 61.416 101.498 60.272 100.842 59.472C100.202 58.672 99.2982 58.272 98.1302 58.272C96.9462 58.272 96.0182 58.688 95.3462 59.52C94.6902 60.336 94.3622 61.48 94.3622 62.952C94.3622 64.424 94.6902 65.56 95.3462 66.36C96.0182 67.16 96.9462 67.56 98.1302 67.56ZM107.505 69V60.312C107.505 59.752 107.489 59.192 107.457 58.632C107.441 58.056 107.393 57.488 107.313 56.928H109.161L109.377 59.424L109.137 59.616C109.473 58.64 110.033 57.904 110.817 57.408C111.601 56.896 112.505 56.64 113.529 56.64C116.425 56.64 117.873 58.232 117.873 61.416V69H115.929V61.512C115.929 60.392 115.705 59.576 115.257 59.064C114.809 58.536 114.105 58.272 113.145 58.272C112.025 58.272 111.129 58.616 110.457 59.304C109.785 59.992 109.449 60.92 109.449 62.088V69H107.505ZM132.176 69H130.256V65.76L130.544 66.024C130.272 67.032 129.752 67.808 128.984 68.352C128.216 68.896 127.28 69.168 126.176 69.168C125.12 69.168 124.184 68.912 123.368 68.4C122.568 67.872 121.944 67.136 121.496 66.192C121.048 65.232 120.824 64.12 120.824 62.856C120.824 61.592 121.04 60.496 121.472 59.568C121.92 58.64 122.544 57.92 123.344 57.408C124.16 56.896 125.104 56.64 126.176 56.64C127.28 56.64 128.216 56.92 128.984 57.48C129.752 58.024 130.272 58.792 130.544 59.784L130.232 60.024V51.336H132.176V69ZM126.56 67.56C127.728 67.56 128.632 67.16 129.272 66.36C129.928 65.544 130.256 64.392 130.256 62.904C130.256 61.432 129.936 60.296 129.296 59.496C128.656 58.68 127.744 58.272 126.56 58.272C125.376 58.272 124.448 58.672 123.776 59.472C123.12 60.272 122.792 61.4 122.792 62.856C122.792 64.344 123.12 65.504 123.776 66.336C124.448 67.152 125.376 67.56 126.56 67.56Z" fill="black"/>
</svg>
