<svg width="823" height="236" viewBox="0 0 823 236" fill="none" xmlns="http://www.w3.org/2000/svg">
<path d="M125.44 235.086C107.14 235.086 89.5893 227.817 76.6493 214.877C63.7093 201.937 56.4397 184.386 56.4397 166.086C56.4397 147.786 63.7093 130.236 76.6493 117.296C89.5893 104.356 107.14 97.0864 125.44 97.0864H753.44C771.74 97.0864 789.29 104.356 802.23 117.296C815.17 130.236 822.44 147.786 822.44 166.086C822.44 184.386 815.17 201.937 802.23 214.877C789.29 227.817 771.74 235.086 753.44 235.086H125.44Z" fill="#E6E6E6"/>
<path d="M125.44 106.086C109.527 106.086 94.2655 112.408 83.0133 123.66C71.7611 134.912 65.4397 150.173 65.4397 166.086C65.4397 181.999 71.7611 197.261 83.0133 208.513C94.2655 219.765 109.527 226.086 125.44 226.086H753.44C769.353 226.086 784.614 219.765 795.866 208.513C807.118 197.261 813.44 181.999 813.44 166.086C813.44 150.173 807.118 134.912 795.866 123.66C784.614 112.408 769.353 106.086 753.44 106.086H125.44Z" fill="white"/>
<path d="M191.107 106.086H189.107V226.086H191.107V106.086Z" fill="#E6E6E6"/>
<path d="M315.94 106.086H313.94V226.086H315.94V106.086Z" fill="#E6E6E6"/>
<path d="M440.94 106.086H438.94V226.086H440.94V106.086Z" fill="#E6E6E6"/>
<path d="M564.94 106.086H562.94V226.086H564.94V106.086Z" fill="#E6E6E6"/>
<path d="M689.94 106.086H687.94V226.086H689.94V106.086Z" fill="#E6E6E6"/>
<path d="M223.617 148.086C222.849 148.086 222.113 148.392 221.57 148.935C221.027 149.478 220.722 150.214 220.722 150.982C220.722 151.75 221.027 152.487 221.57 153.03C222.113 153.573 222.849 153.878 223.617 153.878H282.357C282.737 153.878 283.115 153.804 283.466 153.659C283.818 153.514 284.138 153.3 284.408 153.031C284.677 152.763 284.891 152.443 285.037 152.091C285.183 151.74 285.258 151.363 285.258 150.982C285.258 150.601 285.183 150.224 285.037 149.873C284.891 149.521 284.677 149.202 284.408 148.933C284.138 148.664 283.818 148.451 283.466 148.305C283.115 148.16 282.737 148.086 282.357 148.086H223.617Z" fill="#E6E6E6"/>
<path d="M223.617 163.086C222.849 163.086 222.113 163.392 221.57 163.935C221.027 164.478 220.722 165.214 220.722 165.982C220.722 166.75 221.027 167.487 221.57 168.03C222.113 168.573 222.849 168.878 223.617 168.878H282.357C282.737 168.878 283.115 168.804 283.466 168.659C283.818 168.514 284.138 168.3 284.408 168.031C284.677 167.763 284.891 167.443 285.037 167.091C285.183 166.74 285.258 166.363 285.258 165.982C285.258 165.601 285.183 165.224 285.037 164.873C284.891 164.521 284.677 164.202 284.408 163.933C284.138 163.664 283.818 163.451 283.466 163.305C283.115 163.16 282.737 163.086 282.357 163.086H223.617Z" fill="#E6E6E6"/>
<path d="M223.617 178.086C222.849 178.086 222.113 178.392 221.57 178.935C221.027 179.478 220.722 180.214 220.722 180.982C220.722 181.75 221.027 182.487 221.57 183.03C222.113 183.573 222.849 183.878 223.617 183.878H282.357C282.737 183.878 283.115 183.804 283.466 183.659C283.818 183.514 284.138 183.3 284.408 183.031C284.677 182.763 284.891 182.443 285.037 182.091C285.183 181.74 285.258 181.363 285.258 180.982C285.258 180.601 285.183 180.224 285.037 179.873C284.891 179.521 284.677 179.202 284.408 178.933C284.138 178.664 283.818 178.451 283.466 178.305C283.115 178.16 282.737 178.086 282.357 178.086H223.617Z" fill="#E6E6E6"/>
<path d="M347.617 148.086C346.849 148.086 346.113 148.392 345.57 148.935C345.027 149.478 344.722 150.214 344.722 150.982C344.722 151.75 345.027 152.487 345.57 153.03C346.113 153.573 346.849 153.878 347.617 153.878H406.357C407.125 153.878 407.861 153.573 408.404 153.03C408.947 152.487 409.252 151.75 409.252 150.982C409.252 150.214 408.947 149.478 408.404 148.935C407.861 148.392 407.125 148.086 406.357 148.086H347.617Z" fill="#F9A826"/>
<path d="M347.617 163.086C346.849 163.086 346.113 163.392 345.57 163.935C345.027 164.478 344.722 165.214 344.722 165.982C344.722 166.75 345.027 167.487 345.57 168.03C346.113 168.573 346.849 168.878 347.617 168.878H406.357C407.125 168.878 407.861 168.573 408.404 168.03C408.947 167.487 409.252 166.75 409.252 165.982C409.252 165.214 408.947 164.478 408.404 163.935C407.861 163.392 407.125 163.086 406.357 163.086H347.617Z" fill="#F9A826"/>
<path d="M347.617 178.086C346.849 178.086 346.113 178.392 345.57 178.935C345.027 179.478 344.722 180.214 344.722 180.982C344.722 181.75 345.027 182.487 345.57 183.03C346.113 183.573 346.849 183.878 347.617 183.878H406.357C407.125 183.878 407.861 183.573 408.404 183.03C408.947 182.487 409.252 181.75 409.252 180.982C409.252 180.214 408.947 179.478 408.404 178.935C407.861 178.392 407.125 178.086 406.357 178.086H347.617Z" fill="#F9A826"/>
<path d="M472.617 148.086C471.85 148.088 471.115 148.394 470.573 148.936C470.031 149.479 469.727 150.215 469.727 150.982C469.727 151.749 470.031 152.485 470.573 153.028C471.115 153.571 471.85 153.876 472.617 153.878H531.357C532.125 153.878 532.861 153.573 533.404 153.03C533.947 152.487 534.252 151.75 534.252 150.982C534.252 150.214 533.947 149.478 533.404 148.935C532.861 148.392 532.125 148.086 531.357 148.086H472.617Z" fill="#E6E6E6"/>
<path d="M472.617 163.086C471.85 163.088 471.115 163.394 470.573 163.936C470.031 164.479 469.727 165.215 469.727 165.982C469.727 166.749 470.031 167.485 470.573 168.028C471.115 168.571 471.85 168.876 472.617 168.878H531.357C532.125 168.878 532.861 168.573 533.404 168.03C533.947 167.487 534.252 166.75 534.252 165.982C534.252 165.214 533.947 164.478 533.404 163.935C532.861 163.392 532.125 163.086 531.357 163.086H472.617Z" fill="#E6E6E6"/>
<path d="M472.617 178.086C471.85 178.088 471.115 178.394 470.573 178.936C470.031 179.479 469.727 180.215 469.727 180.982C469.727 181.749 470.031 182.485 470.573 183.028C471.115 183.571 471.85 183.876 472.617 183.878H531.357C532.125 183.878 532.861 183.573 533.404 183.03C533.947 182.487 534.252 181.75 534.252 180.982C534.252 180.214 533.947 179.478 533.404 178.935C532.861 178.392 532.125 178.086 531.357 178.086H472.617Z" fill="#E6E6E6"/>
<path d="M597.117 148.086C596.35 148.088 595.615 148.394 595.073 148.936C594.531 149.479 594.227 150.215 594.227 150.982C594.227 151.749 594.531 152.485 595.073 153.028C595.615 153.571 596.35 153.876 597.117 153.878H655.857C656.625 153.878 657.361 153.573 657.904 153.03C658.447 152.487 658.752 151.75 658.752 150.982C658.752 150.214 658.447 149.478 657.904 148.935C657.361 148.392 656.625 148.086 655.857 148.086H597.117Z" fill="#E6E6E6"/>
<path d="M597.117 163.086C596.35 163.088 595.615 163.394 595.073 163.936C594.531 164.479 594.227 165.215 594.227 165.982C594.227 166.749 594.531 167.485 595.073 168.028C595.615 168.571 596.35 168.876 597.117 168.878H655.857C656.625 168.878 657.361 168.573 657.904 168.03C658.447 167.487 658.752 166.75 658.752 165.982C658.752 165.214 658.447 164.478 657.904 163.935C657.361 163.392 656.625 163.086 655.857 163.086H597.117Z" fill="#E6E6E6"/>
<path d="M597.117 178.086C596.35 178.088 595.615 178.394 595.073 178.936C594.531 179.479 594.227 180.215 594.227 180.982C594.227 181.749 594.531 182.485 595.073 183.028C595.615 183.571 596.35 183.876 597.117 183.878H655.857C656.625 183.878 657.361 183.573 657.904 183.03C658.447 182.487 658.752 181.75 658.752 180.982C658.752 180.214 658.447 179.478 657.904 178.935C657.361 178.392 656.625 178.086 655.857 178.086H597.117Z" fill="#E6E6E6"/>
<path d="M718.617 148.086C717.85 148.088 717.115 148.394 716.573 148.936C716.031 149.479 715.727 150.215 715.727 150.982C715.727 151.749 716.031 152.485 716.573 153.028C717.115 153.571 717.85 153.876 718.617 153.878H777.357C778.125 153.878 778.861 153.573 779.404 153.03C779.947 152.487 780.252 151.75 780.252 150.982C780.252 150.214 779.947 149.478 779.404 148.935C778.861 148.392 778.125 148.086 777.357 148.086H718.617Z" fill="#E6E6E6"/>
<path d="M718.617 163.086C717.85 163.088 717.115 163.394 716.573 163.936C716.031 164.479 715.727 165.215 715.727 165.982C715.727 166.749 716.031 167.485 716.573 168.028C717.115 168.571 717.85 168.876 718.617 168.878H777.357C778.125 168.878 778.861 168.573 779.404 168.03C779.947 167.487 780.252 166.75 780.252 165.982C780.252 165.214 779.947 164.478 779.404 163.935C778.861 163.392 778.125 163.086 777.357 163.086H718.617Z" fill="#E6E6E6"/>
<path d="M718.617 178.086C717.85 178.088 717.115 178.394 716.573 178.936C716.031 179.479 715.727 180.215 715.727 180.982C715.727 181.749 716.031 182.485 716.573 183.028C717.115 183.571 717.85 183.876 718.617 183.878H777.357C778.125 183.878 778.861 183.573 779.404 183.03C779.947 182.487 780.252 181.75 780.252 180.982C780.252 180.214 779.947 179.478 779.404 178.935C778.861 178.392 778.125 178.086 777.357 178.086H718.617Z" fill="#E6E6E6"/>
<path d="M98.6172 148.086C97.8501 148.088 97.115 148.394 96.5731 148.936C96.0312 149.479 95.7269 150.215 95.7269 150.982C95.7269 151.749 96.0312 152.485 96.5731 153.028C97.115 153.571 97.8501 153.876 98.6172 153.878H157.357C157.737 153.878 158.115 153.804 158.466 153.659C158.818 153.514 159.138 153.3 159.408 153.031C159.677 152.763 159.891 152.443 160.037 152.091C160.183 151.74 160.258 151.363 160.258 150.982C160.258 150.601 160.183 150.224 160.037 149.873C159.891 149.521 159.677 149.202 159.408 148.933C159.138 148.664 158.818 148.451 158.466 148.305C158.115 148.16 157.737 148.086 157.357 148.086H98.6172Z" fill="#E6E6E6"/>
<path d="M98.6172 163.086C97.8501 163.088 97.115 163.394 96.5731 163.936C96.0312 164.479 95.7269 165.215 95.7269 165.982C95.7269 166.749 96.0312 167.485 96.5731 168.028C97.115 168.571 97.8501 168.876 98.6172 168.878H157.357C157.737 168.878 158.115 168.804 158.466 168.659C158.818 168.514 159.138 168.3 159.408 168.031C159.677 167.763 159.891 167.443 160.037 167.091C160.183 166.74 160.258 166.363 160.258 165.982C160.258 165.601 160.183 165.224 160.037 164.873C159.891 164.521 159.677 164.202 159.408 163.933C159.138 163.664 158.818 163.451 158.466 163.305C158.115 163.16 157.737 163.086 157.357 163.086H98.6172Z" fill="#E6E6E6"/>
<path d="M98.6172 178.086C97.8501 178.088 97.115 178.394 96.5731 178.936C96.0312 179.479 95.7269 180.215 95.7269 180.982C95.7269 181.749 96.0312 182.485 96.5731 183.028C97.115 183.571 97.8501 183.876 98.6172 183.878H157.357C157.737 183.878 158.115 183.804 158.466 183.659C158.818 183.514 159.138 183.3 159.408 183.031C159.677 182.763 159.891 182.443 160.037 182.091C160.183 181.74 160.258 181.363 160.258 180.982C160.258 180.601 160.183 180.224 160.037 179.873C159.891 179.521 159.677 179.202 159.408 178.933C159.138 178.664 158.818 178.451 158.466 178.305C158.115 178.16 157.737 178.086 157.357 178.086H98.6172Z" fill="#E6E6E6"/>
<path d="M377.058 94.7642C403.226 94.7642 424.44 73.5505 424.44 47.3821C424.44 21.2137 403.226 0 377.058 0C350.889 0 329.676 21.2137 329.676 47.3821C329.676 73.5505 350.889 94.7642 377.058 94.7642Z" fill="#F9A826"/>
<path d="M377.058 124.408L362.242 98.7469L347.427 73.0859H377.058H406.688L391.873 98.7469L377.058 124.408Z" fill="#F9A826"/>
<path d="M377.44 64.0864C386.829 64.0864 394.44 56.4753 394.44 47.0864C394.44 37.6976 386.829 30.0864 377.44 30.0864C368.051 30.0864 360.44 37.6976 360.44 47.0864C360.44 56.4753 368.051 64.0864 377.44 64.0864Z" fill="white"/>
<path d="M2.11117 175.598C1.8107 175.598 1.51699 175.509 1.26717 175.342C1.01736 175.175 0.822657 174.938 0.70768 174.66C0.592702 174.382 0.562619 174.077 0.621223 173.782C0.679827 173.487 0.824481 173.217 1.03692 173.004L17.2306 156.811C17.3717 156.67 17.5392 156.558 17.7235 156.482C17.9078 156.405 18.1054 156.366 18.3049 156.366C18.5044 156.366 18.7019 156.405 18.8863 156.482C19.0706 156.558 19.238 156.67 19.3791 156.811C19.5202 156.952 19.6321 157.12 19.7084 157.304C19.7848 157.488 19.8241 157.686 19.8241 157.885C19.8241 158.085 19.7848 158.282 19.7084 158.467C19.6321 158.651 19.5202 158.819 19.3791 158.96L3.1854 175.153C3.0445 175.294 2.87707 175.406 2.69271 175.483C2.50836 175.559 2.31072 175.598 2.11117 175.598Z" fill="#F9A826"/>
</svg>
