<svg width="576" height="422" viewBox="0 0 576 422" fill="none" xmlns="http://www.w3.org/2000/svg">
<path d="M540.499 13.6031C536.982 13.6031 534.131 10.5579 534.131 6.80153C534.131 3.04515 536.982 0 540.499 0C544.015 0 546.866 3.04515 546.866 6.80153C546.866 10.5579 544.015 13.6031 540.499 13.6031Z" fill="#E6E6E6"/>
<path d="M508.267 13.6031C504.75 13.6031 501.9 10.5579 501.9 6.80153C501.9 3.04515 504.75 0 508.267 0C511.784 0 514.634 3.04515 514.634 6.80153C514.634 10.5579 511.784 13.6031 508.267 13.6031Z" fill="#E6E6E6"/>
<path d="M476.036 13.6031C472.519 13.6031 469.668 10.5579 469.668 6.80153C469.668 3.04515 472.519 0 476.036 0C479.552 0 482.403 3.04515 482.403 6.80153C482.403 10.5579 479.552 13.6031 476.036 13.6031Z" fill="#E6E6E6"/>
<path d="M443.804 13.6031C440.288 13.6031 437.437 10.5579 437.437 6.80153C437.437 3.04515 440.288 0 443.804 0C447.321 0 450.172 3.04515 450.172 6.80153C450.172 10.5579 447.321 13.6031 443.804 13.6031Z" fill="#E6E6E6"/>
<path d="M411.573 13.6031C408.056 13.6031 405.205 10.5579 405.205 6.80153C405.205 3.04515 408.056 0 411.573 0C415.089 0 417.94 3.04515 417.94 6.80153C417.94 10.5579 415.089 13.6031 411.573 13.6031Z" fill="#E6E6E6"/>
<path d="M379.341 13.6031C375.825 13.6031 372.974 10.5579 372.974 6.80153C372.974 3.04515 375.825 0 379.341 0C382.858 0 385.709 3.04515 385.709 6.80153C385.709 10.5579 382.858 13.6031 379.341 13.6031Z" fill="#E6E6E6"/>
<path d="M347.11 13.6031C343.593 13.6031 340.742 10.5579 340.742 6.80153C340.742 3.04515 343.593 0 347.11 0C350.626 0 353.477 3.04515 353.477 6.80153C353.477 10.5579 350.626 13.6031 347.11 13.6031Z" fill="#E6E6E6"/>
<path d="M314.878 13.6031C311.362 13.6031 308.511 10.5579 308.511 6.80153C308.511 3.04515 311.362 0 314.878 0C318.395 0 321.246 3.04515 321.246 6.80153C321.246 10.5579 318.395 13.6031 314.878 13.6031Z" fill="#E6E6E6"/>
<path d="M282.647 13.6031C279.13 13.6031 276.28 10.5579 276.28 6.80153C276.28 3.04515 279.13 0 282.647 0C286.164 0 289.014 3.04515 289.014 6.80153C289.014 10.5579 286.164 13.6031 282.647 13.6031Z" fill="#E6E6E6"/>
<path d="M250.416 13.6031C246.899 13.6031 244.048 10.5579 244.048 6.80153C244.048 3.04515 246.899 0 250.416 0C253.932 0 256.783 3.04515 256.783 6.80153C256.783 10.5579 253.932 13.6031 250.416 13.6031Z" fill="#E6E6E6"/>
<path d="M540.499 48.4644C536.982 48.4644 534.131 45.4192 534.131 41.6629C534.131 37.9065 536.982 34.8613 540.499 34.8613C544.015 34.8613 546.866 37.9065 546.866 41.6629C546.866 45.4192 544.015 48.4644 540.499 48.4644Z" fill="#E6E6E6"/>
<path d="M508.267 48.4644C504.75 48.4644 501.9 45.4192 501.9 41.6629C501.9 37.9065 504.75 34.8613 508.267 34.8613C511.784 34.8613 514.634 37.9065 514.634 41.6629C514.634 45.4192 511.784 48.4644 508.267 48.4644Z" fill="#E6E6E6"/>
<path d="M476.036 48.4644C472.519 48.4644 469.668 45.4192 469.668 41.6629C469.668 37.9065 472.519 34.8613 476.036 34.8613C479.552 34.8613 482.403 37.9065 482.403 41.6629C482.403 45.4192 479.552 48.4644 476.036 48.4644Z" fill="#E6E6E6"/>
<path d="M443.804 48.4644C440.288 48.4644 437.437 45.4192 437.437 41.6629C437.437 37.9065 440.288 34.8613 443.804 34.8613C447.321 34.8613 450.172 37.9065 450.172 41.6629C450.172 45.4192 447.321 48.4644 443.804 48.4644Z" fill="#F9A826"/>
<path d="M411.573 48.4644C408.056 48.4644 405.205 45.4192 405.205 41.6629C405.205 37.9065 408.056 34.8613 411.573 34.8613C415.089 34.8613 417.94 37.9065 417.94 41.6629C417.94 45.4192 415.089 48.4644 411.573 48.4644Z" fill="#E6E6E6"/>
<path d="M379.341 48.4644C375.825 48.4644 372.974 45.4192 372.974 41.6629C372.974 37.9065 375.825 34.8613 379.341 34.8613C382.858 34.8613 385.709 37.9065 385.709 41.6629C385.709 45.4192 382.858 48.4644 379.341 48.4644Z" fill="#E6E6E6"/>
<path d="M347.11 48.4644C343.593 48.4644 340.742 45.4192 340.742 41.6629C340.742 37.9065 343.593 34.8613 347.11 34.8613C350.626 34.8613 353.477 37.9065 353.477 41.6629C353.477 45.4192 350.626 48.4644 347.11 48.4644Z" fill="#E6E6E6"/>
<path d="M314.878 48.4644C311.362 48.4644 308.511 45.4192 308.511 41.6629C308.511 37.9065 311.362 34.8613 314.878 34.8613C318.395 34.8613 321.246 37.9065 321.246 41.6629C321.246 45.4192 318.395 48.4644 314.878 48.4644Z" fill="#E6E6E6"/>
<path d="M282.647 48.4644C279.13 48.4644 276.28 45.4192 276.28 41.6629C276.28 37.9065 279.13 34.8613 282.647 34.8613C286.164 34.8613 289.014 37.9065 289.014 41.6629C289.014 45.4192 286.164 48.4644 282.647 48.4644Z" fill="#E6E6E6"/>
<path d="M250.416 48.4644C246.899 48.4644 244.048 45.4192 244.048 41.6629C244.048 37.9065 246.899 34.8613 250.416 34.8613C253.932 34.8613 256.783 37.9065 256.783 41.6629C256.783 45.4192 253.932 48.4644 250.416 48.4644Z" fill="#E6E6E6"/>
<path d="M540.499 83.3257C536.982 83.3257 534.131 80.2806 534.131 76.5242C534.131 72.7678 536.982 69.7227 540.499 69.7227C544.015 69.7227 546.866 72.7678 546.866 76.5242C546.866 80.2806 544.015 83.3257 540.499 83.3257Z" fill="#E6E6E6"/>
<path d="M508.267 83.3257C504.75 83.3257 501.9 80.2806 501.9 76.5242C501.9 72.7678 504.75 69.7227 508.267 69.7227C511.784 69.7227 514.634 72.7678 514.634 76.5242C514.634 80.2806 511.784 83.3257 508.267 83.3257Z" fill="#E6E6E6"/>
<path d="M476.036 83.3257C472.519 83.3257 469.668 80.2806 469.668 76.5242C469.668 72.7678 472.519 69.7227 476.036 69.7227C479.552 69.7227 482.403 72.7678 482.403 76.5242C482.403 80.2806 479.552 83.3257 476.036 83.3257Z" fill="#E6E6E6"/>
<path d="M443.804 83.3257C440.288 83.3257 437.437 80.2806 437.437 76.5242C437.437 72.7678 440.288 69.7227 443.804 69.7227C447.321 69.7227 450.172 72.7678 450.172 76.5242C450.172 80.2806 447.321 83.3257 443.804 83.3257Z" fill="#E6E6E6"/>
<path d="M411.573 83.3257C408.056 83.3257 405.205 80.2806 405.205 76.5242C405.205 72.7678 408.056 69.7227 411.573 69.7227C415.089 69.7227 417.94 72.7678 417.94 76.5242C417.94 80.2806 415.089 83.3257 411.573 83.3257Z" fill="#E6E6E6"/>
<path d="M379.341 83.3257C375.825 83.3257 372.974 80.2806 372.974 76.5242C372.974 72.7678 375.825 69.7227 379.341 69.7227C382.858 69.7227 385.709 72.7678 385.709 76.5242C385.709 80.2806 382.858 83.3257 379.341 83.3257Z" fill="#E6E6E6"/>
<path d="M347.11 83.3257C343.593 83.3257 340.742 80.2806 340.742 76.5242C340.742 72.7678 343.593 69.7227 347.11 69.7227C350.626 69.7227 353.477 72.7678 353.477 76.5242C353.477 80.2806 350.626 83.3257 347.11 83.3257Z" fill="#E6E6E6"/>
<path d="M314.878 83.3257C311.362 83.3257 308.511 80.2806 308.511 76.5242C308.511 72.7678 311.362 69.7227 314.878 69.7227C318.395 69.7227 321.246 72.7678 321.246 76.5242C321.246 80.2806 318.395 83.3257 314.878 83.3257Z" fill="#E6E6E6"/>
<path d="M282.647 83.3257C279.13 83.3257 276.28 80.2806 276.28 76.5242C276.28 72.7678 279.13 69.7227 282.647 69.7227C286.164 69.7227 289.014 72.7678 289.014 76.5242C289.014 80.2806 286.164 83.3257 282.647 83.3257Z" fill="#E6E6E6"/>
<path d="M250.416 83.3257C246.899 83.3257 244.048 80.2806 244.048 76.5242C244.048 72.7678 246.899 69.7227 250.416 69.7227C253.932 69.7227 256.783 72.7678 256.783 76.5242C256.783 80.2806 253.932 83.3257 250.416 83.3257Z" fill="#E6E6E6"/>
<path d="M540.499 118.187C536.982 118.187 534.131 115.142 534.131 111.386C534.131 107.629 536.982 104.584 540.499 104.584C544.015 104.584 546.866 107.629 546.866 111.386C546.866 115.142 544.015 118.187 540.499 118.187Z" fill="#E6E6E6"/>
<path d="M508.267 118.187C504.75 118.187 501.9 115.142 501.9 111.386C501.9 107.629 504.75 104.584 508.267 104.584C511.784 104.584 514.634 107.629 514.634 111.386C514.634 115.142 511.784 118.187 508.267 118.187Z" fill="#E6E6E6"/>
<path d="M476.036 118.187C472.519 118.187 469.668 115.142 469.668 111.386C469.668 107.629 472.519 104.584 476.036 104.584C479.552 104.584 482.403 107.629 482.403 111.386C482.403 115.142 479.552 118.187 476.036 118.187Z" fill="#E6E6E6"/>
<path d="M443.804 118.187C440.288 118.187 437.437 115.142 437.437 111.386C437.437 107.629 440.288 104.584 443.804 104.584C447.321 104.584 450.172 107.629 450.172 111.386C450.172 115.142 447.321 118.187 443.804 118.187Z" fill="#E6E6E6"/>
<path d="M411.573 118.187C408.056 118.187 405.205 115.142 405.205 111.386C405.205 107.629 408.056 104.584 411.573 104.584C415.089 104.584 417.94 107.629 417.94 111.386C417.94 115.142 415.089 118.187 411.573 118.187Z" fill="#E6E6E6"/>
<path d="M379.341 118.187C375.825 118.187 372.974 115.142 372.974 111.386C372.974 107.629 375.825 104.584 379.341 104.584C382.858 104.584 385.709 107.629 385.709 111.386C385.709 115.142 382.858 118.187 379.341 118.187Z" fill="#E6E6E6"/>
<path d="M347.11 118.187C343.593 118.187 340.742 115.142 340.742 111.386C340.742 107.629 343.593 104.584 347.11 104.584C350.626 104.584 353.477 107.629 353.477 111.386C353.477 115.142 350.626 118.187 347.11 118.187Z" fill="#E6E6E6"/>
<path d="M314.878 118.187C311.362 118.187 308.511 115.142 308.511 111.386C308.511 107.629 311.362 104.584 314.878 104.584C318.395 104.584 321.246 107.629 321.246 111.386C321.246 115.142 318.395 118.187 314.878 118.187Z" fill="#E6E6E6"/>
<path d="M282.647 118.187C279.13 118.187 276.28 115.142 276.28 111.386C276.28 107.629 279.13 104.584 282.647 104.584C286.164 104.584 289.014 107.629 289.014 111.386C289.014 115.142 286.164 118.187 282.647 118.187Z" fill="#E6E6E6"/>
<path d="M250.416 118.187C246.899 118.187 244.048 115.142 244.048 111.386C244.048 107.629 246.899 104.584 250.416 104.584C253.932 104.584 256.783 107.629 256.783 111.386C256.783 115.142 253.932 118.187 250.416 118.187Z" fill="#E6E6E6"/>
<path d="M540.499 153.048C536.982 153.048 534.131 150.003 534.131 146.247C534.131 142.49 536.982 139.445 540.499 139.445C544.015 139.445 546.866 142.49 546.866 146.247C546.866 150.003 544.015 153.048 540.499 153.048Z" fill="#E6E6E6"/>
<path d="M508.267 153.048C504.75 153.048 501.9 150.003 501.9 146.247C501.9 142.49 504.75 139.445 508.267 139.445C511.784 139.445 514.634 142.49 514.634 146.247C514.634 150.003 511.784 153.048 508.267 153.048Z" fill="#F9A826"/>
<path d="M476.036 153.048C472.519 153.048 469.668 150.003 469.668 146.247C469.668 142.49 472.519 139.445 476.036 139.445C479.552 139.445 482.403 142.49 482.403 146.247C482.403 150.003 479.552 153.048 476.036 153.048Z" fill="#E6E6E6"/>
<path d="M443.804 153.048C440.288 153.048 437.437 150.003 437.437 146.247C437.437 142.49 440.288 139.445 443.804 139.445C447.321 139.445 450.172 142.49 450.172 146.247C450.172 150.003 447.321 153.048 443.804 153.048Z" fill="#E6E6E6"/>
<path d="M411.573 153.048C408.056 153.048 405.205 150.003 405.205 146.247C405.205 142.49 408.056 139.445 411.573 139.445C415.089 139.445 417.94 142.49 417.94 146.247C417.94 150.003 415.089 153.048 411.573 153.048Z" fill="#E6E6E6"/>
<path d="M379.341 153.048C375.825 153.048 372.974 150.003 372.974 146.247C372.974 142.49 375.825 139.445 379.341 139.445C382.858 139.445 385.709 142.49 385.709 146.247C385.709 150.003 382.858 153.048 379.341 153.048Z" fill="#E6E6E6"/>
<path d="M347.11 153.048C343.593 153.048 340.742 150.003 340.742 146.247C340.742 142.49 343.593 139.445 347.11 139.445C350.626 139.445 353.477 142.49 353.477 146.247C353.477 150.003 350.626 153.048 347.11 153.048Z" fill="#E6E6E6"/>
<path d="M314.878 153.048C311.362 153.048 308.511 150.003 308.511 146.247C308.511 142.49 311.362 139.445 314.878 139.445C318.395 139.445 321.246 142.49 321.246 146.247C321.246 150.003 318.395 153.048 314.878 153.048Z" fill="#E6E6E6"/>
<path d="M282.647 153.048C279.13 153.048 276.28 150.003 276.28 146.247C276.28 142.49 279.13 139.445 282.647 139.445C286.164 139.445 289.014 142.49 289.014 146.247C289.014 150.003 286.164 153.048 282.647 153.048Z" fill="#E6E6E6"/>
<path d="M250.416 153.048C246.899 153.048 244.048 150.003 244.048 146.247C244.048 142.49 246.899 139.445 250.416 139.445C253.932 139.445 256.783 142.49 256.783 146.247C256.783 150.003 253.932 153.048 250.416 153.048Z" fill="#E6E6E6"/>
<path d="M540.499 187.91C536.982 187.91 534.131 184.865 534.131 181.108C534.131 177.352 536.982 174.307 540.499 174.307C544.015 174.307 546.866 177.352 546.866 181.108C546.866 184.865 544.015 187.91 540.499 187.91Z" fill="#E6E6E6"/>
<path d="M508.267 187.91C504.75 187.91 501.9 184.865 501.9 181.108C501.9 177.352 504.75 174.307 508.267 174.307C511.784 174.307 514.634 177.352 514.634 181.108C514.634 184.865 511.784 187.91 508.267 187.91Z" fill="#E6E6E6"/>
<path d="M476.036 187.91C472.519 187.91 469.668 184.865 469.668 181.108C469.668 177.352 472.519 174.307 476.036 174.307C479.552 174.307 482.403 177.352 482.403 181.108C482.403 184.865 479.552 187.91 476.036 187.91Z" fill="#E6E6E6"/>
<path d="M443.804 187.91C440.288 187.91 437.437 184.865 437.437 181.108C437.437 177.352 440.288 174.307 443.804 174.307C447.321 174.307 450.172 177.352 450.172 181.108C450.172 184.865 447.321 187.91 443.804 187.91Z" fill="#E6E6E6"/>
<path d="M411.573 187.91C408.056 187.91 405.205 184.865 405.205 181.108C405.205 177.352 408.056 174.307 411.573 174.307C415.089 174.307 417.94 177.352 417.94 181.108C417.94 184.865 415.089 187.91 411.573 187.91Z" fill="#E6E6E6"/>
<path d="M379.341 187.91C375.825 187.91 372.974 184.865 372.974 181.108C372.974 177.352 375.825 174.307 379.341 174.307C382.858 174.307 385.709 177.352 385.709 181.108C385.709 184.865 382.858 187.91 379.341 187.91Z" fill="#E6E6E6"/>
<path d="M347.11 187.91C343.593 187.91 340.742 184.865 340.742 181.108C340.742 177.352 343.593 174.307 347.11 174.307C350.626 174.307 353.477 177.352 353.477 181.108C353.477 184.865 350.626 187.91 347.11 187.91Z" fill="#E6E6E6"/>
<path d="M314.878 187.91C311.362 187.91 308.511 184.865 308.511 181.108C308.511 177.352 311.362 174.307 314.878 174.307C318.395 174.307 321.246 177.352 321.246 181.108C321.246 184.865 318.395 187.91 314.878 187.91Z" fill="#E6E6E6"/>
<path d="M282.647 187.91C279.13 187.91 276.28 184.865 276.28 181.108C276.28 177.352 279.13 174.307 282.647 174.307C286.164 174.307 289.014 177.352 289.014 181.108C289.014 184.865 286.164 187.91 282.647 187.91Z" fill="#E6E6E6"/>
<path d="M250.416 187.91C246.899 187.91 244.048 184.865 244.048 181.108C244.048 177.352 246.899 174.307 250.416 174.307C253.932 174.307 256.783 177.352 256.783 181.108C256.783 184.865 253.932 187.91 250.416 187.91Z" fill="#E6E6E6"/>
<path d="M540.499 222.772C536.982 222.772 534.131 219.726 534.131 215.97C534.131 212.214 536.982 209.168 540.499 209.168C544.015 209.168 546.866 212.214 546.866 215.97C546.866 219.726 544.015 222.772 540.499 222.772Z" fill="#E6E6E6"/>
<path d="M508.267 222.772C504.75 222.772 501.9 219.726 501.9 215.97C501.9 212.214 504.75 209.168 508.267 209.168C511.784 209.168 514.634 212.214 514.634 215.97C514.634 219.726 511.784 222.772 508.267 222.772Z" fill="#E6E6E6"/>
<path d="M476.036 222.772C472.519 222.772 469.668 219.726 469.668 215.97C469.668 212.214 472.519 209.168 476.036 209.168C479.552 209.168 482.403 212.214 482.403 215.97C482.403 219.726 479.552 222.772 476.036 222.772Z" fill="#F9A826"/>
<path d="M443.804 222.772C440.288 222.772 437.437 219.726 437.437 215.97C437.437 212.214 440.288 209.168 443.804 209.168C447.321 209.168 450.172 212.214 450.172 215.97C450.172 219.726 447.321 222.772 443.804 222.772Z" fill="#E6E6E6"/>
<path d="M411.573 222.772C408.056 222.772 405.205 219.726 405.205 215.97C405.205 212.214 408.056 209.168 411.573 209.168C415.089 209.168 417.94 212.214 417.94 215.97C417.94 219.726 415.089 222.772 411.573 222.772Z" fill="#E6E6E6"/>
<path d="M379.341 222.772C375.825 222.772 372.974 219.726 372.974 215.97C372.974 212.214 375.825 209.168 379.341 209.168C382.858 209.168 385.709 212.214 385.709 215.97C385.709 219.726 382.858 222.772 379.341 222.772Z" fill="#E6E6E6"/>
<path d="M347.11 222.772C343.593 222.772 340.742 219.726 340.742 215.97C340.742 212.214 343.593 209.168 347.11 209.168C350.626 209.168 353.477 212.214 353.477 215.97C353.477 219.726 350.626 222.772 347.11 222.772Z" fill="#E6E6E6"/>
<path d="M314.878 222.772C311.362 222.772 308.511 219.726 308.511 215.97C308.511 212.214 311.362 209.168 314.878 209.168C318.395 209.168 321.246 212.214 321.246 215.97C321.246 219.726 318.395 222.772 314.878 222.772Z" fill="#E6E6E6"/>
<path d="M282.647 222.772C279.13 222.772 276.28 219.726 276.28 215.97C276.28 212.214 279.13 209.168 282.647 209.168C286.164 209.168 289.014 212.214 289.014 215.97C289.014 219.726 286.164 222.772 282.647 222.772Z" fill="#E6E6E6"/>
<path d="M250.416 222.772C246.899 222.772 244.048 219.726 244.048 215.97C244.048 212.214 246.899 209.168 250.416 209.168C253.932 209.168 256.783 212.214 256.783 215.97C256.783 219.726 253.932 222.772 250.416 222.772Z" fill="#E6E6E6"/>
<path d="M540.499 257.633C536.982 257.633 534.131 254.588 534.131 250.831C534.131 247.075 536.982 244.03 540.499 244.03C544.015 244.03 546.866 247.075 546.866 250.831C546.866 254.588 544.015 257.633 540.499 257.633Z" fill="#E6E6E6"/>
<path d="M508.267 257.633C504.75 257.633 501.9 254.588 501.9 250.831C501.9 247.075 504.75 244.03 508.267 244.03C511.784 244.03 514.634 247.075 514.634 250.831C514.634 254.588 511.784 257.633 508.267 257.633Z" fill="#E6E6E6"/>
<path d="M476.036 257.633C472.519 257.633 469.668 254.588 469.668 250.831C469.668 247.075 472.519 244.03 476.036 244.03C479.552 244.03 482.403 247.075 482.403 250.831C482.403 254.588 479.552 257.633 476.036 257.633Z" fill="#E6E6E6"/>
<path d="M443.804 257.633C440.288 257.633 437.437 254.588 437.437 250.831C437.437 247.075 440.288 244.03 443.804 244.03C447.321 244.03 450.172 247.075 450.172 250.831C450.172 254.588 447.321 257.633 443.804 257.633Z" fill="#E6E6E6"/>
<path d="M411.573 257.633C408.056 257.633 405.205 254.588 405.205 250.831C405.205 247.075 408.056 244.03 411.573 244.03C415.089 244.03 417.94 247.075 417.94 250.831C417.94 254.588 415.089 257.633 411.573 257.633Z" fill="#E6E6E6"/>
<path d="M379.341 257.633C375.825 257.633 372.974 254.588 372.974 250.831C372.974 247.075 375.825 244.03 379.341 244.03C382.858 244.03 385.709 247.075 385.709 250.831C385.709 254.588 382.858 257.633 379.341 257.633Z" fill="#E6E6E6"/>
<path d="M347.11 257.633C343.593 257.633 340.742 254.588 340.742 250.831C340.742 247.075 343.593 244.03 347.11 244.03C350.626 244.03 353.477 247.075 353.477 250.831C353.477 254.588 350.626 257.633 347.11 257.633Z" fill="#E6E6E6"/>
<path d="M314.878 257.633C311.362 257.633 308.511 254.588 308.511 250.831C308.511 247.075 311.362 244.03 314.878 244.03C318.395 244.03 321.246 247.075 321.246 250.831C321.246 254.588 318.395 257.633 314.878 257.633Z" fill="#E6E6E6"/>
<path d="M282.647 257.633C279.13 257.633 276.28 254.588 276.28 250.831C276.28 247.075 279.13 244.03 282.647 244.03C286.164 244.03 289.014 247.075 289.014 250.831C289.014 254.588 286.164 257.633 282.647 257.633Z" fill="#E6E6E6"/>
<path d="M250.416 257.633C246.899 257.633 244.048 254.588 244.048 250.831C244.048 247.075 246.899 244.03 250.416 244.03C253.932 244.03 256.783 247.075 256.783 250.831C256.783 254.588 253.932 257.633 250.416 257.633Z" fill="#E6E6E6"/>
<path d="M540.499 292.494C536.982 292.494 534.131 289.449 534.131 285.693C534.131 281.936 536.982 278.891 540.499 278.891C544.015 278.891 546.866 281.936 546.866 285.693C546.866 289.449 544.015 292.494 540.499 292.494Z" fill="#E6E6E6"/>
<path d="M508.267 292.494C504.75 292.494 501.9 289.449 501.9 285.693C501.9 281.936 504.75 278.891 508.267 278.891C511.784 278.891 514.634 281.936 514.634 285.693C514.634 289.449 511.784 292.494 508.267 292.494Z" fill="#E6E6E6"/>
<path d="M476.036 292.494C472.519 292.494 469.668 289.449 469.668 285.693C469.668 281.936 472.519 278.891 476.036 278.891C479.552 278.891 482.403 281.936 482.403 285.693C482.403 289.449 479.552 292.494 476.036 292.494Z" fill="#E6E6E6"/>
<path d="M443.804 292.494C440.288 292.494 437.437 289.449 437.437 285.693C437.437 281.936 440.288 278.891 443.804 278.891C447.321 278.891 450.172 281.936 450.172 285.693C450.172 289.449 447.321 292.494 443.804 292.494Z" fill="#E6E6E6"/>
<path d="M411.573 292.494C408.056 292.494 405.205 289.449 405.205 285.693C405.205 281.936 408.056 278.891 411.573 278.891C415.089 278.891 417.94 281.936 417.94 285.693C417.94 289.449 415.089 292.494 411.573 292.494Z" fill="#E6E6E6"/>
<path d="M379.341 292.494C375.825 292.494 372.974 289.449 372.974 285.693C372.974 281.936 375.825 278.891 379.341 278.891C382.858 278.891 385.709 281.936 385.709 285.693C385.709 289.449 382.858 292.494 379.341 292.494Z" fill="#E6E6E6"/>
<path d="M347.11 292.494C343.593 292.494 340.742 289.449 340.742 285.693C340.742 281.936 343.593 278.891 347.11 278.891C350.626 278.891 353.477 281.936 353.477 285.693C353.477 289.449 350.626 292.494 347.11 292.494Z" fill="#E6E6E6"/>
<path d="M314.878 292.494C311.362 292.494 308.511 289.449 308.511 285.693C308.511 281.936 311.362 278.891 314.878 278.891C318.395 278.891 321.246 281.936 321.246 285.693C321.246 289.449 318.395 292.494 314.878 292.494Z" fill="#E6E6E6"/>
<path d="M282.647 292.494C279.13 292.494 276.28 289.449 276.28 285.693C276.28 281.936 279.13 278.891 282.647 278.891C286.164 278.891 289.014 281.936 289.014 285.693C289.014 289.449 286.164 292.494 282.647 292.494Z" fill="#E6E6E6"/>
<path d="M250.416 292.494C246.899 292.494 244.048 289.449 244.048 285.693C244.048 281.936 246.899 278.891 250.416 278.891C253.932 278.891 256.783 281.936 256.783 285.693C256.783 289.449 253.932 292.494 250.416 292.494Z" fill="#E6E6E6"/>
<path d="M540.499 327.356C536.982 327.356 534.131 324.31 534.131 320.554C534.131 316.798 536.982 313.752 540.499 313.752C544.015 313.752 546.866 316.798 546.866 320.554C546.866 324.31 544.015 327.356 540.499 327.356Z" fill="#E6E6E6"/>
<path d="M508.267 327.356C504.75 327.356 501.9 324.31 501.9 320.554C501.9 316.798 504.75 313.752 508.267 313.752C511.784 313.752 514.634 316.798 514.634 320.554C514.634 324.31 511.784 327.356 508.267 327.356Z" fill="#E6E6E6"/>
<path d="M476.036 327.356C472.519 327.356 469.668 324.31 469.668 320.554C469.668 316.798 472.519 313.752 476.036 313.752C479.552 313.752 482.403 316.798 482.403 320.554C482.403 324.31 479.552 327.356 476.036 327.356Z" fill="#E6E6E6"/>
<path d="M443.804 327.356C440.288 327.356 437.437 324.31 437.437 320.554C437.437 316.798 440.288 313.752 443.804 313.752C447.321 313.752 450.172 316.798 450.172 320.554C450.172 324.31 447.321 327.356 443.804 327.356Z" fill="#E6E6E6"/>
<path d="M411.573 327.356C408.056 327.356 405.205 324.31 405.205 320.554C405.205 316.798 408.056 313.752 411.573 313.752C415.089 313.752 417.94 316.798 417.94 320.554C417.94 324.31 415.089 327.356 411.573 327.356Z" fill="#E6E6E6"/>
<path d="M379.341 327.356C375.825 327.356 372.974 324.31 372.974 320.554C372.974 316.798 375.825 313.752 379.341 313.752C382.858 313.752 385.709 316.798 385.709 320.554C385.709 324.31 382.858 327.356 379.341 327.356Z" fill="#E6E6E6"/>
<path d="M347.11 327.356C343.593 327.356 340.742 324.31 340.742 320.554C340.742 316.798 343.593 313.752 347.11 313.752C350.626 313.752 353.477 316.798 353.477 320.554C353.477 324.31 350.626 327.356 347.11 327.356Z" fill="#E6E6E6"/>
<path d="M314.878 327.356C311.362 327.356 308.511 324.31 308.511 320.554C308.511 316.798 311.362 313.752 314.878 313.752C318.395 313.752 321.246 316.798 321.246 320.554C321.246 324.31 318.395 327.356 314.878 327.356Z" fill="#E6E6E6"/>
<path d="M282.647 327.356C279.13 327.356 276.28 324.31 276.28 320.554C276.28 316.798 279.13 313.752 282.647 313.752C286.164 313.752 289.014 316.798 289.014 320.554C289.014 324.31 286.164 327.356 282.647 327.356Z" fill="#E6E6E6"/>
<path d="M250.416 327.356C246.899 327.356 244.048 324.31 244.048 320.554C244.048 316.798 246.899 313.752 250.416 313.752C253.932 313.752 256.783 316.798 256.783 320.554C256.783 324.31 253.932 327.356 250.416 327.356Z" fill="#E6E6E6"/>
<path d="M311.273 269.906L235.703 128.456H386.924L462.574 268.421L386.924 408.387H235.622L160.113 268.683L311.273 269.906Z" fill="#3F3D56"/>
<path d="M141.344 256.802L141.203 256.54L216.853 116.575H216.934L292.504 258.025L141.344 256.802Z" fill="#F9A826"/>
<path d="M31.901 122.319C33.1337 120.78 33.7501 118.528 33.7501 115.562C33.7501 112.624 33.1337 110.385 31.901 108.846C31.266 108.074 30.4757 107.466 29.5893 107.066C28.7029 106.666 27.7434 106.486 26.7826 106.539C25.8128 106.485 24.844 106.664 23.9478 107.063C23.0516 107.463 22.2508 108.072 21.6045 108.846C20.3595 110.385 19.7368 112.624 19.7363 115.562C19.7363 118.529 20.359 120.781 21.6045 122.319C22.2507 123.093 23.0515 123.703 23.9477 124.102C24.8439 124.502 25.8128 124.681 26.7826 124.627C27.7435 124.679 28.703 124.499 29.5894 124.099C30.4758 123.7 31.2661 123.091 31.901 122.319ZM24.5628 119.928C24.0073 118.553 23.7671 117.056 23.8622 115.562C23.7708 114.086 24.0183 112.609 24.5832 111.258C24.792 110.833 25.1096 110.48 25.4991 110.241C25.8885 110.002 26.3337 109.886 26.7826 109.907C27.2232 109.888 27.6595 110.006 28.0391 110.246C28.4187 110.485 28.7255 110.837 28.9229 111.258C29.4733 112.613 29.7137 114.088 29.6242 115.562C29.7158 117.049 29.4755 118.538 28.9229 119.907C28.7257 120.328 28.4189 120.68 28.0393 120.92C27.6596 121.159 27.2233 121.277 26.7826 121.259C26.3323 121.286 25.884 121.176 25.4907 120.94C25.0974 120.704 24.7754 120.353 24.5628 119.928ZM27.0541 136.56L11.0167 106.955H6.69598L22.7727 136.56H27.0541ZM12.1647 134.544C13.3981 133.005 14.0145 130.739 14.0138 127.745C14.0138 124.807 13.3974 122.576 12.1647 121.05C11.488 120.326 10.6842 119.751 9.79909 119.358C8.91402 118.966 7.96516 118.764 7.00689 118.764C6.04862 118.764 5.09976 118.966 4.21469 119.358C3.32963 119.751 2.52576 120.326 1.84913 121.05C0.617043 122.575 0.000671387 124.821 0 127.787C0 130.753 0.616371 133.006 1.84913 134.544C2.52258 135.275 3.32542 135.855 4.21091 136.251C5.09641 136.648 6.04686 136.852 7.00689 136.852C7.96692 136.852 8.91738 136.648 9.80287 136.251C10.6884 135.855 11.4912 135.275 12.1647 134.544ZM4.82784 132.132C4.27536 130.763 4.03502 129.274 4.1266 127.787C4.03528 126.311 4.28252 124.834 4.84685 123.483C5.06426 123.073 5.3797 122.732 5.76098 122.494C6.14226 122.257 6.57572 122.132 7.01708 122.132C7.45843 122.132 7.89189 122.257 8.27317 122.494C8.65445 122.732 8.96989 123.073 9.1873 123.483C9.73715 124.838 9.97725 126.313 9.88783 127.787C9.97922 129.274 9.73916 130.763 9.1873 132.132C8.96773 132.543 8.65047 132.884 8.26768 133.121C7.88488 133.358 7.45013 133.483 7.00755 133.483C6.56496 133.483 6.13026 133.358 5.74747 133.121C5.36467 132.884 5.04741 132.543 4.82784 132.132Z" fill="#3F3D56"/>
<path d="M574.097 377.703C575.33 376.165 575.946 373.913 575.946 370.947C575.946 368.009 575.33 365.77 574.097 364.231C573.462 363.459 572.672 362.85 571.786 362.451C570.899 362.051 569.94 361.871 568.979 361.923C568.009 361.869 567.04 362.049 566.144 362.448C565.248 362.848 564.447 363.457 563.801 364.231C562.556 365.77 561.933 368.008 561.933 370.947C561.933 373.913 562.555 376.166 563.801 377.703C564.447 378.478 565.248 379.087 566.144 379.487C567.04 379.886 568.009 380.066 568.979 380.012C569.94 380.064 570.899 379.884 571.786 379.484C572.672 379.084 573.462 378.476 574.097 377.703ZM566.759 375.313C566.203 373.938 565.963 372.441 566.058 370.947C565.967 369.471 566.215 367.993 566.779 366.643C566.988 366.218 567.306 365.865 567.695 365.626C568.085 365.387 568.53 365.271 568.979 365.292C569.419 365.273 569.856 365.391 570.235 365.631C570.615 365.87 570.922 366.222 571.119 366.643C571.67 367.998 571.91 369.473 571.82 370.947C571.912 372.434 571.672 373.923 571.119 375.292C570.922 375.713 570.615 376.065 570.235 376.304C569.856 376.544 569.42 376.662 568.979 376.643C568.529 376.671 568.08 376.56 567.687 376.325C567.294 376.089 566.972 375.738 566.759 375.313ZM569.25 391.945L553.213 362.339H548.892L564.969 391.945H569.25ZM554.361 389.929C555.594 388.39 556.211 386.124 556.21 383.13C556.21 380.192 555.594 377.961 554.361 376.435C553.684 375.71 552.88 375.135 551.995 374.743C551.11 374.351 550.161 374.149 549.203 374.149C548.245 374.149 547.296 374.351 546.411 374.743C545.526 375.135 544.722 375.71 544.045 376.435C542.813 377.96 542.197 380.206 542.196 383.172C542.196 386.138 542.813 388.39 544.045 389.929C544.719 390.659 545.522 391.24 546.407 391.636C547.293 392.032 548.243 392.236 549.203 392.236C550.163 392.236 551.114 392.032 551.999 391.636C552.885 391.24 553.687 390.659 554.361 389.929ZM547.024 387.517C546.472 386.148 546.231 384.659 546.323 383.172C546.232 381.696 546.479 380.219 547.043 378.868C547.26 378.458 547.576 378.116 547.957 377.879C548.338 377.642 548.772 377.516 549.213 377.516C549.655 377.516 550.088 377.642 550.469 377.879C550.851 378.116 551.166 378.458 551.384 378.868C551.933 380.223 552.174 381.698 552.084 383.172C552.175 384.659 551.935 386.148 551.384 387.517C551.164 387.927 550.847 388.269 550.464 388.506C550.081 388.743 549.646 388.868 549.204 388.868C548.761 388.868 548.326 388.743 547.944 388.506C547.561 388.269 547.244 387.927 547.024 387.517Z" fill="#3F3D56"/>
<path d="M213.038 207.259L214.017 206.981L192.658 121.154H68.7699V122.236H191.88L213.038 207.259Z" fill="#2F2E41"/>
<path d="M58.647 133.049C60.7492 133.049 62.8042 132.383 64.5522 131.136C66.3001 129.888 67.6625 128.115 68.467 126.04C69.2714 123.965 69.482 121.683 69.0718 119.48C68.6617 117.278 67.6494 115.255 66.1629 113.667C64.6764 112.079 62.7825 110.998 60.7206 110.559C58.6588 110.121 56.5216 110.346 54.5794 111.206C52.6372 112.065 50.9772 113.52 49.8092 115.387C48.6413 117.254 48.0179 119.45 48.0179 121.695C48.0211 124.705 49.142 127.591 51.1346 129.72C53.1273 131.848 55.8289 133.046 58.647 133.049ZM58.647 111.423C60.549 111.423 62.4083 112.025 63.9898 113.154C65.5712 114.283 66.8038 115.887 67.5317 117.764C68.2596 119.641 68.4501 121.707 68.079 123.699C67.7079 125.692 66.792 127.522 65.4471 128.959C64.1022 130.396 62.3886 131.374 60.5232 131.77C58.6577 132.167 56.724 131.963 54.9668 131.186C53.2096 130.408 51.7077 129.092 50.651 127.402C49.5943 125.713 49.0302 123.727 49.0302 121.695C49.0331 118.972 50.0472 116.361 51.8501 114.435C53.653 112.509 56.0973 111.426 58.647 111.423Z" fill="#2F2E41"/>
<path d="M58.647 126.02C56.4107 126.02 54.5978 124.084 54.5978 121.695C54.5978 119.306 56.4107 117.37 58.647 117.37C60.8833 117.37 62.6962 119.306 62.6962 121.695C62.6962 124.084 60.8833 126.02 58.647 126.02Z" fill="#F9A826"/>
<path d="M369.448 291.517L368.469 291.795L389.828 377.62H513.717V376.539H390.607L369.448 291.517Z" fill="#2F2E41"/>
<path d="M523.84 365.726C521.738 365.726 519.683 366.392 517.935 367.64C516.187 368.887 514.824 370.66 514.02 372.735C513.215 374.81 513.005 377.093 513.415 379.295C513.825 381.497 514.837 383.52 516.324 385.108C517.81 386.696 519.704 387.777 521.766 388.216C523.828 388.654 525.965 388.429 527.907 387.57C529.85 386.71 531.51 385.255 532.678 383.388C533.845 381.521 534.469 379.325 534.469 377.08C534.466 374.07 533.345 371.184 531.352 369.055C529.36 366.927 526.658 365.729 523.84 365.726ZM523.84 387.352C521.938 387.352 520.078 386.75 518.497 385.621C516.916 384.492 515.683 382.888 514.955 381.011C514.227 379.134 514.037 377.068 514.408 375.076C514.779 373.083 515.695 371.253 517.04 369.816C518.385 368.379 520.098 367.401 521.964 367.005C523.829 366.608 525.763 366.812 527.52 367.589C529.277 368.367 530.779 369.683 531.836 371.373C532.893 373.062 533.457 375.048 533.457 377.08C533.454 379.803 532.44 382.414 530.637 384.34C528.834 386.266 526.389 387.349 523.84 387.352Z" fill="#2F2E41"/>
<path d="M523.84 421.999C521.603 421.999 519.791 420.063 519.791 417.674C519.791 415.285 521.603 413.349 523.84 413.349C526.076 413.349 527.889 415.285 527.889 417.674C527.889 420.063 526.076 421.999 523.84 421.999Z" fill="#F9A826"/>
</svg>
