<svg width="694" height="585" viewBox="0 0 694 585" fill="none" xmlns="http://www.w3.org/2000/svg">
<path d="M4.60575 100.446C6.60483 100.446 8.22541 98.825 8.22541 96.826C8.22541 94.8269 6.60483 93.2063 4.60575 93.2063C2.60666 93.2063 0.986084 94.8269 0.986084 96.826C0.986084 98.825 2.60666 100.446 4.60575 100.446Z" fill="white"/>
<path d="M299.608 0H297.798V169.219H299.608V0Z" fill="#E6E6E6"/>
<path d="M199.127 93.5232C198.838 93.5235 198.56 93.6387 198.355 93.8435C198.15 94.0483 198.035 94.3259 198.035 94.6155V237.405C198.035 237.695 198.15 237.972 198.355 238.177C198.56 238.382 198.838 238.497 199.127 238.497H398.056C398.346 238.497 398.624 238.382 398.829 238.177C399.033 237.972 399.149 237.695 399.149 237.405V94.6155C399.148 94.3259 399.033 94.0483 398.828 93.8435C398.624 93.6387 398.346 93.5235 398.056 93.5232H199.127Z" fill="#E6E6E6"/>
<path d="M387.073 105.306V206.781C387.073 207.116 387.007 207.448 386.879 207.758C386.75 208.068 386.562 208.35 386.325 208.587C386.088 208.824 385.807 209.012 385.497 209.141C385.187 209.269 384.855 209.335 384.52 209.335H212.259C212.136 209.336 212.014 209.327 211.893 209.307C211.285 209.219 210.73 208.916 210.328 208.452C209.926 207.988 209.704 207.395 209.704 206.781V105.306C209.704 104.629 209.973 103.979 210.452 103.5C210.93 103.021 211.58 102.752 212.257 102.752H384.518C384.853 102.752 385.185 102.818 385.495 102.946C385.805 103.074 386.087 103.262 386.324 103.499C386.561 103.736 386.749 104.018 386.878 104.327C387.006 104.637 387.073 104.969 387.073 105.305V105.306Z" fill="white"/>
<path d="M323.411 209.742H213.459C213.322 209.744 213.184 209.733 213.048 209.71L265.051 119.634C265.368 119.073 265.829 118.606 266.385 118.282C266.942 117.957 267.575 117.786 268.22 117.786C268.864 117.786 269.497 117.957 270.054 118.282C270.611 118.606 271.071 119.073 271.389 119.634L306.289 180.082L307.961 182.974L323.411 209.742Z" fill="#F9A826"/>
<path opacity="0.2" d="M323.411 209.742H285.871L304.299 182.974L305.626 181.046L306.289 180.082L307.961 182.974L323.411 209.742Z" fill="black"/>
<path d="M384.632 209.742H289.532L307.961 182.974L309.287 181.046L333.301 146.162C333.725 145.629 334.257 145.191 334.862 144.877C335.467 144.563 336.131 144.38 336.811 144.339C337.491 144.299 338.172 144.402 338.81 144.641C339.448 144.881 340.028 145.252 340.514 145.731C340.638 145.867 340.753 146.011 340.859 146.162L384.632 209.742Z" fill="#F9A826"/>
<path d="M298.703 100.446C300.702 100.446 302.323 98.825 302.323 96.826C302.323 94.8269 300.702 93.2063 298.703 93.2063C296.704 93.2063 295.084 94.8269 295.084 96.826C295.084 98.825 296.704 100.446 298.703 100.446Z" fill="white"/>
<path d="M593.705 0H591.896V169.219H593.705V0Z" fill="#E6E6E6"/>
<path d="M493.225 93.5232C492.935 93.5235 492.657 93.6387 492.453 93.8435C492.248 94.0483 492.133 94.3259 492.132 94.6155V237.405C492.133 237.695 492.248 237.972 492.453 238.177C492.657 238.382 492.935 238.497 493.225 238.497H692.154C692.444 238.497 692.721 238.382 692.926 238.177C693.131 237.972 693.246 237.695 693.246 237.405V94.6155C693.246 94.3259 693.131 94.0483 692.926 93.8435C692.721 93.6387 692.444 93.5235 692.154 93.5232H493.225Z" fill="#E6E6E6"/>
<path d="M681.17 105.306V206.781C681.17 207.116 681.104 207.448 680.976 207.758C680.848 208.068 680.66 208.35 680.423 208.587C680.186 208.824 679.904 209.012 679.594 209.141C679.285 209.269 678.953 209.335 678.617 209.335H506.357C506.234 209.336 506.111 209.327 505.99 209.307C505.383 209.219 504.827 208.916 504.425 208.452C504.023 207.988 503.802 207.395 503.802 206.781V105.306C503.802 104.629 504.07 103.979 504.549 103.5C505.028 103.021 505.677 102.752 506.355 102.752H678.615C678.951 102.752 679.283 102.818 679.593 102.946C679.903 103.074 680.184 103.262 680.422 103.499C680.659 103.736 680.847 104.018 680.975 104.327C681.104 104.637 681.17 104.969 681.17 105.305V105.306Z" fill="white"/>
<path d="M617.509 209.742H507.557C507.419 209.744 507.282 209.733 507.146 209.71L559.148 119.634C559.466 119.073 559.926 118.606 560.483 118.282C561.04 117.957 561.673 117.786 562.317 117.786C562.962 117.786 563.595 117.957 564.151 118.282C564.708 118.606 565.169 119.073 565.486 119.634L600.386 180.082L602.058 182.974L617.509 209.742Z" fill="#E6E6E6"/>
<path opacity="0.2" d="M617.508 209.742H579.969L598.396 182.974L599.723 181.046L600.386 180.082L602.059 182.974L617.508 209.742Z" fill="black"/>
<path d="M678.729 209.742H583.63L602.058 182.974L603.384 181.046L627.398 146.162C627.823 145.629 628.355 145.191 628.96 144.877C629.564 144.563 630.228 144.38 630.909 144.339C631.589 144.299 632.27 144.402 632.908 144.641C633.546 144.881 634.126 145.252 634.611 145.731C634.735 145.867 634.851 146.011 634.957 146.162L678.729 209.742Z" fill="#E6E6E6"/>
<path d="M592.801 100.446C594.8 100.446 596.42 98.825 596.42 96.826C596.42 94.8269 594.8 93.2063 592.801 93.2063C590.802 93.2063 589.181 94.8269 589.181 96.826C589.181 98.825 590.802 100.446 592.801 100.446Z" fill="white"/>
<path d="M523.538 373.775L525.228 385.325C525.458 386.894 525.319 388.495 524.823 390.001C524.326 391.507 523.486 392.877 522.369 394.001C521.251 395.126 519.887 395.976 518.384 396.482C516.882 396.988 515.282 397.138 513.711 396.919C512.187 396.706 510.73 396.152 509.451 395.297C508.171 394.442 507.1 393.309 506.32 391.982C505.54 390.656 505.069 389.17 504.944 387.636C504.819 386.102 505.042 384.559 505.596 383.123L511.33 368.282L508.278 268.18L525.98 261.465L523.538 373.775Z" fill="#A0616A"/>
<path d="M473.487 207.752C486.971 207.752 497.902 196.821 497.902 183.336C497.902 169.852 486.971 158.921 473.487 158.921C460.003 158.921 449.071 169.852 449.071 183.336C449.071 196.821 460.003 207.752 473.487 207.752Z" fill="#A0616A"/>
<path d="M502.785 229.115L457.617 227.284C462.631 216.302 464.621 205.679 462.5 195.544H492.409C490.836 205.102 495.177 216.578 502.785 229.115Z" fill="#A0616A"/>
<path d="M495.46 324.334L428.929 329.217L431.347 291.621C423.68 273.384 424.905 260.215 433.929 251.491L434.746 238.788C435.008 234.723 436.537 230.841 439.119 227.69C441.701 224.539 445.206 222.277 449.141 221.221L460.669 218.128C475.595 226.872 487.495 226.753 496.071 216.907L509.791 223.935C513.115 225.637 515.842 228.31 517.611 231.6C519.38 234.889 520.106 238.638 519.694 242.35L495.46 324.334Z" fill="#F9A826"/>
<path d="M393.527 327.997L374.747 337.856C373.14 338.7 371.297 338.979 369.512 338.649C367.727 338.319 366.106 337.399 364.907 336.036C363.97 334.971 363.329 333.679 363.048 332.289C362.768 330.898 362.858 329.458 363.309 328.113C363.76 326.769 364.557 325.566 365.619 324.626C366.681 323.686 367.972 323.041 369.362 322.757L382.54 320.062L423.435 304.192L430.15 256.582L449.071 261.465L445.409 317.62L393.527 327.997Z" fill="#A0616A"/>
<path d="M527.2 264.517L506.447 276.725L505.227 227.894L508.805 226.673C513.684 226.673 518.362 228.611 521.812 232.061C525.262 235.511 527.2 240.19 527.2 245.069V264.517Z" fill="#F9A826"/>
<path d="M512.856 563.909L495.209 561.148C491.646 500.855 484.469 444.568 471.656 394.528C442.024 433.793 417.184 491.663 395.968 563.604L375.215 558.11L429.539 321.282L494.24 320.062C520.7 356.291 512.954 468.185 512.856 563.909Z" fill="#2F2E41"/>
<path d="M386.804 584.748L356.142 580.449C355.292 580.33 354.477 580.031 353.751 579.572C353.025 579.114 352.405 578.506 351.933 577.789C351.461 577.072 351.146 576.262 351.011 575.415C350.876 574.567 350.923 573.7 351.149 572.872C351.459 571.735 352.094 570.713 352.977 569.933C353.859 569.153 354.951 568.647 356.117 568.479L361.566 567.692L378.793 557.17L393.044 560.97L397.27 573.44C397.595 574.919 397.558 576.454 397.161 577.915C396.765 579.375 396.02 580.719 394.992 581.829C393.964 582.94 392.682 583.786 391.256 584.294C389.831 584.802 388.303 584.958 386.804 584.748Z" fill="#2F2E41"/>
<path d="M507.049 584.748L476.387 580.449C475.537 580.33 474.722 580.031 473.996 579.572C473.27 579.114 472.651 578.506 472.178 577.789C471.706 577.072 471.391 576.262 471.256 575.415C471.121 574.567 471.168 573.7 471.394 572.872C471.704 571.735 472.339 570.713 473.222 569.933C474.104 569.153 475.196 568.647 476.362 568.479L481.811 567.692L499.039 557.17L513.289 560.97L517.515 573.44C517.84 574.919 517.803 576.454 517.406 577.915C517.01 579.375 516.265 580.719 515.237 581.829C514.209 582.94 512.927 583.786 511.502 584.294C510.076 584.802 508.548 584.958 507.049 584.748Z" fill="#2F2E41"/>
<path d="M452.734 273.673C447.184 261.474 437.601 256.748 421.604 263.907L423.761 248C424.571 242.028 427.11 236.422 431.064 231.874C435.019 227.325 440.217 224.033 446.02 222.401L452.734 273.673Z" fill="#F9A826"/>
<path d="M444.672 170.809C444.672 170.809 440.831 140.917 472.17 150.719C472.17 150.719 494.553 146.612 501.893 174.61L509.326 203.958L505.704 201.986L504.015 205.678L498.145 207.164L495.634 202.179L494.419 208.233L446.343 213.026C446.343 213.026 467.875 200.292 468.216 177.47L464.115 181.804L444.672 170.809Z" fill="#2F2E41"/>
<path d="M497.944 163.101C504.62 163.101 510.032 157.689 510.032 151.012C510.032 144.336 504.62 138.924 497.944 138.924C491.267 138.924 485.855 144.336 485.855 151.012C485.855 157.689 491.267 163.101 497.944 163.101Z" fill="#2F2E41"/>
<path d="M485.488 148.053C485.686 144.985 487.046 142.109 489.291 140.01C491.536 137.911 494.497 136.747 497.57 136.754C497.321 136.722 497.073 136.684 496.819 136.667C495.235 136.566 493.646 136.777 492.143 137.289C490.641 137.801 489.254 138.604 488.061 139.652C486.869 140.701 485.895 141.973 485.195 143.398C484.494 144.823 484.081 146.371 483.98 147.956C483.878 149.54 484.089 151.129 484.601 152.631C485.113 154.134 485.916 155.521 486.964 156.713C488.013 157.905 489.285 158.879 490.71 159.58C492.135 160.28 493.683 160.693 495.268 160.795C495.522 160.811 495.773 160.805 496.024 160.805C492.975 160.419 490.188 158.885 488.23 156.516C486.273 154.146 485.292 151.12 485.488 148.053Z" fill="#2F2E41"/>
<path d="M320.017 261.22V285.229C320.017 285.309 320.002 285.387 319.971 285.46C319.941 285.534 319.897 285.6 319.84 285.657C319.784 285.713 319.718 285.757 319.644 285.788C319.571 285.818 319.493 285.834 319.413 285.834H278.656C278.627 285.834 278.598 285.832 278.569 285.827C278.426 285.806 278.294 285.734 278.199 285.625C278.104 285.515 278.052 285.374 278.052 285.229V261.22C278.052 261.141 278.067 261.062 278.098 260.989C278.128 260.916 278.172 260.849 278.228 260.793C278.284 260.737 278.351 260.692 278.424 260.662C278.498 260.631 278.576 260.616 278.656 260.616H319.413C319.492 260.616 319.571 260.631 319.644 260.662C319.717 260.692 319.784 260.736 319.84 260.793C319.896 260.849 319.941 260.915 319.971 260.989C320.002 261.062 320.017 261.14 320.017 261.22L320.017 261.22Z" fill="#F9A826"/>
<path d="M614.115 261.22V285.229C614.115 285.309 614.099 285.387 614.069 285.46C614.038 285.534 613.994 285.6 613.938 285.657C613.882 285.713 613.815 285.757 613.742 285.788C613.669 285.818 613.59 285.834 613.511 285.834H572.754C572.724 285.834 572.695 285.832 572.667 285.827C572.523 285.806 572.392 285.734 572.297 285.625C572.201 285.515 572.149 285.374 572.149 285.229V261.22C572.149 261.141 572.165 261.062 572.195 260.989C572.225 260.916 572.27 260.849 572.326 260.793C572.382 260.737 572.449 260.692 572.522 260.662C572.595 260.631 572.674 260.616 572.753 260.616H613.51C613.59 260.616 613.668 260.631 613.742 260.662C613.815 260.692 613.882 260.736 613.938 260.793C613.994 260.849 614.038 260.915 614.069 260.989C614.099 261.062 614.115 261.14 614.115 261.22L614.115 261.22Z" fill="#E6E6E6"/>
</svg>
