<svg width="373" height="156" viewBox="0 0 373 156" fill="none" xmlns="http://www.w3.org/2000/svg">
<path d="M373 0.313477H0V156H373V0.313477Z" fill="#3F3D56"/>
<path d="M150.684 120.322H108.519C105.642 103.687 105.642 86.6823 108.519 70.0479H150.684C145.934 86.4692 145.934 103.9 150.684 120.322Z" fill="#FF6584"/>
<path d="M268.529 120.322H226.363C223.486 103.687 223.486 86.6823 226.363 70.0479H268.529C263.778 86.4692 263.778 103.9 268.529 120.322Z" fill="#FF6584"/>
<path d="M90.8172 86.2656H48.652C45.7746 69.6312 45.7746 52.6262 48.652 35.9917H90.8172C86.067 52.413 86.067 69.8443 90.8172 86.2656Z" fill="#F9A826"/>
<path d="M282.182 86.2656H324.348C327.225 69.6312 327.225 52.6262 324.348 35.9917H282.182C286.933 52.413 286.933 69.8443 282.182 86.2656Z" fill="#F9A826"/>
</svg>
