<svg width="269" height="120" viewBox="0 0 269 120" fill="none" xmlns="http://www.w3.org/2000/svg">
<path d="M129.672 19.008V72H120.816V66.168C119.712 68.184 118.128 69.768 116.064 70.92C114 72.024 111.648 72.576 109.008 72.576C105.888 72.576 103.104 71.784 100.656 70.2C98.208 68.616 96.288 66.384 94.896 63.504C93.552 60.576 92.88 57.24 92.88 53.496C92.88 49.752 93.552 46.464 94.896 43.632C96.24 40.8 98.136 38.616 100.584 37.08C103.032 35.496 105.84 34.704 109.008 34.704C111.6 34.704 113.904 35.256 115.92 36.36C117.984 37.416 119.568 38.928 120.672 40.896V19.008H129.672ZM111.384 65.52C114.36 65.52 116.664 64.488 118.296 62.424C119.976 60.36 120.816 57.432 120.816 53.64C120.816 49.848 120 46.92 118.368 44.856C116.736 42.792 114.432 41.76 111.456 41.76C108.432 41.76 106.08 42.792 104.4 44.856C102.768 46.872 101.952 49.752 101.952 53.496C101.952 57.288 102.768 60.24 104.4 62.352C106.08 64.464 108.408 65.52 111.384 65.52ZM160.21 34.704C163.378 34.704 166.162 35.496 168.562 37.08C171.01 38.616 172.906 40.8 174.25 43.632C175.594 46.464 176.266 49.752 176.266 53.496C176.266 57.24 175.57 60.576 174.178 63.504C172.834 66.384 170.938 68.616 168.49 70.2C166.09 71.784 163.33 72.576 160.21 72.576C157.522 72.576 155.122 72 153.01 70.848C150.946 69.696 149.386 68.088 148.33 66.024V72H139.474V19.008H148.402V41.112C149.506 39.096 151.09 37.536 153.154 36.432C155.218 35.28 157.57 34.704 160.21 34.704ZM157.834 65.52C160.81 65.52 163.114 64.464 164.746 62.352C166.378 60.24 167.194 57.288 167.194 53.496C167.194 49.752 166.378 46.872 164.746 44.856C163.114 42.792 160.786 41.76 157.762 41.76C154.738 41.76 152.41 42.792 150.778 44.856C149.146 46.92 148.33 49.848 148.33 53.64C148.33 57.48 149.146 60.432 150.778 62.496C152.41 64.512 154.762 65.52 157.834 65.52Z" fill="#193D5D"/>
<path d="M4.224 108V73.824H15.696C19.344 73.824 22.448 74.496 25.008 75.84C27.568 77.152 29.52 79.088 30.864 81.648C32.208 84.176 32.88 87.248 32.88 90.864C32.88 94.512 32.192 97.616 30.816 100.176C29.472 102.704 27.52 104.64 24.96 105.984C22.4 107.328 19.312 108 15.696 108H4.224ZM8.16 104.64H15.456C19.872 104.64 23.184 103.488 25.392 101.184C27.632 98.88 28.752 95.44 28.752 90.864C28.752 81.744 24.32 77.184 15.456 77.184H8.16V104.64ZM39.5565 108V90.624C39.5565 89.504 39.5245 88.384 39.4605 87.264C39.4285 86.112 39.3325 84.976 39.1725 83.856H42.8685L43.3965 89.808L42.8685 89.664C43.3165 87.552 44.2765 85.968 45.7485 84.912C47.2525 83.824 48.9325 83.28 50.7885 83.28C51.2045 83.28 51.5885 83.312 51.9405 83.376C52.3245 83.408 52.6765 83.472 52.9965 83.568L52.9005 87.12C52.1645 86.864 51.3165 86.736 50.3565 86.736C48.6925 86.736 47.3485 87.104 46.3245 87.84C45.3325 88.576 44.5965 89.52 44.1165 90.672C43.6685 91.792 43.4445 92.976 43.4445 94.224V108H39.5565ZM76.2544 105.12C75.1984 106.112 73.8384 106.896 72.1744 107.472C70.5424 108.048 68.8624 108.336 67.1344 108.336C64.6384 108.336 62.4784 107.84 60.6544 106.848C58.8624 105.856 57.4704 104.432 56.4784 102.576C55.5184 100.688 55.0384 98.448 55.0384 95.856C55.0384 93.36 55.5184 91.168 56.4784 89.28C57.4384 87.392 58.7664 85.92 60.4624 84.864C62.1904 83.808 64.1744 83.28 66.4144 83.28C68.5584 83.28 70.3984 83.76 71.9344 84.72C73.4704 85.648 74.6384 86.992 75.4384 88.752C76.2704 90.512 76.6864 92.624 76.6864 95.088V95.808H58.4464V93.264H74.4784L73.2304 95.04C73.2944 92.224 72.7344 90.064 71.5504 88.56C70.3984 87.056 68.7024 86.304 66.4624 86.304C64.1264 86.304 62.2864 87.136 60.9424 88.8C59.6304 90.432 58.9744 92.704 58.9744 95.616C58.9744 98.752 59.6624 101.12 61.0384 102.72C62.4464 104.32 64.4944 105.12 67.1824 105.12C68.5904 105.12 69.9344 104.896 71.2144 104.448C72.5264 103.968 73.7744 103.248 74.9584 102.288L76.2544 105.12ZM91.8518 108.336C89.7078 108.336 87.8198 107.84 86.1878 106.848C84.5878 105.824 83.3398 104.384 82.4438 102.528C81.5798 100.64 81.1478 98.432 81.1478 95.904C81.1478 93.376 81.5958 91.168 82.4918 89.28C83.3878 87.392 84.6358 85.92 86.2358 84.864C87.8678 83.808 89.7398 83.28 91.8518 83.28C94.0598 83.28 95.9318 83.824 97.4678 84.912C99.0038 86 100.044 87.552 100.588 89.568L100.012 89.952V83.856H103.852V108H100.012V101.76L100.588 102.048C100.044 104.064 99.0038 105.616 97.4678 106.704C95.9318 107.792 94.0598 108.336 91.8518 108.336ZM92.6198 105.12C94.9878 105.12 96.8118 104.32 98.0918 102.72C99.3718 101.088 100.012 98.784 100.012 95.808C100.012 92.832 99.3558 90.544 98.0438 88.944C96.7638 87.344 94.9558 86.544 92.6198 86.544C90.2518 86.544 88.3958 87.376 87.0518 89.04C85.7398 90.672 85.0838 92.96 85.0838 95.904C85.0838 98.848 85.7398 101.12 87.0518 102.72C88.3958 104.32 90.2518 105.12 92.6198 105.12ZM111.369 108V90.624C111.369 89.504 111.337 88.384 111.273 87.264C111.241 86.112 111.145 84.976 110.985 83.856H114.681L115.113 88.848L114.633 89.184C115.209 87.296 116.201 85.84 117.609 84.816C119.049 83.792 120.745 83.28 122.697 83.28C125.033 83.28 126.841 83.856 128.121 85.008C129.433 86.16 130.265 87.92 130.617 90.288L129.465 89.664C129.977 87.712 131.001 86.16 132.537 85.008C134.105 83.856 135.977 83.28 138.153 83.28C140.809 83.28 142.809 84.08 144.153 85.68C145.497 87.248 146.169 89.632 146.169 92.832V108H142.281V93.024C142.281 90.784 141.881 89.152 141.081 88.128C140.281 87.072 139.017 86.544 137.289 86.544C135.273 86.544 133.673 87.232 132.489 88.608C131.337 89.984 130.761 91.856 130.761 94.224V108H126.873V93.024C126.873 90.784 126.457 89.152 125.625 88.128C124.825 87.072 123.561 86.544 121.833 86.544C119.785 86.544 118.169 87.232 116.985 88.608C115.833 89.984 115.257 91.856 115.257 94.224V108H111.369ZM154.037 108V73.824H167.765C171.221 73.824 173.925 74.608 175.877 76.176C177.829 77.712 178.805 79.904 178.805 82.752C178.805 84.736 178.261 86.416 177.173 87.792C176.117 89.136 174.645 90.096 172.757 90.672V90.288C174.901 90.704 176.581 91.648 177.797 93.12C179.013 94.592 179.621 96.448 179.621 98.688C179.621 101.696 178.629 104 176.645 105.6C174.661 107.2 171.861 108 168.245 108H154.037ZM157.925 104.736H167.909C170.597 104.736 172.565 104.24 173.812 103.248C175.093 102.256 175.733 100.704 175.733 98.592C175.733 96.512 175.093 94.944 173.812 93.888C172.533 92.832 170.565 92.304 167.909 92.304H157.925V104.736ZM157.925 88.992H167.141C169.733 88.992 171.669 88.48 172.949 87.456C174.261 86.432 174.917 84.928 174.917 82.944C174.917 80.992 174.277 79.536 172.997 78.576C171.717 77.584 169.765 77.088 167.141 77.088H157.925V88.992ZM195.492 108.336C193.348 108.336 191.46 107.84 189.828 106.848C188.228 105.824 186.98 104.384 186.084 102.528C185.22 100.64 184.788 98.432 184.788 95.904C184.788 93.376 185.236 91.168 186.132 89.28C187.028 87.392 188.276 85.92 189.876 84.864C191.508 83.808 193.38 83.28 195.492 83.28C197.7 83.28 199.572 83.824 201.108 84.912C202.644 86 203.684 87.552 204.228 89.568L203.652 89.952V83.856H207.492V108H203.652V101.76L204.228 102.048C203.684 104.064 202.644 105.616 201.108 106.704C199.572 107.792 197.7 108.336 195.492 108.336ZM196.26 105.12C198.628 105.12 200.452 104.32 201.732 102.72C203.012 101.088 203.652 98.784 203.652 95.808C203.652 92.832 202.996 90.544 201.684 88.944C200.404 87.344 198.596 86.544 196.26 86.544C193.892 86.544 192.036 87.376 190.692 89.04C189.38 90.672 188.724 92.96 188.724 95.904C188.724 98.848 189.38 101.12 190.692 102.72C192.036 104.32 193.892 105.12 196.26 105.12ZM215.01 108V90.624C215.01 89.504 214.978 88.384 214.914 87.264C214.882 86.112 214.786 84.976 214.626 83.856H218.322L218.754 88.848L218.274 89.232C218.946 87.28 220.066 85.808 221.634 84.816C223.202 83.792 225.01 83.28 227.058 83.28C232.85 83.28 235.746 86.464 235.746 92.832V108H231.858V93.024C231.858 90.784 231.41 89.152 230.514 88.128C229.618 87.072 228.21 86.544 226.29 86.544C224.05 86.544 222.258 87.232 220.914 88.608C219.57 89.984 218.898 91.84 218.898 94.176V108H215.01ZM264.352 108H260.512V101.52L261.088 102.048C260.544 104.064 259.504 105.616 257.968 106.704C256.432 107.792 254.56 108.336 252.352 108.336C250.24 108.336 248.368 107.824 246.736 106.8C245.136 105.744 243.888 104.272 242.992 102.384C242.096 100.464 241.648 98.24 241.648 95.712C241.648 93.184 242.08 90.992 242.944 89.136C243.84 87.28 245.088 85.84 246.688 84.816C248.32 83.792 250.208 83.28 252.352 83.28C254.56 83.28 256.432 83.84 257.968 84.96C259.504 86.048 260.544 87.584 261.088 89.568L260.464 90.048V72.672H264.352V108ZM253.12 105.12C255.456 105.12 257.264 104.32 258.544 102.72C259.856 101.088 260.512 98.784 260.512 95.808C260.512 92.864 259.872 90.592 258.592 88.992C257.312 87.36 255.488 86.544 253.12 86.544C250.752 86.544 248.896 87.344 247.552 88.944C246.24 90.544 245.584 92.8 245.584 95.712C245.584 98.688 246.24 101.008 247.552 102.672C248.896 104.304 250.752 105.12 253.12 105.12Z" fill="white"/>
</svg>
