<svg width="433" height="314" viewBox="0 0 433 314" fill="none" xmlns="http://www.w3.org/2000/svg">
<path d="M109.448 142.626L117.115 144.663C117.891 144.869 118.702 144.903 119.493 144.763C120.283 144.624 121.034 144.313 121.692 143.854C122.35 143.394 122.9 142.796 123.303 142.103C123.707 141.409 123.954 140.635 124.028 139.836C124.107 138.976 123.983 138.109 123.666 137.305C123.35 136.501 122.849 135.783 122.204 135.208C121.559 134.634 120.788 134.218 119.953 133.996C119.119 133.773 118.243 133.75 117.398 133.928L109.234 135.642L83.0333 134.804L75.2044 121.222L66.5263 129.7L78.0098 144.448L109.448 142.626Z" fill="#A0616A"/>
<path d="M64.8689 130.802L83.187 124.317L76.758 112.099C76.0672 110.786 75.1032 109.637 73.9309 108.728C72.7586 107.819 71.4052 107.172 69.9618 106.83C68.5184 106.488 67.0185 106.459 65.5631 106.746C64.1076 107.032 62.7305 107.627 61.5243 108.49C60.4067 109.29 59.459 110.304 58.7362 111.473C58.0133 112.642 57.5297 113.943 57.3134 115.3C57.0971 116.657 57.1523 118.044 57.4759 119.38C57.7996 120.716 58.3851 121.974 59.1987 123.081L64.8689 130.802Z" fill="#575A88"/>
<path d="M84.474 148.661L89.5387 172.487L117.005 279.755L96.2198 286.065L72.0938 200.696L46.1119 286.436L22.7283 279.755L45.7407 220.739L48.3389 190.675C48.3389 190.675 39.8332 166.079 56.7058 148.312L84.474 148.661Z" fill="#2F2E41"/>
<path d="M23.0851 310.925L31.2462 311.597L32.1942 301.836C34.0499 308.961 37.5469 312.656 42.5697 313.164C43.7815 313.269 44.9979 313.024 46.0747 312.458C47.1515 311.893 48.0436 311.03 48.6454 309.973C48.7505 309.793 48.8464 309.609 48.933 309.421C49.3037 308.541 49.3467 307.557 49.0543 306.647C48.762 305.738 48.1535 304.964 47.3392 304.464C41.8944 300.852 42.5286 289.74 43.6205 278.063L33.4313 277.825L32.0445 286.256C24.7543 293.185 22.8944 301.256 23.0851 310.925Z" fill="#2F2E41"/>
<path d="M94.8073 312.283L102.99 311.976L102.767 302.172C105.459 309.024 109.372 312.276 114.42 312.181C115.636 312.14 116.814 311.752 117.816 311.062C118.817 310.372 119.6 309.409 120.071 308.288C120.154 308.096 120.228 307.902 120.291 307.705C120.554 306.787 120.479 305.805 120.081 304.937C119.682 304.069 118.985 303.373 118.117 302.974C112.28 300.038 111.584 288.929 111.274 277.205L101.13 278.184L100.759 286.721C94.3477 294.471 93.4642 302.706 94.8073 312.283Z" fill="#2F2E41"/>
<path d="M54.9852 95.4086C62.2561 95.4086 68.1503 89.5143 68.1503 82.2434C68.1503 74.9725 62.2561 69.0782 54.9852 69.0782C47.7142 69.0782 41.82 74.9725 41.82 82.2434C41.82 89.5143 47.7142 95.4086 54.9852 95.4086Z" fill="#A0616A"/>
<path d="M49.8237 133.886L69.1244 113.843L59.8452 100.11L59.4741 86.7474H43.885L45.3329 98.2403C35.5531 109.356 41.0964 121.513 49.8237 133.886Z" fill="#A0616A"/>
<path d="M55.2056 149.661L86.755 153.001C83.5766 130.199 76.7387 112.072 65.7839 108.275L40.1733 114.214L55.2056 149.661Z" fill="#575A88"/>
<path d="M56.7477 164.17L60.3619 171.231C60.7276 171.946 61.2448 172.572 61.8774 173.066C62.5099 173.56 63.2427 173.911 64.0245 174.092C64.8063 174.274 65.6183 174.283 66.404 174.119C67.1897 173.955 67.9301 173.621 68.5736 173.141C69.2662 172.625 69.8278 171.953 70.2134 171.18C70.5989 170.407 70.7977 169.554 70.7935 168.691C70.7894 167.827 70.5825 166.976 70.1896 166.207C69.7966 165.437 69.2285 164.771 68.5311 164.261L61.7962 159.339L44.8943 139.301L49.7539 124.397L37.6471 123.617L34.3647 142.018L56.7477 164.17Z" fill="#A0616A"/>
<path d="M35.7192 123.122L52.793 132.401L57.5751 119.45C58.0889 118.058 58.2986 116.573 58.1901 115.094C58.0816 113.614 57.6574 112.175 56.9461 110.874C56.2348 109.572 55.2529 108.438 54.0665 107.547C52.88 106.657 51.5166 106.031 50.068 105.712C48.7259 105.416 47.3383 105.39 45.9859 105.634C44.6334 105.879 43.343 106.39 42.1893 107.137C41.0357 107.884 40.0418 108.852 39.2654 109.986C38.4889 111.12 37.9452 112.397 37.6659 113.743L35.7192 123.122Z" fill="#575A88"/>
<path d="M51.6013 83.8924C53.5478 84.4889 55.4426 82.7885 56.4753 81.034C57.508 79.2795 58.2899 77.1987 60.0595 76.192C62.3524 74.8876 65.5718 75.8555 67.6077 74.178C69.5377 72.5877 69.1943 69.3107 67.4784 67.4915C65.7625 65.6723 63.1581 65.0122 60.6743 64.7212C55.0745 64.0653 49.1469 64.9432 44.4441 68.0531C39.7413 71.1631 36.4941 76.7183 36.9868 82.3348C37.1986 84.7492 38.057 87.0536 38.5859 89.4189C39.1148 91.7842 39.2882 94.3694 38.1985 96.5343C36.7615 99.3892 33.4006 100.85 30.2061 100.953C27.0116 101.056 23.9003 100.047 20.8415 99.1197C17.7828 98.1925 14.6009 97.3271 11.4295 97.7243C9.11899 98.0708 6.94268 99.0271 5.12479 100.495C3.3069 101.962 1.91317 103.888 1.08722 106.073C0.30867 108.275 0.0576093 110.629 0.354223 112.945C0.650836 115.262 1.48686 117.477 2.79506 119.411C5.50576 123.443 10.0089 126.047 14.7376 127.162C19.4662 128.277 24.4233 128.018 29.2163 127.225C35.5435 126.175 41.6851 124.214 47.4498 121.403C50.9559 119.692 54.5004 117.47 56.17 113.944C57.8229 110.454 57.3012 106.241 55.6718 102.74C54.0423 99.2382 51.4191 96.3099 48.7941 93.4771C47.4616 92.0391 46.0877 90.5628 45.3778 88.7354C44.6678 86.9079 44.7753 84.6177 46.1665 83.2364C47.5577 81.8551 50.3464 82.0348 51.1286 83.8325" fill="#2F2E41"/>
<path d="M232.109 283.729C232.109 283.729 173.22 254.284 181.633 171.559C190.046 88.834 187.242 97.2467 187.242 97.2467C187.242 97.2467 201.263 50.9768 226.501 34.1513C226.501 34.1513 166.21 -27.542 118.538 84.6277C118.538 84.6277 105.919 151.929 115.733 196.797C125.548 241.665 147.982 278.12 147.982 278.12C147.982 278.12 169.014 299.152 192.85 299.152C216.686 299.152 232.109 283.729 232.109 283.729Z" fill="#CCCCCC"/>
<path d="M329.557 233.953C329.557 233.953 295.906 323.689 190.747 306.864C85.5878 290.038 113.63 107.763 113.63 107.763C113.63 107.763 101.879 243.735 163.362 283.723C180.398 294.803 202.649 294.902 218.922 282.73C229.705 274.664 238.945 260.594 237.718 236.057L329.557 233.953Z" fill="#E6E6E6"/>
<path d="M326.278 63.226C326.278 63.226 278.379 -23.3357 174.622 6.10887C110.306 33.5116 111.504 104.069 111.504 104.069C103.749 221.056 187.218 219.167 206.871 94.4425C210.322 72.5432 203.366 60.0905 203.366 60.0905C203.366 60.0905 193.551 89.535 163.405 95.8446C133.213 102.164 128.051 92.1119 129.054 76.916C129.064 76.764 129.074 76.6131 129.084 76.4631C129.911 64.1543 134.687 52.4407 142.702 43.0627C159.985 22.939 197.658 -6.44767 237.718 55.1831L240.522 62.1177C240.522 62.1177 290.049 75.4752 326.278 63.226Z" fill="#E6E6E6"/>
<path d="M248.921 60.7915C241.676 60.7997 234.73 63.6814 229.607 68.8046C224.483 73.9278 221.602 80.8739 221.593 88.1192V216.72C221.602 224.263 224.602 231.494 229.936 236.828C235.269 242.162 242.501 245.162 250.044 245.17H317.704C326.795 245.16 335.509 241.544 341.937 235.117C348.365 228.689 351.98 219.974 351.991 210.884V95.3448C351.98 86.1838 348.337 77.4011 341.859 70.9233C335.381 64.4455 326.598 60.8018 317.437 60.7915L248.921 60.7915Z" fill="#3F3D56"/>
<path d="M260.654 66.4C256.804 66.4044 253.112 67.9359 250.389 70.6587C247.667 73.3815 246.135 77.0732 246.131 80.9238V225.739C246.135 229.59 247.666 233.282 250.389 236.004C253.112 238.727 256.804 240.259 260.654 240.263H324.997C332.711 240.254 340.107 237.186 345.562 231.731C351.017 226.276 354.085 218.88 354.094 211.166V92.0353C354.086 85.2388 351.383 78.7228 346.577 73.917C341.771 69.1111 335.255 66.4078 328.459 66.4H260.654Z" fill="#F9A826"/>
<path opacity="0.2" d="M258.282 67.2051C256.471 68.5526 255 70.3045 253.986 72.3211C252.971 74.3377 252.442 76.5633 252.44 78.8206V223.636C252.444 227.487 253.976 231.178 256.699 233.901C259.422 236.624 263.113 238.156 266.964 238.16H331.307C333.747 238.15 336.177 237.832 338.538 237.213C334.195 239.673 329.288 240.965 324.296 240.964H259.953C256.103 240.96 252.411 239.428 249.688 236.705C246.965 233.983 245.434 230.291 245.43 226.44V81.6248C245.435 78.0645 246.746 74.6299 249.115 71.9722C251.484 69.3144 254.746 67.6182 258.282 67.2051Z" fill="black"/>
<path d="M226.501 136.506C234.245 136.506 240.522 128.659 240.522 118.98C240.522 109.3 234.245 101.453 226.501 101.453C218.757 101.453 212.48 109.3 212.48 118.98C212.48 128.659 218.757 136.506 226.501 136.506Z" fill="#F9A826"/>
<path opacity="0.2" d="M236.316 118.98C236.316 110.501 231.499 103.429 225.099 101.805C226.015 101.572 226.957 101.453 227.903 101.453C235.647 101.453 241.924 109.3 241.924 118.98C241.924 128.659 235.647 136.506 227.903 136.506C226.957 136.506 226.015 136.388 225.099 136.154C231.499 134.53 236.316 127.459 236.316 118.98Z" fill="black"/>
<path d="M223.697 163.847V200.303C223.697 201.604 224.214 202.852 225.134 203.773C226.054 204.693 227.303 205.21 228.604 205.21C229.906 205.21 231.154 204.693 232.074 203.773C232.994 202.852 233.512 201.604 233.512 200.303V163.847C233.512 162.546 232.994 161.298 232.074 160.377C231.154 159.457 229.906 158.94 228.604 158.94C227.303 158.94 226.054 159.457 225.134 160.377C224.214 161.298 223.697 162.546 223.697 163.847Z" fill="#F9A826"/>
<path opacity="0.2" d="M231.408 200.303V163.847C231.404 162.794 231.061 161.771 230.43 160.928C229.799 160.085 228.913 159.468 227.903 159.169C228.357 159.024 228.829 158.947 229.305 158.94C230.606 158.942 231.853 159.459 232.773 160.379C233.693 161.299 234.211 162.546 234.213 163.847V200.303C234.211 201.604 233.693 202.851 232.773 203.771C231.853 204.691 230.606 205.208 229.305 205.21C228.829 205.203 228.357 205.126 227.903 204.981C228.913 204.682 229.799 204.065 230.43 203.222C231.061 202.379 231.404 201.356 231.408 200.303Z" fill="black"/>
<path d="M153.591 238.861C157.462 238.861 160.601 235.722 160.601 231.85C160.601 227.978 157.462 224.84 153.591 224.84C149.719 224.84 146.58 227.978 146.58 231.85C146.58 235.722 149.719 238.861 153.591 238.861Z" fill="white"/>
<path opacity="0.3" d="M157.797 231.85C157.797 230.234 157.238 228.668 156.217 227.417C155.195 226.165 153.772 225.304 152.189 224.981C153.207 224.773 154.259 224.795 155.268 225.044C156.277 225.293 157.218 225.763 158.024 226.42C158.829 227.078 159.477 227.906 159.923 228.845C160.368 229.784 160.6 230.811 160.6 231.85C160.6 232.89 160.368 233.916 159.923 234.855C159.477 235.794 158.829 236.623 158.024 237.28C157.218 237.938 156.277 238.408 155.268 238.657C154.259 238.906 153.207 238.927 152.189 238.72C153.772 238.396 155.195 237.536 156.217 236.284C157.239 235.032 157.797 233.466 157.797 231.85Z" fill="black"/>
<path d="M150.429 211.04C154.301 211.04 157.44 207.901 157.44 204.029C157.44 200.158 154.301 197.019 150.429 197.019C146.557 197.019 143.419 200.158 143.419 204.029C143.419 207.901 146.557 211.04 150.429 211.04Z" fill="white"/>
<path opacity="0.3" d="M154.636 204.029C154.635 202.414 154.077 200.847 153.055 199.596C152.033 198.344 150.61 197.484 149.027 197.16C150.046 196.952 151.097 196.974 152.107 197.223C153.116 197.472 154.057 197.942 154.862 198.6C155.667 199.257 156.316 200.085 156.761 201.024C157.207 201.964 157.438 202.99 157.438 204.029C157.438 205.069 157.207 206.095 156.761 207.034C156.316 207.973 155.667 208.802 154.862 209.459C154.057 210.117 153.116 210.587 152.107 210.836C151.097 211.085 150.046 211.106 149.027 210.899C150.61 210.575 152.033 209.715 153.055 208.463C154.077 207.212 154.635 205.645 154.636 204.029Z" fill="black"/>
<path d="M157.797 83.2256C161.669 83.2256 164.808 80.0868 164.808 76.2149C164.808 72.3431 161.669 69.2043 157.797 69.2043C153.925 69.2043 150.786 72.3431 150.786 76.2149C150.786 80.0868 153.925 83.2256 157.797 83.2256Z" fill="white"/>
<path opacity="0.3" d="M162.003 76.215C162.003 74.5991 161.445 73.0328 160.423 71.7811C159.401 70.5294 157.978 69.6691 156.395 69.3456C157.413 69.138 158.465 69.1594 159.474 69.4084C160.484 69.6574 161.425 70.1276 162.23 70.7851C163.035 71.4426 163.684 72.2709 164.129 73.21C164.575 74.1491 164.806 75.1755 164.806 76.215C164.806 77.2544 164.575 78.2808 164.129 79.2199C163.684 80.159 163.035 80.9873 162.23 81.6448C161.425 82.3023 160.484 82.7726 159.474 83.0215C158.465 83.2705 157.413 83.2919 156.395 83.0843C157.978 82.7608 159.401 81.9005 160.423 80.6488C161.445 79.3971 162.003 77.8308 162.003 76.215Z" fill="black"/>
<path opacity="0.2" d="M302.838 174.884C310.582 174.884 316.86 167.037 316.86 157.358C316.86 147.678 310.582 139.831 302.838 139.831C295.095 139.831 288.817 147.678 288.817 157.358C288.817 167.037 295.095 174.884 302.838 174.884Z" fill="white"/>
<path opacity="0.2" d="M302.838 190.107C317.308 190.107 329.037 175.445 329.037 157.358C329.037 139.271 317.308 124.609 302.838 124.609C288.369 124.609 276.639 139.271 276.639 157.358C276.639 175.445 288.369 190.107 302.838 190.107Z" fill="white"/>
<path opacity="0.2" d="M302.838 206.697C324.638 206.697 342.31 184.607 342.31 157.358C342.31 130.108 324.638 108.018 302.838 108.018C281.039 108.018 263.367 130.108 263.367 157.358C263.367 184.607 281.039 206.697 302.838 206.697Z" fill="white"/>
<path d="M430.264 193.721L431.209 200.182C431.338 201.06 431.26 201.955 430.982 202.797C430.705 203.64 430.235 204.406 429.61 205.035C428.985 205.665 428.221 206.14 427.381 206.423C426.54 206.706 425.645 206.79 424.767 206.667C423.914 206.548 423.099 206.238 422.383 205.76C421.668 205.282 421.069 204.648 420.632 203.906C420.196 203.164 419.933 202.333 419.863 201.474C419.792 200.616 419.917 199.753 420.228 198.95L423.435 190.648L421.728 134.653L431.63 130.897L430.264 193.721Z" fill="#FFB8B8"/>
<path d="M402.266 100.851C409.809 100.851 415.923 94.7359 415.923 87.1931C415.923 79.6503 409.809 73.5356 402.266 73.5356C394.723 73.5356 388.609 79.6503 388.609 87.1931C388.609 94.7359 394.723 100.851 402.266 100.851Z" fill="#FFB8B8"/>
<path d="M418.655 112.801L393.389 111.777C396.194 105.633 397.306 99.6911 396.12 94.0219H412.851C411.971 99.3683 414.399 105.788 418.655 112.801Z" fill="#FFB8B8"/>
<path d="M414.558 166.065L377.341 168.796L378.694 147.766C374.405 137.564 375.09 130.198 380.138 125.318L380.595 118.212C380.741 115.938 381.597 113.767 383.041 112.004C384.486 110.241 386.446 108.976 388.647 108.385L395.096 106.655C403.446 111.546 410.102 111.48 414.899 105.972L422.574 109.903C424.433 110.856 425.959 112.351 426.948 114.191C427.938 116.031 428.344 118.128 428.113 120.204L414.558 166.065Z" fill="#575A88"/>
<path d="M357.538 168.114L347.033 173.629C346.134 174.101 345.103 174.257 344.104 174.072C343.106 173.888 342.199 173.373 341.528 172.611C341.004 172.015 340.646 171.292 340.489 170.514C340.332 169.737 340.382 168.931 340.635 168.179C340.887 167.427 341.333 166.754 341.927 166.228C342.521 165.702 343.243 165.342 344.02 165.183L351.392 163.675L374.268 154.798L378.024 128.166L388.609 130.897L386.56 162.309L357.538 168.114Z" fill="#FFB8B8"/>
<path d="M432.312 132.604L420.704 139.433L420.021 112.118L422.022 111.435C423.374 111.435 424.712 111.701 425.96 112.218C427.209 112.735 428.343 113.493 429.298 114.449C430.254 115.404 431.012 116.539 431.529 117.787C432.046 119.036 432.312 120.374 432.312 121.725V132.604Z" fill="#575A88"/>
<path d="M424.289 300.079L414.417 298.534C412.424 264.808 408.409 233.321 401.242 205.33C384.666 227.294 370.771 259.666 358.904 299.908L347.295 296.835L377.683 164.358L413.875 163.675C428.676 183.941 424.343 246.532 424.289 300.079Z" fill="#2F2E41"/>
<path d="M353.777 311.735L336.625 309.331C336.15 309.264 335.694 309.097 335.288 308.84C334.882 308.584 334.535 308.244 334.271 307.843C334.007 307.442 333.831 306.989 333.755 306.515C333.68 306.04 333.706 305.555 333.832 305.092C334.006 304.456 334.361 303.885 334.855 303.448C335.349 303.012 335.959 302.729 336.611 302.635L339.659 302.194L349.296 296.309L357.268 298.435L359.632 305.41C359.814 306.237 359.793 307.096 359.571 307.913C359.349 308.73 358.933 309.482 358.357 310.103C357.782 310.724 357.065 311.197 356.268 311.482C355.47 311.766 354.616 311.853 353.777 311.735Z" fill="#2F2E41"/>
<path d="M421.04 311.735L403.888 309.331C403.413 309.264 402.957 309.097 402.551 308.84C402.145 308.584 401.798 308.244 401.534 307.843C401.27 307.442 401.094 306.989 401.018 306.515C400.943 306.04 400.969 305.555 401.095 305.092C401.269 304.456 401.624 303.885 402.118 303.448C402.611 303.012 403.222 302.729 403.874 302.635L406.922 302.194L416.559 296.309L424.531 298.435L426.895 305.41C427.076 306.237 427.056 307.096 426.834 307.913C426.612 308.73 426.196 309.482 425.62 310.103C425.045 310.724 424.328 311.197 423.531 311.482C422.733 311.766 421.879 311.853 421.04 311.735Z" fill="#2F2E41"/>
<path d="M390.657 137.726C387.552 130.902 382.192 128.258 373.244 132.263L374.45 123.365C374.903 120.024 376.323 116.888 378.536 114.344C380.748 111.8 383.656 109.958 386.901 109.045L390.657 137.726Z" fill="#575A88"/>
<path d="M386.148 80.1855C386.148 80.1855 383.999 63.4645 401.53 68.9477C401.53 68.9477 414.05 66.6504 418.156 82.3117L422.314 98.7285L420.288 97.6257L419.343 99.6905L416.06 100.522L414.654 97.7333L413.975 101.12L387.082 103.801C387.082 103.801 399.127 96.6777 399.318 83.9113L397.024 86.3358L386.148 80.1855Z" fill="#2F2E41"/>
<path d="M415.947 75.8737C419.681 75.8737 422.709 72.8462 422.709 69.1115C422.709 65.3769 419.681 62.3494 415.947 62.3494C412.212 62.3494 409.185 65.3769 409.185 69.1115C409.185 72.8462 412.212 75.8737 415.947 75.8737Z" fill="#2F2E41"/>
<path d="M408.979 67.456C409.09 65.7404 409.851 64.1316 411.107 62.9573C412.363 61.7831 414.019 61.1317 415.738 61.1358C415.598 61.1181 415.46 61.0966 415.318 61.0874C413.528 60.9724 411.766 61.573 410.419 62.7571C409.072 63.9413 408.251 65.6121 408.135 67.4018C408.02 69.1915 408.621 70.9537 409.805 72.3006C410.989 73.6475 412.66 74.4688 414.45 74.5839C414.592 74.593 414.732 74.5894 414.873 74.5897C413.167 74.3737 411.608 73.5155 410.513 72.1902C409.418 70.8648 408.869 69.1718 408.979 67.456Z" fill="#2F2E41"/>
</svg>
