<svg width="540" height="194" viewBox="0 0 540 194" fill="none" xmlns="http://www.w3.org/2000/svg">
<path d="M540 192.465H0" stroke="#3F3D56" stroke-width="2" stroke-miterlimit="10"/>
<g opacity="0.8">
<path d="M91 1.46533H21V8.01077H91V1.46533Z" fill="#3F3D56" fill-opacity="0.8"/>
<path d="M91 16.1926H21V22.7381H91V16.1926Z" fill="#3F3D56" fill-opacity="0.8"/>
<path d="M91 30.9199H21V37.4654H91V30.9199Z" fill="#3F3D56" fill-opacity="0.8"/>
</g>
<path d="M130.533 192.934C113.655 192.895 97.0793 188.448 82.449 180.032C67.8187 171.615 55.6413 159.523 47.1234 144.951L46.618 144.084L129.782 96.1377V0L130.784 0.00292969C156.346 0.0697916 180.837 10.2798 198.877 28.3904C216.916 46.501 227.03 71.0314 226.997 96.5936C226.964 122.156 216.786 146.66 198.699 164.723C180.612 182.787 156.095 192.933 130.533 192.934ZM49.3622 144.811C57.7923 158.966 69.778 170.671 84.1296 178.763C98.4812 186.856 114.7 191.054 131.175 190.941C147.651 190.829 163.81 186.409 178.05 178.122C192.29 169.834 204.114 157.967 212.35 143.697C220.586 129.428 224.947 113.252 225 96.7763C225.053 80.3006 220.796 64.0974 212.652 49.7752C204.507 35.453 192.759 23.5098 178.573 15.1309C164.387 6.75209 148.256 2.22907 131.782 2.01074V97.2939L131.281 97.582L49.3622 144.811Z" fill="#2F2E41"/>
<path d="M130.533 132.764C150.579 132.764 166.83 116.513 166.83 96.4668C166.83 76.4203 150.579 60.1694 130.533 60.1694C110.486 60.1694 94.2356 76.4203 94.2356 96.4668C94.2356 116.513 110.486 132.764 130.533 132.764Z" fill="#F9A826"/>
</svg>
