<svg width="252" height="210" viewBox="0 0 252 210" fill="none" xmlns="http://www.w3.org/2000/svg">
<g clip-path="url(#clip0)">
<path d="M61.342 54.481H25.7835C24.2649 54.481 23.0338 55.7129 23.0338 57.2326V126.556C23.0338 128.075 24.2649 129.307 25.7835 129.307H61.342C62.8606 129.307 64.0916 128.075 64.0916 126.556V57.2326C64.0916 55.7129 62.8606 54.481 61.342 54.481Z" fill="url(#paint0_linear)"/>
<path d="M60.3961 55.7109H26.7294C25.2108 55.7109 23.9797 56.9429 23.9797 58.4625V124.817C23.9797 126.336 25.2108 127.568 26.7294 127.568H60.3961C61.9147 127.568 63.1457 126.336 63.1457 124.817V58.4625C63.1457 56.9429 61.9147 55.7109 60.3961 55.7109Z" fill="white"/>
<path d="M58.8354 60.6563L28.5122 60.6987L28.5938 119.175L58.917 119.133L58.8354 60.6563Z" fill="#E6E6E6"/>
<path d="M43.762 125.845C45.0968 125.844 46.1774 124.732 46.1755 123.363C46.1735 121.994 45.0899 120.885 43.755 120.887C42.4202 120.889 41.3397 122 41.3416 123.37C41.3435 124.739 42.4271 125.847 43.762 125.845Z" fill="#DBDBDB"/>
<path d="M39.0788 58.4497C39.346 58.4493 39.5624 58.2272 39.562 57.9537C39.5616 57.6802 39.3447 57.4587 39.0774 57.4591C38.8101 57.4595 38.5938 57.6815 38.5941 57.9551C38.5945 58.2286 38.8115 58.45 39.0788 58.4497Z" fill="#DBDBDB"/>
<path d="M48.4731 57.5698L41.5275 57.5795C41.3756 57.5797 41.2527 57.7031 41.2529 57.8551L41.2532 58.0477C41.2534 58.1996 41.3767 58.3227 41.5285 58.3224L48.4741 58.3127C48.626 58.3125 48.7489 58.1892 48.7487 58.0372L48.7485 57.8446C48.7482 57.6926 48.625 57.5696 48.4731 57.5698Z" fill="#DBDBDB"/>
<path d="M52.2984 94.5878H35.1295V112.627H52.2984V94.5878Z" fill="url(#paint1_linear)"/>
<path d="M51.5532 95.372H35.8774V111.843H51.5532V95.372Z" fill="#F9A826"/>
<g opacity="0.5">
<path opacity="0.5" d="M44.9018 102.837V102.526H45.7267V100.933C45.9766 100.553 46.1205 100.114 46.1436 99.6598C46.1668 99.2058 46.0683 98.7539 45.8583 98.3508C45.6483 97.9477 45.3345 97.6081 44.9493 97.3671C44.5642 97.1262 44.1217 96.9925 43.6676 96.9801C43.2135 96.9677 42.7644 97.077 42.3666 97.2966C41.9689 97.5162 41.6371 97.8381 41.4054 98.2292C41.1738 98.6202 41.0508 99.066 41.0491 99.5206C41.0475 99.9751 41.1672 100.422 41.396 100.815V102.526H42.3061V102.892C41.1914 103.2 40.2082 103.865 39.5074 104.785C38.8066 105.706 38.4269 106.831 38.4264 107.988V112.627H49.0098V107.988C49.0092 106.791 48.6025 105.629 47.8562 104.693C47.1099 103.758 46.0683 103.103 44.9018 102.837Z" fill="url(#paint2_linear)"/>
</g>
<path d="M45.5425 99.6067H41.6242V102.743H45.5425V99.6067Z" fill="#F55F44"/>
<path d="M42.4711 102.909H44.9458C45.8836 102.909 46.783 103.281 47.4462 103.945C48.1093 104.609 48.4818 105.509 48.4818 106.447V111.89H38.9351V106.442C38.9365 105.504 39.3097 104.605 39.9727 103.943C40.6357 103.281 41.5342 102.909 42.4711 102.909Z" fill="#FDD835"/>
<path d="M43.9202 101.34H43.3125C42.8341 101.34 42.4464 101.728 42.4464 102.207V103.401C42.4464 103.88 42.8341 104.268 43.3125 104.268H43.9202C44.3985 104.268 44.7863 103.88 44.7863 103.401V102.207C44.7863 101.728 44.3985 101.34 43.9202 101.34Z" fill="#FDA57D"/>
<path d="M43.1695 104.18L43.6067 104.818L44.0659 104.18H43.1695Z" fill="#FDA57D"/>
<path opacity="0.1" d="M40.7334 106.486C40.7334 106.486 40.2687 111.114 40.5684 111.414L40.7334 106.486Z" fill="black"/>
<path opacity="0.1" d="M46.4801 106.486C46.4801 106.486 46.9448 111.114 46.6451 111.414L46.4801 106.486Z" fill="black"/>
<path opacity="0.05" d="M43.6177 102.763C44.0334 102.763 44.4382 102.63 44.7726 102.383C44.7288 102.108 44.5885 101.857 44.3769 101.676C44.1652 101.495 43.8961 101.396 43.6177 101.395C43.3393 101.396 43.0702 101.495 42.8586 101.676C42.6469 101.857 42.5066 102.108 42.4629 102.383C42.7973 102.63 43.2021 102.763 43.6177 102.763Z" fill="black"/>
<path d="M43.6177 102.342C44.8918 102.342 45.9247 101.308 45.9247 100.033C45.9247 98.7582 44.8918 97.7246 43.6177 97.7246C42.3436 97.7246 41.3108 98.7582 41.3108 100.033C41.3108 101.308 42.3436 102.342 43.6177 102.342Z" fill="#F55F44"/>
<path d="M43.6177 102.705C44.6944 102.705 45.5672 101.831 45.5672 100.754C45.5672 99.6766 44.6944 98.8032 43.6177 98.8032C42.541 98.8032 41.6682 99.6766 41.6682 100.754C41.6682 101.831 42.541 102.705 43.6177 102.705Z" fill="#FDA57D"/>
<path d="M41.6627 100.875C41.7386 100.875 41.8002 100.764 41.8002 100.627C41.8002 100.491 41.7386 100.38 41.6627 100.38C41.5868 100.38 41.5252 100.491 41.5252 100.627C41.5252 100.764 41.5868 100.875 41.6627 100.875Z" fill="#FDA57D"/>
<path d="M45.5755 100.875C45.6514 100.875 45.713 100.764 45.713 100.627C45.713 100.491 45.6514 100.38 45.5755 100.38C45.4995 100.38 45.438 100.491 45.438 100.627C45.438 100.764 45.4995 100.875 45.5755 100.875Z" fill="#FDA57D"/>
<path d="M56.9453 64.4582H30.4826V65.6083H56.9453V64.4582Z" fill="white"/>
<path d="M56.9453 66.7585H30.4826V67.9086H56.9453V66.7585Z" fill="white"/>
<path d="M45.4407 69.0615H30.4826V70.2117H45.4407V69.0615Z" fill="white"/>
<path d="M52.3424 71.3646H30.4826V72.5148H52.3424V71.3646Z" fill="white"/>
<path d="M48.8916 73.6677H30.4826V74.8178H48.8916V73.6677Z" fill="white"/>
<path d="M56.9453 75.9707H30.4826V77.1209H56.9453V75.9707Z" fill="white"/>
<path d="M54.6466 79.424H31.6347V88.6334H54.6466V79.424Z" fill="white"/>
<path d="M193.98 125.782C193.98 125.782 197.829 152.25 220.428 161.041L174.702 161.104L128.975 161.168C151.539 152.313 155.33 125.835 155.33 125.835L193.98 125.782Z" fill="#E0E0E0"/>
<path d="M220.836 161.035L128.52 161.164L128.527 166.756L220.844 166.627L220.836 161.035Z" fill="url(#paint3_linear)"/>
<path d="M220.435 161.036L128.982 161.164L128.988 165.478L220.441 165.35L220.435 161.036Z" fill="#F5F5F5"/>
<path d="M248.909 30.5424L100.181 30.7487C99.3717 30.7682 98.6035 31.1084 98.0451 31.6946C97.4866 32.2808 97.1837 33.0649 97.2029 33.8745L97.3184 120.708V123.6C97.3184 130.204 102.441 135.539 108.743 135.531L240.619 135.35C246.919 135.35 252.019 129.987 252.011 123.388V120.499L251.895 33.6654C251.905 33.264 251.835 32.8648 251.689 32.4906C251.544 32.1164 251.327 31.7744 251.049 31.4844C250.772 31.1943 250.44 30.9618 250.073 30.8002C249.706 30.6385 249.31 30.5509 248.909 30.5424Z" fill="url(#paint4_linear)"/>
<path d="M101.946 33.4508H246.987C247.771 33.4508 248.523 33.7624 249.077 34.3172C249.632 34.8719 249.943 35.6242 249.943 36.4087V119.044H98.9874V36.4087C98.9874 36.0201 99.064 35.6352 99.2127 35.2761C99.3614 34.9171 99.5794 34.5909 99.8542 34.3162C100.129 34.0415 100.455 33.8237 100.814 33.6752C101.173 33.5267 101.558 33.4504 101.946 33.4508Z" fill="white"/>
<path d="M239.607 132.78L109.725 132.958C108.341 132.96 106.971 132.689 105.692 132.161C104.413 131.633 103.25 130.858 102.27 129.88C101.291 128.902 100.513 127.741 99.9818 126.462C99.4506 125.184 99.1762 123.813 99.1744 122.428V118.851L250.13 118.642V122.219C250.132 123.604 249.862 124.976 249.334 126.256C248.807 127.536 248.032 128.7 247.055 129.681C246.078 130.661 244.917 131.44 243.639 131.971C242.361 132.503 240.991 132.778 239.607 132.78Z" fill="#F5F5F5"/>
<path d="M243.05 40.3847H106.444V109.482H243.05V40.3847Z" fill="#E6E6E6"/>
<path d="M231.29 44.9413H207.109V70.3493H231.29V44.9413Z" fill="url(#paint5_linear)"/>
<path d="M230.239 46.0475H208.16V69.2459H230.239V46.0475Z" fill="#F9A826"/>
<g opacity="0.5">
<path opacity="0.5" d="M220.709 56.363L220.434 56.264L220.418 56.2887H220.401V55.5403C220.401 55.4482 220.394 55.3561 220.379 55.2652C220.824 54.9371 221.165 54.487 221.361 53.9692C221.746 53.4696 221.983 52.8721 222.046 52.2444C222.109 51.6167 221.995 50.9838 221.717 50.4176C221.439 49.8514 221.008 49.3745 220.473 49.041C219.938 48.7075 219.32 48.5308 218.689 48.5308C218.059 48.5308 217.441 48.7075 216.906 49.041C216.371 49.3745 215.94 49.8514 215.662 50.4176C215.383 50.9838 215.269 51.6167 215.332 52.2444C215.395 52.8721 215.633 53.4696 216.018 53.9692C216.213 54.487 216.554 54.9371 217 55.2652C216.985 55.3561 216.978 55.4482 216.978 55.5403V56.3658C215.502 56.7734 214.201 57.6541 213.274 58.8728C212.347 60.0915 211.844 61.5809 211.844 63.1126V69.2514H225.812V63.1044C225.813 61.5775 225.314 60.0923 224.393 58.8753C223.472 57.6582 222.178 56.776 220.709 56.363Z" fill="url(#paint6_linear)"/>
</g>
<path d="M218.405 56.2117H219.257C220.929 56.2117 222.533 56.8765 223.715 58.0597C224.898 59.2429 225.562 60.8477 225.562 62.5211V68.8497H212.089V62.5211C212.089 61.6916 212.252 60.8703 212.57 60.1041C212.887 59.3379 213.353 58.6418 213.939 58.0558C214.526 57.4698 215.222 57.0053 215.989 56.6888C216.755 56.3724 217.576 56.2103 218.405 56.2117Z" fill="#514ABF"/>
<path d="M218.798 54.0132H218.592C217.738 54.0132 217.046 54.7056 217.046 55.5596V56.5915C217.046 57.4455 217.738 58.1378 218.592 58.1378H218.798C219.651 58.1378 220.343 57.4455 220.343 56.5915V55.5596C220.343 54.7056 219.651 54.0132 218.798 54.0132Z" fill="#FDA57D"/>
<path opacity="0.05" d="M215.903 56.9409L217.008 59.3128L218.105 58.2149L217.008 56.5282L215.903 56.9409Z" fill="black"/>
<path d="M215.941 56.8253L217.041 59.1972L218.141 58.0966L217.041 56.4126L216.535 56.5667C216.485 56.582 216.437 56.6004 216.389 56.6217L215.941 56.8253Z" fill="white"/>
<path opacity="0.05" d="M221.49 56.8253L220.382 59.3128L219.282 58.2149L220.412 56.4401L221.49 56.8253Z" fill="black"/>
<path d="M221.451 56.7098L220.352 59.1862L219.252 58.0856L220.382 56.3108L220.588 56.3713C220.812 56.4353 221.031 56.5134 221.245 56.6052L221.451 56.7098Z" fill="white"/>
<path d="M218.061 58.0113L218.677 58.9083L219.326 58.0113H218.061Z" fill="#FDA57D"/>
<path opacity="0.1" d="M214.629 61.2609C214.629 61.2609 213.975 67.7793 214.399 68.2031L214.629 61.2609Z" fill="black"/>
<path opacity="0.1" d="M222.724 61.2609C222.724 61.2609 223.379 67.7793 222.955 68.2031L222.724 61.2609Z" fill="black"/>
<path opacity="0.05" d="M218.693 56.0136C219.279 56.0137 219.849 55.8267 220.321 55.4798C220.259 55.0924 220.061 54.7398 219.763 54.4852C219.465 54.2306 219.086 54.0906 218.693 54.0903C218.301 54.0906 217.922 54.2306 217.624 54.4852C217.326 54.7398 217.128 55.0924 217.066 55.4798C217.538 55.8267 218.108 56.0137 218.693 56.0136Z" fill="black"/>
<path d="M218.694 55.4192C220.487 55.4192 221.941 53.9643 221.941 52.1696C221.941 50.3749 220.487 48.92 218.694 48.92C216.9 48.92 215.446 50.3749 215.446 52.1696C215.446 53.9643 216.9 55.4192 218.694 55.4192Z" fill="black"/>
<path d="M218.693 55.9365C220.211 55.9365 221.44 54.7059 221.44 53.1877C221.44 51.6696 220.211 50.4389 218.693 50.4389C217.176 50.4389 215.947 51.6696 215.947 53.1877C215.947 54.7059 217.176 55.9365 218.693 55.9365Z" fill="#FDA57D"/>
<path opacity="0.05" d="M216.48 50.4637L217.173 51.3112C217.173 51.3112 220.217 51.5864 220.563 50.8875C220.91 50.1886 218.559 49.6906 218.559 49.6906L216.48 50.4637Z" fill="black"/>
<path d="M216.48 50.3867L217.173 51.2341C217.173 51.2341 220.217 51.5093 220.563 50.8104C220.91 50.1115 218.559 49.6135 218.559 49.6135L216.48 50.3867Z" fill="black"/>
<path d="M215.941 53.3556C216.047 53.3556 216.134 53.2004 216.134 53.0089C216.134 52.8175 216.047 52.6622 215.941 52.6622C215.835 52.6622 215.749 52.8175 215.749 53.0089C215.749 53.2004 215.835 53.3556 215.941 53.3556Z" fill="#FDA57D"/>
<path d="M221.451 53.3556C221.558 53.3556 221.644 53.2004 221.644 53.0089C221.644 52.8175 221.558 52.6622 221.451 52.6622C221.345 52.6622 221.259 52.8175 221.259 53.0089C221.259 53.2004 221.345 53.3556 221.451 53.3556Z" fill="#FDA57D"/>
<path d="M231.43 75.4204H207.249V100.828H231.43V75.4204Z" fill="url(#paint7_linear)"/>
<path d="M230.38 76.5238H208.3V99.7223H230.38V76.5238Z" fill="#F9A826"/>
<g opacity="0.5">
<path opacity="0.5" d="M221.009 86.977V86.124C221.009 86.0827 221.009 86.0387 221.009 85.9974C221.476 85.6471 221.833 85.1695 222.037 84.6217C222.375 84.1827 222.607 83.6714 222.715 83.1278C222.823 82.5841 222.803 82.0229 222.658 81.488C222.513 80.9532 222.246 80.4592 221.879 80.0447C221.511 79.6303 221.052 79.3067 220.539 79.0993C220.578 78.9248 220.578 78.7438 220.54 78.569C220.502 78.3943 220.426 78.2301 220.317 78.0881C220.208 77.9461 220.07 77.8297 219.911 77.7471C219.753 77.6645 219.578 77.6178 219.399 77.6102C219.221 77.6027 219.043 77.6344 218.878 77.7033C218.713 77.7721 218.565 77.8764 218.444 78.0087C218.324 78.141 218.234 78.2981 218.181 78.469C218.128 78.6398 218.114 78.8203 218.138 78.9975C217.584 79.1681 217.079 79.4707 216.667 79.8792C216.255 80.2878 215.949 80.7901 215.773 81.3433C215.598 81.8964 215.559 82.4838 215.66 83.0553C215.761 83.6267 215.999 84.1651 216.354 84.6244C216.557 85.1722 216.914 85.6498 217.382 86.0002C217.382 86.0415 217.382 86.0827 217.382 86.1268V87.0293C215.847 87.3239 214.462 88.144 213.465 89.349C212.468 90.554 211.921 92.0687 211.918 93.633V100.872H226.794V93.644C226.794 92.0219 226.208 90.4544 225.145 89.2296C224.082 88.0048 222.614 87.2049 221.009 86.977Z" fill="url(#paint8_linear)"/>
</g>
<path d="M218.913 87.131H219.766C220.594 87.131 221.414 87.2942 222.179 87.6113C222.944 87.9284 223.639 88.3931 224.224 88.979C224.81 89.5649 225.274 90.2604 225.591 91.0259C225.908 91.7914 226.071 92.6118 226.071 93.4404V99.769H212.598V93.4404C212.598 91.767 213.262 90.1622 214.444 88.979C215.627 87.7958 217.23 87.131 218.902 87.131H218.913Z" fill="white"/>
<path d="M219.304 84.9326H219.098C218.244 84.9326 217.552 85.6249 217.552 86.4789V87.5108C217.552 88.3648 218.244 89.0572 219.098 89.0572H219.304C220.157 89.0572 220.849 88.3648 220.849 87.5108V86.4789C220.849 85.6249 220.157 84.9326 219.304 84.9326Z" fill="#FDB797"/>
<path d="M218.57 88.9306L219.186 89.8276L219.832 88.9306H218.57Z" fill="#FDB797"/>
<path opacity="0.1" d="M215.138 92.1774C215.138 92.1774 214.484 98.6959 214.907 99.1196L215.138 92.1774Z" fill="black"/>
<path opacity="0.1" d="M223.233 92.1774C223.233 92.1774 223.888 98.6959 223.464 99.1196L223.233 92.1774Z" fill="black"/>
<path opacity="0.05" d="M219.213 86.933C219.799 86.9331 220.369 86.746 220.841 86.3992C220.779 86.0118 220.581 85.6592 220.283 85.4046C219.984 85.1499 219.605 85.0099 219.213 85.0097C218.817 85.0047 218.433 85.1423 218.13 85.3974C217.827 85.6525 217.626 86.008 217.563 86.3992C218.041 86.7505 218.62 86.9378 219.213 86.933Z" fill="black"/>
<path d="M219.202 86.3386C220.996 86.3386 222.45 84.8837 222.45 83.089C222.45 81.2943 220.996 79.8394 219.202 79.8394C217.409 79.8394 215.955 81.2943 215.955 83.089C215.955 84.8837 217.409 86.3386 219.202 86.3386Z" fill="#FDD835"/>
<path d="M219.202 86.856C220.719 86.856 221.949 85.6253 221.949 84.1072C221.949 82.589 220.719 81.3583 219.202 81.3583C217.685 81.3583 216.455 82.589 216.455 84.1072C216.455 85.6253 217.685 86.856 219.202 86.856Z" fill="#FDB797"/>
<path d="M216.447 84.2749C216.553 84.2749 216.639 84.1197 216.639 83.9282C216.639 83.7368 216.553 83.5815 216.447 83.5815C216.341 83.5815 216.255 83.7368 216.255 83.9282C216.255 84.1197 216.341 84.2749 216.447 84.2749Z" fill="#FDB797"/>
<path d="M221.96 84.2749C222.066 84.2749 222.153 84.1197 222.153 83.9282C222.153 83.7368 222.066 83.5815 221.96 83.5815C221.854 83.5815 221.768 83.7368 221.768 83.9282C221.768 84.1197 221.854 84.2749 221.96 84.2749Z" fill="#FDB797"/>
<path d="M219.34 80.9428C219.949 80.9428 220.442 80.4488 220.442 79.8394C220.442 79.23 219.949 78.736 219.34 78.736C218.731 78.736 218.237 79.23 218.237 79.8394C218.237 80.4488 218.731 80.9428 219.34 80.9428Z" fill="#FDD835"/>
<path d="M217.132 80.9428C217.132 80.9428 218.232 83.1441 221.548 82.0434L220.448 80.9428H217.132Z" fill="#FDD835"/>
<path d="M178.175 49.0549H117.413V51.6992H178.175V49.0549Z" fill="white"/>
<path d="M178.175 54.3407H117.413V56.985H178.175V54.3407Z" fill="white"/>
<path d="M151.756 59.6292H117.413V62.2735H151.756V59.6292Z" fill="white"/>
<path d="M167.608 64.9149H117.413V67.5592H167.608V64.9149Z" fill="white"/>
<path d="M159.68 70.2034H117.413V72.8477H159.68V70.2034Z" fill="white"/>
<path d="M178.175 75.4892H117.413V78.1334H178.175V75.4892Z" fill="white"/>
<path d="M172.89 83.422H120.055V104.571H172.89V83.422Z" fill="white"/>
<path d="M38.1597 168.019H9.0986V9.39932H180.817V22.6178" stroke="#3AD29F" stroke-width="6" stroke-miterlimit="10" stroke-dasharray="12 12"/>
<g opacity="0.5">
<path opacity="0.5" d="M9.98123 19.9764C15.4937 19.9764 19.9625 15.5045 19.9625 9.98818C19.9625 4.47186 15.4937 0 9.98123 0C4.46875 0 0 4.47186 0 9.98818C0 15.5045 4.46875 19.9764 9.98123 19.9764Z" fill="url(#paint9_linear)"/>
</g>
<path d="M9.98122 19.3875C15.1687 19.3875 19.374 15.1793 19.374 9.98818C19.374 4.79707 15.1687 0.588837 9.98122 0.588837C4.79371 0.588837 0.588409 4.79707 0.588409 9.98818C0.588409 15.1793 4.79371 19.3875 9.98122 19.3875Z" fill="#69F0AE"/>
<path d="M6.45894 9.39936L9.98125 12.6297L14.9691 5.28577L16.7316 6.7551L9.98125 15.5684L4.99063 9.98819L6.45894 9.39936Z" fill="white"/>
<path d="M116.665 91.36L49.8979 91.4532C47.2905 91.4569 45.1797 93.575 45.1833 96.1843L45.3351 204.954C45.3387 207.563 47.4554 209.675 50.0628 209.671L116.83 209.578C119.437 209.574 121.548 207.456 121.544 204.847L121.393 96.0778C121.389 93.4686 119.272 91.3563 116.665 91.36Z" fill="url(#paint10_linear)"/>
<path d="M116.336 100.391L50.5237 100.483L50.662 199.635L116.475 199.544L116.336 100.391Z" fill="url(#paint11_linear)"/>
<path d="M115.584 93.1472L50.9837 93.2374C49.0582 93.2401 47.4994 94.8044 47.5021 96.7313L47.6497 202.526C47.6524 204.453 49.2155 206.013 51.1411 206.01L115.741 205.92C117.667 205.917 119.226 204.353 119.223 202.426L119.075 96.6313C119.073 94.7044 117.51 93.1445 115.584 93.1472Z" fill="white"/>
<path d="M114.328 101.767L52.5191 101.853L52.6511 196.441L114.46 196.355L114.328 101.767Z" fill="#E6E6E6"/>
<path d="M83.4217 203.877C84.8279 203.877 85.9678 202.708 85.9678 201.266C85.9678 199.824 84.8279 198.655 83.4217 198.655C82.0155 198.655 80.8755 199.824 80.8755 201.266C80.8755 202.708 82.0155 203.877 83.4217 203.877Z" fill="#DBDBDB"/>
<path d="M72.7245 98.603C73.1937 98.6024 73.5736 98.2126 73.5729 97.7324C73.5723 97.2521 73.1913 96.8634 72.7221 96.864C72.2528 96.8647 71.873 97.2545 71.8736 97.7347C71.8743 98.2149 72.2553 98.6037 72.7245 98.603Z" fill="#DBDBDB"/>
<path d="M87.7961 97.1897L77.177 97.2045C77.0616 97.2047 76.9681 97.2985 76.9683 97.414L76.9689 97.8652C76.9691 97.9807 77.0628 98.0742 77.1782 98.074L87.7973 98.0592C87.9127 98.059 88.0062 97.9653 88.006 97.8498L88.0054 97.3985C88.0052 97.283 87.9115 97.1895 87.7961 97.1897Z" fill="#DBDBDB"/>
<path d="M107.297 160.086H83.1165V185.494H107.297V160.086Z" fill="url(#paint12_linear)"/>
<path d="M106.246 161.192H84.1668V184.391H106.246V161.192Z" fill="#F9A826"/>
<g opacity="0.5">
<path opacity="0.5" d="M97.0847 171.511L96.8097 171.412L96.7932 171.436H96.7767V170.688C96.7767 170.596 96.7694 170.504 96.7547 170.413C97.2002 170.085 97.5411 169.635 97.7363 169.117C98.1214 168.617 98.3589 168.02 98.422 167.392C98.485 166.764 98.371 166.131 98.0929 165.565C97.8148 164.999 97.3837 164.522 96.8485 164.189C96.3133 163.855 95.6955 163.678 95.065 163.678C94.4346 163.678 93.8167 163.855 93.2816 164.189C92.7464 164.522 92.3153 164.999 92.0372 165.565C91.7591 166.131 91.6451 166.764 91.7081 167.392C91.7711 168.02 92.0087 168.617 92.3938 169.117C92.589 169.635 92.9299 170.085 93.3754 170.413C93.3607 170.504 93.3534 170.596 93.3534 170.688V171.513C91.8779 171.921 90.5767 172.802 89.6495 174.02C88.7222 175.239 88.2199 176.728 88.2198 178.26V184.399H102.202V178.249C102.201 176.721 101.7 175.235 100.776 174.018C99.8522 172.802 98.5557 171.921 97.0847 171.511Z" fill="url(#paint13_linear)"/>
</g>
<path d="M94.7805 171.356H95.6329C97.305 171.356 98.9087 172.021 100.091 173.204C101.274 174.388 101.938 175.992 101.938 177.666V183.994H88.4645V177.666C88.4645 176.836 88.628 176.015 88.9455 175.249C89.2631 174.483 89.7285 173.787 90.3151 173.201C90.9017 172.614 91.5981 172.15 92.3643 171.834C93.1305 171.517 93.9516 171.355 94.7805 171.356Z" fill="#3AD29F"/>
<path d="M95.1736 169.158H94.9674C94.114 169.158 93.4221 169.85 93.4221 170.704V171.736C93.4221 172.59 94.114 173.283 94.9674 173.283H95.1736C96.0271 173.283 96.719 172.59 96.719 171.736V170.704C96.719 169.85 96.0271 169.158 95.1736 169.158Z" fill="#BE7C5E"/>
<path d="M94.4368 173.156L95.0527 174.053L95.7016 173.156H94.4368Z" fill="#BE7C5E"/>
<path opacity="0.1" d="M91.0052 176.406C91.0052 176.406 90.3508 182.924 90.7742 183.348L91.0052 176.406Z" fill="black"/>
<path opacity="0.1" d="M99.1002 176.406C99.1002 176.406 99.7546 182.924 99.3311 183.348L99.1002 176.406Z" fill="black"/>
<path opacity="0.05" d="M95.0692 171.147C95.6547 171.147 96.225 170.96 96.697 170.614C96.6349 170.226 96.437 169.874 96.1387 169.619C95.8404 169.364 95.4612 169.224 95.0692 169.224C94.6771 169.224 94.2979 169.364 93.9997 169.619C93.7014 169.874 93.5035 170.226 93.4414 170.614C93.9133 170.96 94.4836 171.147 95.0692 171.147Z" fill="black"/>
<path d="M95.0692 170.564C96.8626 170.564 98.3165 169.109 98.3165 167.314C98.3165 165.52 96.8626 164.065 95.0692 164.065C93.2757 164.065 91.8218 165.52 91.8218 167.314C91.8218 169.109 93.2757 170.564 95.0692 170.564Z" fill="#444444"/>
<path d="M95.0692 171.081C96.5862 171.081 97.8161 169.851 97.8161 168.333C97.8161 166.814 96.5862 165.584 95.0692 165.584C93.5521 165.584 92.3223 166.814 92.3223 168.333C92.3223 169.851 93.5521 171.081 95.0692 171.081Z" fill="#BE7C5E"/>
<path opacity="0.05" d="M92.8557 165.608L93.5486 166.456C93.5486 166.456 96.5925 166.731 96.9389 166.032C97.2854 165.333 94.9344 164.835 94.9344 164.835L92.8557 165.608Z" fill="black"/>
<path d="M92.8557 165.531L93.5486 166.379C93.5486 166.379 96.5925 166.654 96.9389 165.955C97.2854 165.256 94.9344 164.758 94.9344 164.758L92.8557 165.531Z" fill="#444444"/>
<path d="M92.3168 168.5C92.4231 168.5 92.5092 168.345 92.5092 168.154C92.5092 167.962 92.4231 167.807 92.3168 167.807C92.2105 167.807 92.1243 167.962 92.1243 168.154C92.1243 168.345 92.2105 168.5 92.3168 168.5Z" fill="#BE7C5E"/>
<path d="M97.8271 168.5C97.9334 168.5 98.0196 168.345 98.0196 168.154C98.0196 167.962 97.9334 167.807 97.8271 167.807C97.7208 167.807 97.6346 167.962 97.6346 168.154C97.6346 168.345 97.7208 168.5 97.8271 168.5Z" fill="#BE7C5E"/>
<path d="M92.9217 164.293C93.1367 164.019 93.4332 163.819 93.7686 163.724C94.3762 163.482 95.0087 163.234 95.6603 163.278C95.7238 163.277 95.786 163.295 95.8391 163.33C95.8827 163.377 95.9189 163.43 95.9463 163.487C96.1443 163.781 96.6997 163.762 96.7712 164.109C96.7904 164.222 96.7437 164.343 96.7712 164.453C96.8427 164.728 97.2304 164.701 97.4586 164.857C97.5801 164.967 97.6539 165.12 97.6642 165.284C97.6745 165.447 97.6204 165.608 97.5136 165.732C97.2873 165.973 96.9942 166.139 96.6722 166.211C96.1072 166.428 95.4929 166.482 94.8987 166.368C94.0655 166.151 92.116 165.611 92.9217 164.293Z" fill="#444444"/>
<path d="M82.55 159.811H58.3696V185.219H82.55V159.811Z" fill="url(#paint14_linear)"/>
<path d="M81.4996 160.917H59.42V184.115H81.4996V160.917Z" fill="#F9A826"/>
<g opacity="0.5">
<path opacity="0.5" d="M72.3378 171.235L72.0628 171.136L72.0463 171.161H72.0298V170.413C72.0299 170.321 72.0225 170.229 72.0078 170.138C72.4533 169.81 72.7942 169.359 72.9895 168.842C73.3746 168.342 73.6121 167.745 73.6751 167.117C73.7381 166.489 73.6241 165.856 73.346 165.29C73.0679 164.724 72.6368 164.247 72.1016 163.913C71.5665 163.58 70.9486 163.403 70.3182 163.403C69.6877 163.403 69.0699 163.58 68.5347 163.913C67.9995 164.247 67.5685 164.724 67.2904 165.29C67.0123 165.856 66.8982 166.489 66.9613 167.117C67.0243 167.745 67.2618 168.342 67.6469 168.842C67.8421 169.359 68.1831 169.81 68.6285 170.138C68.6139 170.229 68.6065 170.321 68.6065 170.413V171.238C67.131 171.646 65.8299 172.527 64.9026 173.745C63.9753 174.964 63.4731 176.453 63.4729 177.985V184.124H77.4549V177.974C77.4539 176.446 76.9532 174.96 76.0293 173.743C75.1053 172.526 73.8089 171.646 72.3378 171.235Z" fill="url(#paint15_linear)"/>
</g>
<path d="M70.0336 171.081H70.886C71.714 171.081 72.5338 171.244 73.2988 171.562C74.0637 171.879 74.7588 172.343 75.3443 172.929C75.9297 173.515 76.3942 174.211 76.711 174.976C77.0279 175.742 77.1909 176.562 77.1909 177.391V183.719H63.7177V177.391C63.7177 176.561 63.8811 175.74 64.1986 174.974C64.5162 174.207 64.9816 173.511 65.5682 172.925C66.1549 172.339 66.8512 171.875 67.6174 171.558C68.3836 171.242 69.2047 171.08 70.0336 171.081Z" fill="#514ABF"/>
<path d="M70.4268 168.883H70.2206C69.3671 168.883 68.6753 169.575 68.6753 170.429V171.461C68.6753 172.315 69.3671 173.007 70.2206 173.007H70.4268C71.2802 173.007 71.9721 172.315 71.9721 171.461V170.429C71.9721 169.575 71.2802 168.883 70.4268 168.883Z" fill="#FDA57D"/>
<path opacity="0.1" d="M66.2583 176.13C66.2583 176.13 65.6039 182.649 66.0274 183.073L66.2583 176.13Z" fill="black"/>
<path opacity="0.1" d="M74.3533 176.13C74.3533 176.13 75.0077 182.649 74.5843 183.073L74.3533 176.13Z" fill="black"/>
<path opacity="0.05" d="M70.3223 170.872C70.9079 170.872 71.4782 170.685 71.9501 170.338C71.888 169.951 71.6901 169.598 71.3918 169.344C71.0935 169.089 70.7144 168.949 70.3223 168.949C69.9302 168.949 69.5511 169.089 69.2528 169.344C68.9545 169.598 68.7566 169.951 68.6945 170.338C69.1665 170.685 69.7368 170.872 70.3223 170.872Z" fill="black"/>
<path d="M70.3223 170.289C72.1158 170.289 73.5697 168.834 73.5697 167.039C73.5697 165.245 72.1158 163.79 70.3223 163.79C68.5289 163.79 67.075 165.245 67.075 167.039C67.075 168.834 68.5289 170.289 70.3223 170.289Z" fill="#444444"/>
<path d="M70.3223 170.806C71.8394 170.806 73.0692 169.576 73.0692 168.057C73.0692 166.539 71.8394 165.309 70.3223 165.309C68.8052 165.309 67.5754 166.539 67.5754 168.057C67.5754 169.576 68.8052 170.806 70.3223 170.806Z" fill="#FDA57D"/>
<path opacity="0.05" d="M68.1089 165.333L68.8018 166.181C68.8018 166.181 71.8456 166.456 72.1921 165.757C72.5385 165.058 70.1876 164.56 70.1876 164.56L68.1089 165.333Z" fill="black"/>
<path d="M68.1089 165.256L68.8018 166.104C68.8018 166.104 71.8456 166.379 72.1921 165.68C72.5385 164.981 70.1876 164.483 70.1876 164.483L68.1089 165.256Z" fill="#444444"/>
<path d="M67.5699 168.225C67.6762 168.225 67.7624 168.07 67.7624 167.879C67.7624 167.687 67.6762 167.532 67.5699 167.532C67.4636 167.532 67.3774 167.687 67.3774 167.879C67.3774 168.07 67.4636 168.225 67.5699 168.225Z" fill="#FDA57D"/>
<path d="M73.0802 168.225C73.1865 168.225 73.2727 168.07 73.2727 167.879C73.2727 167.687 73.1865 167.532 73.0802 167.532C72.9739 167.532 72.8877 167.687 72.8877 167.879C72.8877 168.07 72.9739 168.225 73.0802 168.225Z" fill="#FDA57D"/>
<path d="M104.204 113.868H59.2935V115.822H104.204V113.868Z" fill="white"/>
<path d="M104.204 117.775H59.2935V119.729H104.204V117.775Z" fill="white"/>
<path d="M84.6782 121.682H59.2935V123.636H84.6782V121.682Z" fill="white"/>
<path d="M96.3945 125.592H59.2935V127.546H96.3945V125.592Z" fill="white"/>
<path d="M90.535 129.5H59.2935V131.453H90.535V129.5Z" fill="white"/>
<path d="M104.204 133.407H59.2935V135.36H104.204V133.407Z" fill="white"/>
<path d="M100.299 139.271H61.2457V154.902H100.299V139.271Z" fill="white"/>
<path d="M68.4141 167.02C68.5526 166.775 68.6677 166.517 68.7578 166.25C68.9037 165.933 69.1342 165.663 69.4238 165.47C69.7134 165.276 70.0508 165.167 70.3988 165.153C70.7467 165.139 71.0917 165.222 71.3955 165.392C71.6994 165.563 71.9503 165.813 72.1206 166.117C72.3461 166.522 72.4203 167.001 72.6705 167.391C72.706 167.418 72.7466 167.437 72.7898 167.447C72.833 167.457 72.8779 167.458 72.9215 167.45C72.9652 167.442 73.0067 167.425 73.0434 167.401C73.0802 167.376 73.1115 167.344 73.1352 167.306C73.1787 167.227 73.2039 167.139 73.2092 167.048C73.2144 166.958 73.1995 166.867 73.1655 166.783C73.1077 166.613 73.0115 166.456 72.9482 166.288C72.8851 166.015 72.793 165.749 72.6733 165.496C72.5262 165.304 72.3384 165.147 72.1233 165.036C71.5157 164.662 70.8118 164.274 70.1244 164.486C69.8924 164.565 69.673 164.677 69.4727 164.819L68.5983 165.369C68.3171 165.527 68.0658 165.732 67.8559 165.977C67.6662 166.225 67.306 166.965 67.4737 167.284C67.6717 167.647 68.2408 167.248 68.4141 167.02Z" fill="#444444"/>
<path d="M69.6322 172.798V183.73H71.2462L71.007 172.798H69.6322Z" fill="white"/>
<path d="M69.3627 172.65L70.2976 174.012L71.282 172.65H69.3627Z" fill="#FDA57D"/>
</g>
<defs>
<linearGradient id="paint0_linear" x1="43.5655" y1="129.787" x2="43.5655" y2="54.7216" gradientUnits="userSpaceOnUse">
<stop stop-color="#808080" stop-opacity="0.25"/>
<stop offset="0.54" stop-color="#808080" stop-opacity="0.12"/>
<stop offset="1" stop-color="#808080" stop-opacity="0.1"/>
</linearGradient>
<linearGradient id="paint1_linear" x1="2764.63" y1="7478.43" x2="2764.63" y2="6295.77" gradientUnits="userSpaceOnUse">
<stop stop-color="#808080" stop-opacity="0.25"/>
<stop offset="0.54" stop-color="#808080" stop-opacity="0.12"/>
<stop offset="1" stop-color="#808080" stop-opacity="0.1"/>
</linearGradient>
<linearGradient id="paint2_linear" x1="3221.38" y1="7581.67" x2="3221.38" y2="6691.77" gradientUnits="userSpaceOnUse">
<stop stop-color="#808080" stop-opacity="0.25"/>
<stop offset="0.54" stop-color="#808080" stop-opacity="0.12"/>
<stop offset="1" stop-color="#808080" stop-opacity="0.1"/>
</linearGradient>
<linearGradient id="paint3_linear" x1="71840.9" y1="3835.63" x2="71840.7" y2="3721.96" gradientUnits="userSpaceOnUse">
<stop stop-color="#808080" stop-opacity="0.25"/>
<stop offset="0.54" stop-color="#808080" stop-opacity="0.12"/>
<stop offset="1" stop-color="#808080" stop-opacity="0.1"/>
</linearGradient>
<linearGradient id="paint4_linear" x1="120362" y1="61384.3" x2="120362" y2="21243.4" gradientUnits="userSpaceOnUse">
<stop stop-color="#808080" stop-opacity="0.25"/>
<stop offset="0.54" stop-color="#808080" stop-opacity="0.12"/>
<stop offset="1" stop-color="#808080" stop-opacity="0.1"/>
</linearGradient>
<linearGradient id="paint5_linear" x1="19483.5" y1="6541" x2="19483.5" y2="4194.82" gradientUnits="userSpaceOnUse">
<stop stop-color="#808080" stop-opacity="0.25"/>
<stop offset="0.54" stop-color="#808080" stop-opacity="0.12"/>
<stop offset="1" stop-color="#808080" stop-opacity="0.1"/>
</linearGradient>
<linearGradient id="paint6_linear" x1="12953.5" y1="5912.87" x2="13663.8" y2="5912.87" gradientUnits="userSpaceOnUse">
<stop stop-color="#808080" stop-opacity="0.25"/>
<stop offset="0.54" stop-color="#808080" stop-opacity="0.12"/>
<stop offset="1" stop-color="#808080" stop-opacity="0.1"/>
</linearGradient>
<linearGradient id="paint7_linear" x1="19496" y1="9385.91" x2="19496" y2="7039.74" gradientUnits="userSpaceOnUse">
<stop stop-color="#808080" stop-opacity="0.25"/>
<stop offset="0.54" stop-color="#808080" stop-opacity="0.12"/>
<stop offset="1" stop-color="#808080" stop-opacity="0.1"/>
</linearGradient>
<linearGradient id="paint8_linear" x1="14187" y1="10212" x2="14187" y2="8246.04" gradientUnits="userSpaceOnUse">
<stop stop-color="#808080" stop-opacity="0.25"/>
<stop offset="0.54" stop-color="#808080" stop-opacity="0.12"/>
<stop offset="1" stop-color="#808080" stop-opacity="0.1"/>
</linearGradient>
<linearGradient id="paint9_linear" x1="724.637" y1="1450.08" x2="724.637" y2="0" gradientUnits="userSpaceOnUse">
<stop stop-color="#808080" stop-opacity="0.25"/>
<stop offset="0.54" stop-color="#808080" stop-opacity="0.12"/>
<stop offset="1" stop-color="#808080" stop-opacity="0.1"/>
</linearGradient>
<linearGradient id="paint10_linear" x1="34075.8" y1="100050" x2="34004.5" y2="49026.2" gradientUnits="userSpaceOnUse">
<stop stop-color="#808080" stop-opacity="0.25"/>
<stop offset="0.54" stop-color="#808080" stop-opacity="0.12"/>
<stop offset="1" stop-color="#808080" stop-opacity="0.1"/>
</linearGradient>
<linearGradient id="paint11_linear" x1="83.5739" y1="200.596" x2="83.4348" y2="100.987" gradientUnits="userSpaceOnUse">
<stop stop-opacity="0.09"/>
<stop offset="0.55" stop-opacity="0.07"/>
<stop offset="1" stop-opacity="0.02"/>
</linearGradient>
<linearGradient id="paint12_linear" x1="8455.59" y1="17288.6" x2="8455.59" y2="14942.4" gradientUnits="userSpaceOnUse">
<stop stop-color="#808080" stop-opacity="0.25"/>
<stop offset="0.54" stop-color="#808080" stop-opacity="0.12"/>
<stop offset="1" stop-color="#808080" stop-opacity="0.1"/>
</linearGradient>
<linearGradient id="paint13_linear" x1="6556.14" y1="14699" x2="7267.12" y2="14699" gradientUnits="userSpaceOnUse">
<stop stop-color="#808080" stop-opacity="0.25"/>
<stop offset="0.54" stop-color="#808080" stop-opacity="0.12"/>
<stop offset="1" stop-color="#808080" stop-opacity="0.1"/>
</linearGradient>
<linearGradient id="paint14_linear" x1="6254.61" y1="17262.9" x2="6254.61" y2="14916.7" gradientUnits="userSpaceOnUse">
<stop stop-color="#808080" stop-opacity="0.25"/>
<stop offset="0.54" stop-color="#808080" stop-opacity="0.12"/>
<stop offset="1" stop-color="#808080" stop-opacity="0.1"/>
</linearGradient>
<linearGradient id="paint15_linear" x1="5273.01" y1="14678" x2="5984" y2="14678" gradientUnits="userSpaceOnUse">
<stop stop-color="#808080" stop-opacity="0.25"/>
<stop offset="0.54" stop-color="#808080" stop-opacity="0.12"/>
<stop offset="1" stop-color="#808080" stop-opacity="0.1"/>
</linearGradient>
<clipPath id="clip0">
<rect width="252" height="209.669" fill="white"/>
</clipPath>
</defs>
</svg>
