<svg width="526" height="502" viewBox="0 0 526 502" fill="none" xmlns="http://www.w3.org/2000/svg">
<g clip-path="url(#clip0)">
<path d="M31.3729 0C30.8577 0.000562144 30.3637 0.204137 29.9994 0.566057C29.6351 0.927976 29.4302 1.41868 29.4296 1.93051V67.7761C29.4302 68.288 29.6351 68.7787 29.9994 69.1406C30.3637 69.5025 30.8577 69.7061 31.3729 69.7066H257.378C257.893 69.7061 258.387 69.5025 258.751 69.1406C259.116 68.7787 259.321 68.288 259.321 67.7761V1.93051C259.321 1.41868 259.116 0.927976 258.751 0.566057C258.387 0.204137 257.893 0.000562144 257.378 0H31.3729Z" fill="#E6E6E6"/>
<path d="M34.2988 64.8693H254.45V4.83716H34.2988V64.8693Z" fill="white"/>
<path d="M226.662 52.4148C225.808 52.4148 224.989 52.7517 224.386 53.3515C223.782 53.9512 223.443 54.7647 223.443 55.6128C223.443 56.461 223.782 57.2745 224.386 57.8742C224.989 58.474 225.808 58.8109 226.662 58.8109H239.538C240.392 58.8109 241.21 58.474 241.814 57.8742C242.418 57.2745 242.757 56.461 242.757 55.6128C242.757 54.7647 242.418 53.9512 241.814 53.3515C241.21 52.7517 240.392 52.4148 239.538 52.4148H226.662Z" fill="#F9A826"/>
<path d="M242.757 46.2119H94.1179V47.0536H242.757V46.2119Z" fill="#E6E6E6"/>
<path d="M63.0478 53.4795C73.4027 53.4795 81.797 45.1403 81.797 34.8533C81.797 24.5663 73.4027 16.2271 63.0478 16.2271C52.6929 16.2271 44.2986 24.5663 44.2986 34.8533C44.2986 45.1403 52.6929 53.4795 63.0478 53.4795Z" fill="#E6E6E6"/>
<path d="M94.3545 41.5135L93.8849 40.8134L109.33 30.5838L119.922 35.6349L135.156 25.9653L135.362 26.0524L165.463 38.8085L189.596 27.0308L213.031 36.4695L242.478 42.4161L243.04 43.0462L213.2 37.4458L189.629 27.9518L165.486 39.7331L135.235 26.9132L119.979 36.5955L109.397 31.5495L94.3545 41.5135Z" fill="#3F3D56"/>
<path d="M96.8706 52.8558C96.1483 52.8674 95.4595 53.1605 94.9528 53.6721C94.4461 54.1836 94.1621 54.8725 94.1621 55.5902C94.1621 56.3079 94.4461 56.9968 94.9528 57.5083C95.4595 58.0198 96.1483 58.313 96.8706 58.3245H125.667C126.396 58.3352 127.1 58.0579 127.624 57.5534C128.147 57.0489 128.448 56.3586 128.46 55.634C128.471 54.9094 128.193 54.2098 127.686 53.6889C127.179 53.168 126.484 52.8684 125.755 52.8558C125.726 52.8554 125.696 52.8554 125.667 52.8558H96.8706Z" fill="#E6E6E6"/>
<path d="M70.5895 34.6221C70.4851 34.5183 70.3612 34.436 70.2247 34.3799C70.0883 34.3238 69.9421 34.2949 69.7944 34.2949C69.6468 34.2949 69.5006 34.3238 69.3641 34.3799C69.2277 34.436 69.1037 34.5183 68.9993 34.6221L64.1723 39.4174V27.5925C64.1715 27.2968 64.0527 27.0133 63.842 26.8045C63.6312 26.5956 63.3456 26.4783 63.0478 26.4783C62.7501 26.4783 62.4645 26.5956 62.2537 26.8045C62.0429 27.0133 61.9242 27.2968 61.9234 27.5925V39.4174L57.0964 34.6221C56.992 34.518 56.868 34.4354 56.7315 34.379C56.595 34.3226 56.4487 34.2935 56.3008 34.2933C56.153 34.2932 56.0065 34.322 55.8699 34.3782C55.7333 34.4343 55.6092 34.5167 55.5046 34.6205C55.4001 34.7244 55.3172 34.8477 55.2607 34.9834C55.2042 35.1191 55.1752 35.2646 55.1753 35.4115C55.1754 35.5583 55.2047 35.7037 55.2615 35.8394C55.3183 35.975 55.4014 36.0982 55.5061 36.2018L62.2527 42.9042C62.4636 43.1136 62.7496 43.2313 63.0478 43.2313C63.3461 43.2313 63.6321 43.1136 63.843 42.9042L70.5895 36.2018C70.8004 35.9923 70.9189 35.7082 70.9189 35.4119C70.9189 35.1157 70.8004 34.8316 70.5895 34.6221Z" fill="white"/>
<path d="M120.287 105.455C119.772 105.455 119.278 105.659 118.914 106.021C118.55 106.383 118.345 106.874 118.344 107.385V173.231C118.345 173.743 118.55 174.234 118.914 174.595C119.278 174.957 119.772 175.161 120.287 175.161H346.293C346.808 175.161 347.302 174.957 347.666 174.595C348.031 174.234 348.236 173.743 348.236 173.231V107.385C348.236 106.874 348.031 106.383 347.666 106.021C347.302 105.659 346.808 105.455 346.293 105.455H120.287Z" fill="#E6E6E6"/>
<path d="M123.214 170.324H343.366V110.292H123.214V170.324Z" fill="white"/>
<path d="M315.577 157.871C314.723 157.871 313.905 158.208 313.301 158.808C312.697 159.408 312.358 160.221 312.358 161.069C312.358 161.917 312.697 162.731 313.301 163.331C313.905 163.93 314.723 164.267 315.577 164.267H328.452C329.305 164.267 330.124 163.93 330.728 163.331C331.332 162.731 331.671 161.917 331.671 161.069C331.671 160.221 331.332 159.408 330.728 158.808C330.124 158.208 329.305 157.871 328.452 157.871H315.576H315.577Z" fill="#F9A826"/>
<path d="M331.673 151.667H183.033V152.509H331.673V151.667Z" fill="#E6E6E6"/>
<path d="M151.962 158.935C162.317 158.935 170.712 150.596 170.712 140.309C170.712 130.022 162.317 121.683 151.962 121.683C141.607 121.683 133.213 130.022 133.213 140.309C133.213 150.596 141.607 158.935 151.962 158.935Z" fill="#F9A826"/>
<path d="M183.268 146.969L182.798 146.269L198.243 136.039L208.836 141.09L224.07 131.421L224.276 131.508L254.376 144.264L278.51 132.486L301.945 141.924L331.392 116.014L331.953 116.644L302.113 142.898L278.543 133.405L254.4 145.186L224.149 132.367L208.894 142.049L198.315 137.005L183.268 146.969Z" fill="#3F3D56"/>
<path d="M185.786 158.311C185.424 158.305 185.065 158.37 184.729 158.502C184.393 158.634 184.086 158.83 183.826 159.08C183.567 159.33 183.359 159.628 183.215 159.958C183.071 160.287 182.994 160.641 182.989 161.001C182.983 161.36 183.048 161.716 183.181 162.05C183.314 162.384 183.512 162.689 183.763 162.947C184.014 163.205 184.315 163.411 184.646 163.554C184.978 163.697 185.335 163.774 185.696 163.779C185.726 163.78 185.756 163.78 185.786 163.779H214.582C215.304 163.768 215.993 163.475 216.5 162.963C217.006 162.452 217.29 161.763 217.29 161.045C217.29 160.327 217.006 159.638 216.5 159.127C215.993 158.615 215.304 158.322 214.582 158.311H185.786Z" fill="#E6E6E6"/>
<path d="M144.421 140.54C144.525 140.644 144.649 140.726 144.785 140.782C144.922 140.838 145.068 140.867 145.216 140.867C145.363 140.867 145.51 140.838 145.646 140.782C145.782 140.726 145.906 140.644 146.011 140.54L150.838 135.745V147.57C150.838 147.866 150.956 148.15 151.167 148.36C151.378 148.569 151.664 148.687 151.962 148.687C152.261 148.687 152.547 148.569 152.757 148.36C152.968 148.15 153.087 147.866 153.087 147.57V135.745L157.914 140.54C158.018 140.644 158.142 140.726 158.279 140.782C158.415 140.839 158.561 140.867 158.709 140.867C158.857 140.867 159.003 140.839 159.139 140.782C159.276 140.726 159.4 140.644 159.504 140.54C159.608 140.437 159.691 140.313 159.748 140.178C159.804 140.042 159.833 139.897 159.833 139.75C159.833 139.604 159.804 139.458 159.748 139.323C159.691 139.187 159.608 139.064 159.504 138.96L152.757 132.258C152.547 132.049 152.261 131.931 151.962 131.931C151.664 131.931 151.378 132.049 151.167 132.258L144.421 138.96C144.21 139.17 144.091 139.454 144.091 139.75C144.091 140.047 144.21 140.331 144.421 140.54Z" fill="white"/>
<path d="M1.94325 210.91C1.42804 210.911 0.934096 211.114 0.569788 211.476C0.205479 211.838 0.000565854 212.329 0 212.841V278.686C0.000565854 279.198 0.205479 279.689 0.569788 280.051C0.934096 280.413 1.42804 280.616 1.94325 280.617H227.948C228.463 280.616 228.957 280.413 229.322 280.051C229.686 279.689 229.891 279.198 229.891 278.686V212.841C229.891 212.329 229.686 211.838 229.322 211.476C228.957 211.114 228.463 210.911 227.948 210.91H1.94325Z" fill="#E6E6E6"/>
<path d="M4.86987 275.78H225.022V215.748H4.86987V275.78Z" fill="white"/>
<path d="M197.232 263.326C196.379 263.326 195.56 263.663 194.956 264.262C194.352 264.862 194.013 265.676 194.013 266.524C194.013 267.372 194.352 268.185 194.956 268.785C195.56 269.385 196.379 269.722 197.232 269.722H210.108C210.962 269.722 211.781 269.385 212.385 268.785C212.988 268.185 213.327 267.372 213.327 266.524C213.327 265.676 212.988 264.862 212.385 264.262C211.781 263.663 210.962 263.326 210.108 263.326H197.232Z" fill="#F9A826"/>
<path d="M213.328 257.123H64.6882V257.965H213.328V257.123Z" fill="#E6E6E6"/>
<path d="M33.6183 264.39C43.9731 264.39 52.3674 256.05 52.3674 245.763C52.3674 235.476 43.9731 227.137 33.6183 227.137C23.2634 227.137 14.8691 235.476 14.8691 245.763C14.8691 256.05 23.2634 264.39 33.6183 264.39Z" fill="#F9A826"/>
<path d="M64.9234 252.424L64.4538 251.724L79.8994 241.494L90.4907 246.545L105.726 236.873L136.031 249.715L160.165 237.937L183.597 247.379L213.044 235.627L213.606 236.258L183.769 248.355L160.199 238.862L136.056 250.643L105.805 237.823L90.5506 247.506L79.9685 242.46L64.9234 252.424Z" fill="#3F3D56"/>
<path d="M67.441 263.765C66.7187 263.777 66.0299 264.07 65.5232 264.582C65.0165 265.093 64.7325 265.782 64.7325 266.5C64.7325 267.218 65.0165 267.906 65.5232 268.418C66.0299 268.929 66.7187 269.223 67.441 269.234H96.2371C96.9671 269.246 97.6719 268.969 98.1965 268.465C98.7211 267.96 99.0225 267.27 99.0344 266.544C99.0462 265.819 98.7677 265.119 98.2599 264.598C97.7521 264.077 97.0568 263.777 96.3268 263.765C96.2969 263.765 96.267 263.765 96.2371 263.765H67.441Z" fill="#E6E6E6"/>
<path d="M26.0765 245.995C26.1809 246.099 26.3049 246.181 26.4413 246.237C26.5778 246.293 26.724 246.322 26.8716 246.322C27.0193 246.322 27.1655 246.293 27.3019 246.237C27.4384 246.181 27.5623 246.099 27.6667 245.995L32.4938 241.2V253.025C32.4934 253.171 32.5222 253.317 32.5786 253.453C32.6349 253.589 32.7177 253.712 32.8221 253.816C32.9266 253.92 33.0507 254.003 33.1873 254.059C33.3239 254.115 33.4703 254.144 33.6182 254.144C33.7661 254.144 33.9126 254.115 34.0492 254.059C34.1858 254.003 34.3099 253.92 34.4143 253.816C34.5188 253.712 34.6016 253.589 34.6579 253.453C34.7142 253.317 34.743 253.171 34.7427 253.025V241.2L39.5697 245.995C39.674 246.099 39.798 246.182 39.9345 246.238C40.071 246.294 40.2174 246.324 40.3652 246.324C40.5131 246.324 40.6595 246.295 40.7961 246.239C40.9328 246.183 41.0569 246.1 41.1614 245.997C41.266 245.893 41.3489 245.769 41.4054 245.634C41.4619 245.498 41.4909 245.352 41.4908 245.206C41.4906 245.059 41.4613 244.913 41.4046 244.778C41.3478 244.642 41.2647 244.519 41.1599 244.415L34.4133 237.713C34.2024 237.503 33.9164 237.386 33.6182 237.386C33.32 237.386 33.034 237.503 32.8231 237.713L26.0765 244.415C25.8657 244.625 25.7472 244.909 25.7472 245.205C25.7472 245.501 25.8657 245.786 26.0765 245.995Z" fill="white"/>
</g>
<defs>
<clipPath id="clip0">
<rect width="526" height="501.724" fill="white"/>
</clipPath>
</defs>
</svg>
