<svg width="684" height="541" viewBox="0 0 684 541" fill="none" xmlns="http://www.w3.org/2000/svg">
<g clip-path="url(#clip0)">
<path opacity="0.1" d="M636.434 364.677C609.7 384.555 607.397 423.598 611.991 456.62C613.53 467.672 615.465 479.45 610.8 489.583C605.094 501.976 590.938 508.321 577.409 510.05C552.753 513.197 526.821 503.802 509.896 485.582C495.268 469.835 487.504 448.591 472.436 433.265C447.203 407.618 407.304 403.856 371.506 407.074C346.176 409.347 318 413.601 297.549 398.469C283.16 387.818 276.198 369.526 274.516 351.695C273.714 343.083 273.869 334.051 269.987 326.339C267.665 321.755 264.041 317.961 260.198 314.548C225.106 283.398 170.96 280.232 137.633 247.21C115.125 224.904 105.808 191.837 106.319 160.143C106.83 128.448 116.147 97.5955 126.376 67.5522C133.628 46.224 142.356 23.7174 160.757 10.7418C180.173 -2.97843 207.113 -2.73886 228.93 6.81802C250.746 16.3749 268.098 33.9736 282.39 53.0355C300.253 76.863 315.289 104.575 341.169 119.293C358.825 129.348 379.444 132.074 399.236 136.471C432.316 143.807 464.064 156.122 495.527 168.715C525.65 180.765 555.897 193.242 582.773 211.449C601.794 224.315 615.07 241.881 632.403 256.359C643.699 265.793 657.325 271.251 667.495 282.116C680.021 295.499 689.435 315.416 680.435 333.267C671.895 350.225 650.616 354.123 636.434 364.677Z" fill="#F9A826"/>
<path d="M521.671 113.407H342.217V119.202H521.671V113.407Z" fill="#EBECF0"/>
<path d="M521.671 119.202H342.217V214.57H521.671V119.202Z" fill="#F8F9FA"/>
<path opacity="0.5" d="M520.468 148.261C517.699 148.76 515.292 150.139 512.833 151.389C509.599 153.033 507.056 153.448 503.504 152.431C501.291 151.784 498.794 151.227 496.639 152.373C493.922 153.817 493.612 157.676 489.645 156.458C488.274 156.038 487.705 158.187 489.057 158.608C490.21 158.987 491.449 159.017 492.618 158.693C493.788 158.369 494.836 157.707 495.63 156.789C496.833 155.371 497.338 153.985 499.512 153.933C501.201 153.894 502.792 154.581 504.403 154.995C510.802 156.562 515.13 151.479 521.057 150.411C522.467 150.152 521.865 148.009 520.468 148.261Z" fill="#F9A826"/>
<path d="M489.516 156.666C483.396 156.018 477.223 155.429 471.077 156.225C465.513 156.95 460.725 159.152 455.84 161.839C450.956 164.526 446.194 167.207 440.559 166.98C434.923 166.753 429.812 164.39 424.384 163.529C419.163 162.726 415.054 163.892 410.797 166.935C408.293 168.722 405.861 170.017 402.736 170.276C399.98 170.502 397.211 170.185 394.448 170.153C389.773 170.008 385.184 171.438 381.418 174.212C377.827 176.802 374.728 180.04 370.943 182.338C366.097 185.284 361.51 184.715 356.793 181.82C352.53 179.23 348.615 175.844 343.388 175.617C341.958 175.553 341.958 177.787 343.388 177.845C348.331 178.058 352.129 181.659 356.185 184.061C359.789 186.191 363.794 187.369 367.928 186.152C376.268 183.692 380.919 174.614 389.524 172.749C395.153 171.532 401.054 173.584 406.624 171.791C409.07 171.007 411.011 169.44 413.094 168.01C415.322 166.371 418.003 165.466 420.767 165.42C426.267 165.42 431.475 167.796 436.832 168.741C441.741 169.615 446.8 168.912 451.286 166.734C456.986 164.112 462.071 160.356 468.288 158.964C475.256 157.384 482.522 158.161 489.555 158.886C490.959 159.042 490.946 156.815 489.516 156.666Z" fill="#F9A826"/>
<path d="M489.613 161.088C492.071 161.088 494.064 159.093 494.064 156.633C494.064 154.173 492.071 152.178 489.613 152.178C487.155 152.178 485.162 154.173 485.162 156.633C485.162 159.093 487.155 161.088 489.613 161.088Z" fill="#F9A826"/>
<path d="M346.027 117.415C346.764 117.415 347.36 116.818 347.36 116.081C347.36 115.345 346.764 114.747 346.027 114.747C345.291 114.747 344.695 115.345 344.695 116.081C344.695 116.818 345.291 117.415 346.027 117.415Z" fill="#F8F9FA"/>
<path d="M349.586 117.415C350.322 117.415 350.919 116.818 350.919 116.081C350.919 115.345 350.322 114.747 349.586 114.747C348.85 114.747 348.253 115.345 348.253 116.081C348.253 116.818 348.85 117.415 349.586 117.415Z" fill="#F8F9FA"/>
<path d="M353.151 117.415C353.887 117.415 354.484 116.818 354.484 116.081C354.484 115.345 353.887 114.747 353.151 114.747C352.415 114.747 351.818 115.345 351.818 116.081C351.818 116.818 352.415 117.415 353.151 117.415Z" fill="#F8F9FA"/>
<path d="M4.60655 365.622C4.60655 365.622 -27.4645 415.763 77.6707 416.625C77.6707 416.625 79.217 372.997 44.8491 355.023C38.1663 351.512 30.429 350.576 23.1029 352.393C15.7768 354.209 9.37077 358.651 5.09826 364.878L4.60655 365.622Z" fill="#F9A826"/>
<path d="M4.84595 364.78C4.84595 364.78 58.6946 375.399 77.6707 416.625" stroke="#535461" stroke-miterlimit="10"/>
<path d="M82.3678 409.878C82.3678 409.878 47.7928 365.162 50.9501 321.082C52.2441 302.583 47.9028 284.104 37.8745 268.499C33.1028 261.111 27.6648 254.175 21.6287 247.78" stroke="#535461" stroke-width="2" stroke-miterlimit="10"/>
<path d="M23.4403 219.996C25.8536 226.186 21.6546 248.518 21.6546 248.518C21.6546 248.518 3.45493 234.927 1.04167 228.737C0.405364 227.253 0.0738749 225.657 0.0669445 224.042C0.060014 222.427 0.377782 220.828 1.00133 219.338C1.62488 217.849 2.54146 216.501 3.69652 215.373C4.85157 214.246 6.22147 213.363 7.72468 212.776C9.2279 212.189 10.8337 211.911 12.4464 211.959C14.0592 212.006 15.646 212.377 17.1123 213.051C18.5786 213.725 19.8945 214.687 20.9817 215.88C22.0688 217.073 22.9049 218.473 23.4403 219.996Z" fill="#F9A826"/>
<path d="M55.3367 247.048C54.0039 253.562 38.3468 270.021 38.3468 270.021C38.3468 270.021 30.4407 248.719 31.7735 242.179C32.0566 240.598 32.653 239.09 33.5275 237.743C34.4019 236.397 35.5369 235.239 36.8654 234.338C38.1939 233.437 39.6891 232.811 41.2629 232.498C42.8368 232.184 44.4575 232.189 46.0295 232.512C47.6015 232.834 49.0931 233.469 50.4164 234.377C51.7397 235.286 52.8679 236.45 53.7346 237.802C54.6014 239.153 55.189 240.665 55.4631 242.247C55.7371 243.83 55.6919 245.451 55.3302 247.016L55.3367 247.048Z" fill="#F9A826"/>
<path d="M77.386 305.969C72.9477 310.916 51.1378 317.216 51.1378 317.216C51.1378 317.216 55.0585 294.833 59.4903 289.886C61.6345 287.56 64.6074 286.173 67.7657 286.025C70.924 285.876 74.0137 286.978 76.3661 289.093C78.7186 291.207 80.1445 294.163 80.3354 297.322C80.5262 300.48 79.4667 303.587 77.386 305.969Z" fill="#F9A826"/>
<path d="M84.037 354.317C80.498 359.944 60.0597 369.857 60.0597 369.857C60.0597 369.857 60.1438 347.136 63.6828 341.51C64.5072 340.137 65.5971 338.943 66.8884 337.997C68.1798 337.052 69.6468 336.373 71.2034 336.002C72.7601 335.631 74.3751 335.574 75.9538 335.836C77.5326 336.097 79.0434 336.671 80.3977 337.524C81.752 338.377 82.9227 339.492 83.841 340.803C84.7593 342.115 85.4069 343.597 85.7458 345.162C86.0847 346.727 86.1082 348.344 85.8148 349.918C85.5213 351.493 84.9169 352.992 84.037 354.33V354.317Z" fill="#F9A826"/>
<path d="M15.2753 280.407C21.3958 282.996 43.8139 279.383 43.8139 279.383C43.8139 279.383 30.7577 260.788 24.6372 258.198C23.1801 257.583 21.6162 257.261 20.0347 257.25C18.4533 257.24 16.8853 257.542 15.4203 258.138C13.9553 258.734 12.6219 259.613 11.4964 260.725C10.3709 261.837 9.47518 263.159 8.86047 264.618C8.24576 266.076 7.92407 267.641 7.91377 269.224C7.90347 270.806 8.20476 272.375 8.80043 273.842C9.39611 275.308 10.2745 276.642 11.3855 277.769C12.4964 278.895 13.8182 279.791 15.2753 280.407Z" fill="#F9A826"/>
<path d="M23.7897 336.848C30.4019 337.495 50.7107 327.323 50.7107 327.323C50.7107 327.323 32.6792 313.519 26.067 312.884C24.4727 312.69 22.8555 312.817 21.311 313.258C19.7666 313.7 18.326 314.446 17.0745 315.453C15.8229 316.461 14.7856 317.709 14.0238 319.124C13.262 320.539 12.7912 322.093 12.6391 323.693C12.487 325.293 12.6567 326.907 13.1381 328.441C13.6196 329.974 14.4031 331.396 15.4424 332.621C16.4817 333.847 17.7558 334.852 19.1894 335.577C20.6231 336.301 22.1873 336.731 23.7897 336.841V336.848Z" fill="#F9A826"/>
<path d="M39.5696 390.563C45.9813 392.305 67.7135 385.727 67.7135 385.727C67.7135 385.727 52.27 369.067 45.8583 367.331C44.3235 366.884 42.7148 366.747 41.1265 366.929C39.5381 367.111 38.0019 367.607 36.6077 368.39C35.2135 369.173 33.9892 370.227 33.0065 371.489C32.0238 372.751 31.3023 374.196 30.8843 375.74C30.4662 377.284 30.36 378.897 30.5719 380.482C30.7837 382.068 31.3094 383.596 32.118 384.976C32.9267 386.356 34.0022 387.561 35.2817 388.521C36.5612 389.48 38.0189 390.174 39.5696 390.563Z" fill="#F9A826"/>
<path opacity="0.25" d="M23.4403 219.996C25.8536 226.186 21.6546 248.518 21.6546 248.518C21.6546 248.518 3.45493 234.927 1.04167 228.737C0.405364 227.253 0.0738749 225.657 0.0669445 224.042C0.060014 222.427 0.377782 220.828 1.00133 219.338C1.62488 217.849 2.54146 216.501 3.69652 215.373C4.85157 214.246 6.22147 213.363 7.72468 212.776C9.2279 212.189 10.8337 211.911 12.4464 211.959C14.0592 212.006 15.646 212.377 17.1123 213.051C18.5786 213.725 19.8945 214.687 20.9817 215.88C22.0688 217.073 22.9049 218.473 23.4403 219.996Z" fill="black"/>
<path opacity="0.25" d="M55.3367 247.048C54.0039 253.562 38.3468 270.021 38.3468 270.021C38.3468 270.021 30.4407 248.719 31.7735 242.179C32.0566 240.598 32.653 239.09 33.5275 237.743C34.4019 236.397 35.5369 235.239 36.8654 234.338C38.1939 233.437 39.6891 232.811 41.2629 232.498C42.8368 232.184 44.4575 232.189 46.0295 232.512C47.6015 232.834 49.0931 233.469 50.4164 234.377C51.7397 235.286 52.8679 236.45 53.7346 237.802C54.6014 239.153 55.189 240.665 55.4631 242.247C55.7371 243.83 55.6919 245.451 55.3302 247.016L55.3367 247.048Z" fill="black"/>
<path opacity="0.25" d="M77.386 305.969C72.9477 310.916 51.1378 317.216 51.1378 317.216C51.1378 317.216 55.0585 294.833 59.4903 289.886C61.6345 287.56 64.6074 286.173 67.7657 286.025C70.924 285.876 74.0137 286.978 76.3661 289.093C78.7186 291.207 80.1445 294.163 80.3354 297.322C80.5262 300.48 79.4667 303.587 77.386 305.969Z" fill="black"/>
<path opacity="0.25" d="M84.037 354.317C80.498 359.944 60.0597 369.857 60.0597 369.857C60.0597 369.857 60.1438 347.136 63.6828 341.51C64.5072 340.137 65.5971 338.943 66.8884 337.997C68.1798 337.052 69.6468 336.373 71.2034 336.002C72.7601 335.631 74.3751 335.574 75.9538 335.836C77.5326 336.097 79.0434 336.671 80.3977 337.524C81.752 338.377 82.9227 339.492 83.841 340.803C84.7593 342.115 85.4069 343.597 85.7458 345.162C86.0847 346.727 86.1082 348.344 85.8148 349.918C85.5213 351.493 84.9169 352.992 84.037 354.33V354.317Z" fill="black"/>
<path opacity="0.25" d="M15.2753 280.407C21.3958 282.996 43.8139 279.383 43.8139 279.383C43.8139 279.383 30.7577 260.788 24.6372 258.198C23.1801 257.583 21.6162 257.261 20.0347 257.25C18.4533 257.24 16.8853 257.542 15.4203 258.138C13.9553 258.734 12.6219 259.613 11.4964 260.725C10.3709 261.837 9.47518 263.159 8.86047 264.618C8.24576 266.076 7.92407 267.641 7.91377 269.224C7.90347 270.806 8.20476 272.375 8.80043 273.842C9.39611 275.308 10.2745 276.642 11.3855 277.769C12.4964 278.895 13.8182 279.791 15.2753 280.407Z" fill="black"/>
<path opacity="0.25" d="M23.7897 336.848C30.4019 337.495 50.7107 327.323 50.7107 327.323C50.7107 327.323 32.6792 313.519 26.067 312.884C24.4727 312.69 22.8555 312.817 21.311 313.258C19.7666 313.7 18.326 314.446 17.0745 315.453C15.8229 316.461 14.7856 317.709 14.0238 319.124C13.262 320.539 12.7912 322.093 12.6391 323.693C12.487 325.293 12.6567 326.907 13.1381 328.441C13.6196 329.974 14.4031 331.396 15.4424 332.621C16.4817 333.847 17.7558 334.852 19.1894 335.577C20.6231 336.301 22.1873 336.731 23.7897 336.841V336.848Z" fill="black"/>
<path opacity="0.25" d="M39.5696 390.563C45.9813 392.305 67.7135 385.727 67.7135 385.727C67.7135 385.727 52.27 369.067 45.8583 367.331C44.3235 366.884 42.7148 366.747 41.1265 366.929C39.5381 367.111 38.0019 367.607 36.6077 368.39C35.2135 369.173 33.9892 370.227 33.0065 371.489C32.0238 372.751 31.3023 374.196 30.8843 375.74C30.4662 377.284 30.36 378.897 30.5719 380.482C30.7837 382.068 31.3094 383.596 32.118 384.976C32.9267 386.356 34.0022 387.561 35.2817 388.521C36.5612 389.48 38.0189 390.174 39.5696 390.563Z" fill="black"/>
<path opacity="0.1" d="M299.878 324.028C287.585 323.756 274.38 324.371 264.611 329.207C246.495 338.156 248.934 356.305 237.12 368.898C227.144 379.53 208.077 385.053 189.586 388.575C159.463 394.319 127.87 396.468 97.9536 402.639C80.3168 406.278 62.8094 411.568 50.7237 420.619C38.638 429.671 33.2162 443.171 41.3877 453.881C48.9445 463.781 65.5914 469.077 80.7503 474.205C95.9092 479.333 111.967 486.061 116.186 496.751C118.534 502.701 116.787 509.118 119.531 514.99C124.939 526.58 145.197 532.052 163.396 535.011C177.934 537.374 192.711 539.116 207.605 540.191C219.503 541.065 231.673 541.524 243.351 539.822C253.463 538.345 262.825 535.289 272.523 532.939C334.142 517.924 405.013 530.912 467.861 518.196C479.3 515.897 490.551 512.66 499.221 507.363C505.691 503.426 510.478 498.506 514.509 493.403C524.77 480.454 530.393 465.931 530.826 451.369C531.085 442.64 529.532 433.822 531.919 425.223C534.423 416.275 541.107 408.045 544.665 399.246C551.135 383.253 546.606 365.577 532.521 351.74C527.494 346.64 521.33 342.806 514.535 340.551C508.841 338.726 502.475 338.026 496.206 337.314C478.737 335.417 461.042 333.513 443.418 334.582C430.88 335.346 418.606 337.605 406.029 338.013C388.379 338.59 374.553 334.517 358.553 330.69C340.146 326.326 319.436 324.455 299.878 324.028Z" fill="#F9A826"/>
<path d="M77.7289 191.662V364.845L307.978 320.084L303.579 187.259L77.7289 191.662Z" fill="#DBACA2"/>
<path d="M510.543 395.853V453.091L267.095 524.276L264.611 522.987L72.0484 423.002V186.34L310.359 178.635L311.828 309.99L302.291 312.93L298.623 190.069L88.9088 197.347L87.4466 375.302L270.026 455.292L270.168 455.26L510.543 395.853Z" fill="#E8C2B8"/>
<path opacity="0.1" d="M510.543 395.853V453.091L267.095 524.276L264.611 522.987L270.168 455.26L510.543 395.853Z" fill="black"/>
<path d="M217.051 312.742C217.051 312.742 99.1829 324.513 87.7378 341.562C76.2926 358.61 87.6407 379.524 87.6407 379.524L269.858 458.776L516.968 394.934C516.968 394.934 510.368 350.167 489.84 345.032C469.311 339.897 305.772 304.674 305.772 304.674C305.772 304.674 239.779 300.634 217.051 312.742Z" fill="#EBECF0"/>
<path d="M87.6278 341.723L273.513 405.935C273.513 405.935 471.782 345.77 499.868 351.436C499.868 351.436 361.173 301.754 305.772 303.917C261.622 305.639 215.395 312.891 215.395 312.891C215.395 312.891 92.7648 325.219 87.6278 341.723Z" fill="#F8F9FA"/>
<path d="M373.628 383.033L373.673 382.968V382.929L373.706 382.865V382.819V382.755V382.709V382.638V382.593V382.508V382.47C373.706 382.431 373.706 382.392 373.706 382.353C373.706 382.308 373.706 382.262 373.706 382.217C373.706 382.172 373.706 382.217 373.706 382.172C373.706 382.126 373.706 382.107 373.706 382.075V382.016V381.919V381.855V381.757V381.693V381.589V381.524V381.414V381.356L373.654 381.194L373.589 381.013V380.955L373.537 380.825V380.754L373.486 380.631L373.453 380.553L373.402 380.43L373.363 380.346L373.304 380.223L373.266 380.145L373.194 380.009L373.156 379.938L373.059 379.75L372.942 379.53L372.903 379.459L372.819 379.303L372.774 379.219L372.69 379.077L372.638 378.986L372.554 378.844L372.412 378.63L372.321 378.488L372.263 378.397L372.166 378.242L372.114 378.157L371.985 377.95V377.911L371.823 377.665L371.771 377.594L371.655 377.419L371.59 377.329L371.48 377.173L371.415 377.076L371.305 376.921L371.234 376.817L371.118 376.688L371.046 376.59L370.924 376.422L370.859 376.338L370.697 376.118V376.085L370.509 375.826L370.445 375.736L370.322 375.567L370.238 375.457L370.121 375.302L370.037 375.192L369.921 375.037L369.837 374.933L369.714 374.771L369.63 374.667L369.5 374.499L369.423 374.402L369.267 374.208L369.215 374.143C368.633 373.405 368.031 372.667 367.43 371.954C365.733 369.936 363.655 368.272 361.314 367.057C358.974 365.843 356.418 365.102 353.791 364.877C353.254 364.832 352.691 364.774 352.122 364.703H351.883L351.462 364.644H351.262L350.615 364.554L350 364.457L349.787 364.418L349.353 364.34L349.094 364.288L348.7 364.211L348.421 364.152L348.046 364.068L347.761 364.003L347.386 363.913L347.095 363.841L346.726 363.744L346.435 363.667L346.066 363.563C344.125 360.675 341.175 358.105 338.303 357.606C337.511 357.483 336.703 357.525 335.928 357.729L335.792 357.58L335.598 357.36L335.339 357.03L335.171 356.81L334.899 356.428L334.763 356.24C334.63 356.046 334.503 355.847 334.382 355.644C334 355.474 333.601 355.346 333.191 355.262C338.916 354.394 344.562 353.063 350.071 351.28C350.338 351.179 350.592 351.047 350.828 350.885L350.945 350.846C355.739 349.098 361.626 332.069 357.486 329.687C353.345 327.304 347.024 307.672 343.317 297.617C339.609 287.561 328.928 286.493 328.928 286.493C328.928 286.493 313.452 274.495 306.477 275.803C299.503 277.111 298.409 266.641 297.756 266.207C297.68 266.144 297.616 266.067 297.568 265.981C295.886 263.345 282.513 259.829 275.299 258.094C268.247 252.979 259.836 249.01 253.036 247.372C250.765 246.757 248.382 246.676 246.074 247.137C243.766 247.597 241.596 248.586 239.734 250.027C225.449 250.752 223.171 261.552 223.171 261.552C223.122 263.026 223.378 264.494 223.922 265.864C223.15 265.874 222.378 265.833 221.612 265.741C223.268 263.002 223.32 259.48 224.556 256.469C226.995 250.512 233.724 247.437 240.084 246.634C243.791 246.168 247.847 246.168 250.772 243.843C252.277 242.639 253.305 240.938 253.67 239.045C253.789 238.636 253.752 238.198 253.567 237.815C253.386 237.566 253.142 237.37 252.862 237.245C249.031 235.199 244.418 235.73 240.071 235.633C233.006 235.478 226.122 233.542 219.289 231.748C216.397 230.99 213.272 230.259 210.477 231.334C207.838 232.344 206.039 234.752 203.924 236.624C195.254 244.277 180.858 243.17 173.146 251.794C171.361 253.795 170.021 256.508 170.675 259.111C170.94 260.173 171.529 261.15 171.717 262.232C172.092 264.368 170.875 266.414 169.847 268.324C168.818 270.235 167.906 272.553 168.876 274.495C170.345 277.46 174.829 277.24 177.158 279.591C178.238 280.685 178.762 282.252 179.888 283.294C181.693 284.958 184.469 284.829 186.914 284.589C187.878 284.499 189.321 284.233 189.852 283.385C191.743 285.166 194.022 286.482 196.509 287.232C198.996 287.981 201.622 288.142 204.182 287.703C206.741 287.264 209.164 286.236 211.259 284.7C213.354 283.164 215.064 281.162 216.255 278.853C221.525 278.496 226.763 279.914 231.136 282.88C231.795 284.823 233.004 286.533 234.617 287.801C236.143 288.999 237.961 290.468 239.792 292.042C235.154 293.266 231.032 294.049 231.032 294.049C231.032 294.049 212.723 299.941 212.723 303.865C212.788 304.576 213.008 305.263 213.37 305.879C212.906 306.854 212.644 307.914 212.6 308.993C207.547 308.138 203.503 306.85 201.413 304.953C201.413 304.953 200.818 304.791 199.899 304.61C198.67 303.036 195.06 298.666 192.912 298.84C191.482 298.957 190.971 302.285 190.79 305.264C190.602 305.426 190.436 305.614 190.298 305.82C188.118 309.09 192.045 315.636 194.659 316.73C197.273 317.825 211.661 317.378 221.47 324.584C225.818 327.777 233.29 328.392 240.232 328.094C233.251 333.028 223.475 340.61 222.117 345.31C221.386 347.803 220.525 350.898 220.577 354.077C216.307 359.73 209.843 371.663 225.824 377.387C238.997 382.094 274.71 381.492 300.156 380.339C311.996 382.431 321.772 384.535 325.874 386.549C325.874 386.549 335.682 387.844 339.609 390.259C343.537 392.674 350.725 392.007 350.725 392.007C350.725 392.007 364.674 394.409 367.727 397.459C370.781 400.509 376.009 392.221 369.474 388.297C366.925 386.769 363.127 384.25 359.446 381.492C364.175 382.049 368.349 382.657 371.001 383.279L371.266 383.337H371.351H371.519H371.616H371.758H371.849H371.985H372.632H372.8H372.852H372.955H373.013H373.097H373.149H373.227H373.279L373.35 383.305H373.395L373.46 383.26H373.492L373.576 383.188L373.628 383.033ZM313.413 362.119C313.413 362.119 311.576 361.698 308.832 361.051L303.385 358.849C303.385 358.849 312.682 355.923 321.293 352.2C323.758 353.281 325.926 354.142 326.469 354.926C326.703 355.185 327.022 355.353 327.368 355.398C324.134 356.201 319.98 358.267 315.108 363.032C314.517 362.779 313.95 362.473 313.413 362.119ZM247.589 309.543L252.965 307.044C254.136 308.041 255.391 308.987 256.621 309.906C253.67 310.081 249.704 310.275 245.221 310.398C246.592 309.938 247.589 309.543 247.589 309.543Z" fill="url(#paint0_linear)"/>
<path d="M201.775 305.374C201.775 305.374 197.078 298.989 194.523 299.184C191.967 299.378 192.388 310.074 192.388 310.074L201.775 305.374Z" fill="#FFD5D8"/>
<path d="M262.165 309.647C262.165 309.647 212.231 313.707 202.843 305.16C202.843 305.16 194.096 302.81 191.961 306.015C189.826 309.22 193.669 315.623 196.231 316.692C198.793 317.76 212.878 317.339 222.479 324.377C232.08 331.415 257.261 325.672 257.261 325.672L267.716 321.612L262.165 309.647Z" fill="#FF7C5E"/>
<path opacity="0.05" d="M262.165 309.647C262.165 309.647 212.231 313.707 202.843 305.16C202.843 305.16 194.096 302.81 191.961 306.015C189.826 309.22 193.669 315.623 196.231 316.692C198.793 317.76 212.878 317.339 222.479 324.377C232.08 331.415 257.261 325.672 257.261 325.672L267.716 321.612L262.165 309.647Z" fill="black"/>
<path d="M333.651 333.565C333.651 333.565 322.982 325.879 301.004 335.508C279.026 345.136 224.187 350.244 224.187 350.244C224.187 350.244 205.839 368.607 226.775 376.085C247.711 383.564 326.637 377.38 326.637 377.38C326.637 377.38 358.857 379.517 368.885 381.868C374.954 383.292 370.179 376.416 365.424 370.77C363.764 368.792 361.729 367.161 359.438 365.972C357.146 364.783 354.642 364.059 352.07 363.841C345.769 363.304 337.028 361.323 333.03 354.744C333.03 354.744 325.35 350.898 313.827 362.43L302.712 357.911C302.712 357.911 333.224 348.302 334.291 341.892C335.359 335.482 333.651 333.565 333.651 333.565Z" fill="#FFD5D8"/>
<path opacity="0.05" d="M333.651 333.565C333.651 333.565 322.982 325.879 301.004 335.508C279.026 345.136 224.187 350.244 224.187 350.244C224.187 350.244 205.839 368.607 226.775 376.085C247.712 383.564 326.637 377.38 326.637 377.38C326.637 377.38 358.857 379.517 368.886 381.867C374.204 383.111 371.182 377.983 367.178 372.919C365.18 370.376 362.7 368.253 359.88 366.673C357.059 365.093 353.955 364.086 350.744 363.712C344.598 363.013 336.756 360.87 333.036 354.744C333.036 354.744 325.356 350.898 313.834 362.43L302.712 357.911C302.712 357.911 333.224 348.302 334.291 341.892C335.359 335.482 333.651 333.565 333.651 333.565Z" fill="black"/>
<path d="M333.864 303.243C333.864 303.243 320.42 281.876 288.627 300.466L247.867 323.128C247.867 323.128 225.222 337.437 223.113 344.695C221.004 351.954 217.775 364.34 239.974 369.041C262.172 373.742 313.808 379.718 324.69 385.06C324.69 385.06 334.291 386.355 338.134 388.692C341.977 391.029 349.017 390.401 349.017 390.401C349.017 390.401 362.674 392.752 365.663 395.743C368.653 398.734 373.77 390.615 367.372 386.775C360.973 382.936 346.461 372.68 346.668 368.646C346.875 364.612 341.757 357.483 336.827 356.616C331.897 355.748 325.518 363.019 325.518 363.019C325.518 363.019 317.411 364.314 312.501 361.077C312.501 361.077 287.32 355.308 284.758 353.605C282.196 351.902 264.701 345.278 264.701 345.278C264.701 345.278 306.108 344.851 318.259 333.746C318.259 333.746 322.956 330.328 326.793 331.396C326.825 331.428 345.814 324.17 333.864 303.243Z" fill="#FFD5D8"/>
<path d="M212.871 263.093C212.871 263.093 225.035 271.633 234.422 263.093C243.81 254.552 238.485 289.361 238.485 289.361C238.485 289.361 225.468 272.06 206.052 283.385L212.871 263.093Z" fill="#FFD5D8"/>
<path opacity="0.05" d="M212.871 263.093C212.871 263.093 225.035 271.633 234.422 263.093C243.81 254.552 238.485 289.361 238.485 289.361C238.485 289.361 225.468 272.06 206.052 283.385L212.871 263.093Z" fill="black"/>
<path d="M160.808 336.343C160.808 336.343 173.612 325.452 180.865 325.238C183.026 325.174 185.523 322.972 187.982 319.916C191.087 316.055 195.184 313.111 199.832 311.401C204.481 309.69 209.507 309.276 214.372 310.204C218.5 310.968 223.579 310.948 229.745 309.42C252.15 303.865 241.054 289.996 241.054 289.996L234.015 284.02C234.015 284.02 224.414 277.402 220.784 277.83C217.154 278.257 207.767 287.866 206.699 286.797C205.632 285.729 192.614 276.12 190.479 273.556C188.344 270.992 171.264 262.665 175.534 260.315C179.804 257.965 201.348 249.211 197.078 247.501C192.808 245.792 169.763 243.228 160.802 253.905C151.841 264.582 156.318 330.146 160.808 336.343Z" fill="#F8F9FA"/>
<path opacity="0.05" d="M160.808 336.343C160.808 336.343 173.612 325.452 180.865 325.238C183.026 325.174 185.523 322.972 187.982 319.916C191.087 316.055 195.184 313.111 199.832 311.401C204.481 309.69 209.507 309.276 214.372 310.204C218.5 310.968 223.579 310.948 229.745 309.42C252.15 303.865 241.054 289.996 241.054 289.996L234.015 284.02C234.015 284.02 224.414 277.402 220.784 277.83C217.154 278.257 207.767 287.866 206.699 286.797C205.632 285.729 192.614 276.12 190.479 273.556C188.344 270.992 171.264 262.665 175.534 260.315C179.804 257.965 201.348 249.211 197.078 247.501C192.808 245.792 169.763 243.228 160.802 253.905C151.841 264.582 156.318 330.146 160.808 336.343Z" fill="black"/>
<path d="M161.662 334.847C161.662 334.847 174.466 323.956 181.719 323.743C183.88 323.678 186.377 321.477 188.836 318.42C191.938 314.563 196.029 311.622 200.671 309.91C205.313 308.199 210.333 307.781 215.194 308.702C219.322 309.466 224.401 309.446 230.566 307.918C252.972 302.363 241.876 288.494 241.876 288.494L234.837 282.517C234.837 282.517 225.235 275.9 221.606 276.327C217.976 276.755 208.588 286.363 207.521 285.295C206.453 284.227 193.436 274.618 191.301 272.054C189.166 269.49 172.118 261.17 176.375 258.845C180.632 256.521 202.196 247.741 197.926 246.032C193.656 244.322 170.61 241.758 161.649 252.435C152.689 263.112 157.179 328.651 161.662 334.847Z" fill="#F8F9FA"/>
<path d="M224.181 262.665C224.181 262.665 227.597 246.433 252.564 252.843C277.531 259.253 289.908 273.129 289.908 273.129L267.263 283.592L239.521 274.197C239.521 274.197 223.974 274.385 224.181 262.665Z" fill="#FFD5D8"/>
<path opacity="0.05" d="M269.851 258.606C269.851 258.606 293.861 263.786 296.125 267.353C296.174 267.438 296.237 267.512 296.313 267.573C296.96 268.001 298.021 278.25 304.847 276.968C311.673 275.686 326.844 287.432 326.844 287.432C326.844 287.432 337.3 288.5 340.929 298.322C344.559 308.145 350.744 327.369 354.801 329.713C358.857 332.056 353.093 348.716 348.402 350.432C343.711 352.148 326.851 356.201 325.356 354.064C323.862 351.928 310.844 349.577 311.698 342.746C312.552 335.915 317.67 329.505 313.639 325.446C309.609 321.386 307.027 310.709 301.049 308.572C295.071 306.435 284.402 305.794 278.003 310.068C271.605 314.341 263.873 314.529 263.873 314.529C263.873 314.529 250.642 306.843 248.507 301.502C247.071 297.902 239.915 291.88 235.399 288.338C234.216 287.408 233.249 286.232 232.566 284.89C231.884 283.548 231.501 282.073 231.446 280.568C231.259 275.298 231.09 267.528 231.647 266.272C232.501 264.329 244.237 252.817 244.237 252.817L269.851 258.606Z" fill="black"/>
<path d="M270.705 258.198C270.705 258.198 294.715 263.378 296.979 266.945C297.028 267.03 297.091 267.105 297.167 267.165C297.814 267.593 298.875 277.842 305.701 276.56C312.527 275.278 327.698 287.024 327.698 287.024C327.698 287.024 338.154 288.092 341.783 297.915C345.413 307.737 351.598 326.961 355.655 329.305C359.711 331.649 353.947 348.308 349.256 350.024C344.565 351.74 327.705 355.793 326.21 353.657C324.716 351.52 311.698 349.169 312.552 342.339C313.406 335.508 318.524 329.097 314.493 325.038C310.463 320.978 307.881 310.301 301.903 308.164C295.925 306.028 285.256 305.387 278.857 309.66C272.459 313.933 264.028 314.678 264.028 314.678C264.028 314.678 251.548 306.455 249.413 301.12C247.977 297.52 240.821 291.498 236.305 287.956C235.122 287.026 234.155 285.85 233.472 284.508C232.789 283.166 232.407 281.691 232.352 280.186C232.164 274.916 231.996 267.146 232.553 265.89C233.407 263.947 245.143 252.435 245.143 252.435L270.705 258.198Z" fill="#FF7C5E"/>
<path d="M215.433 304.519C215.22 304.733 211.59 310.074 215.86 313.059C217.042 313.926 218.407 314.51 219.849 314.764C221.292 315.019 222.774 314.939 224.181 314.529L215.433 304.519Z" fill="#FFD5D8"/>
<path opacity="0.1" d="M235.898 257.965C235.898 257.965 241.662 246.433 254.013 249.424C266.364 252.416 284.312 263.306 288.582 274.197C292.852 285.088 272.407 298.342 272.407 298.342L248.08 309.66C248.08 309.66 240.614 312.651 238.479 311.602C236.344 310.553 226.102 319.709 226.102 319.709C226.102 319.709 214.579 308.605 214.579 304.758C214.579 300.912 232.507 295.104 232.507 295.104C232.507 295.104 253.858 291.045 253.631 286.991C253.631 286.991 257.261 282.718 255.339 281.436C253.418 280.154 232.824 274.068 232.824 274.068C232.824 274.068 232.08 260.529 235.898 257.965Z" fill="black"/>
<path d="M235.251 257.324C235.251 257.324 241.015 245.792 253.366 248.783C265.717 251.775 283.665 262.665 287.935 273.556C292.205 284.447 271.766 297.694 271.766 297.694L247.44 309.012C247.44 309.012 239.974 312.004 237.839 310.955C235.703 309.906 225.462 319.061 225.462 319.061C225.462 319.061 213.939 307.957 213.939 304.111C213.939 300.265 231.867 294.457 231.867 294.457C231.867 294.457 253.217 290.397 252.991 286.344C252.991 286.344 256.62 282.071 254.699 280.789C252.777 279.507 232.184 273.42 232.184 273.42C232.184 273.42 231.44 259.888 235.251 257.324Z" fill="#FF7C5E"/>
<path opacity="0.1" d="M207.967 281.242C211.428 279.132 215.325 277.841 219.361 277.467C220.532 275.207 217.458 272.747 217.458 270.027C217.458 267.748 216.591 266.881 215.75 264.899C212.697 263.792 214.793 260.95 214.793 260.95L207.967 281.242Z" fill="black"/>
<path d="M202.843 288.507C211.919 288.507 219.277 281.143 219.277 272.06C219.277 262.977 211.919 255.614 202.843 255.614C193.767 255.614 186.41 262.977 186.41 272.06C186.41 281.143 193.767 288.507 202.843 288.507Z" fill="#FFD5D8"/>
<path d="M190.524 278.807C194.193 275.971 198.968 275.019 203.587 274.605C206.473 274.346 209.41 274.255 212.179 273.375C213.772 272.819 215.317 272.135 216.799 271.329C218.778 270.319 220.823 269.257 222.175 267.489C224.284 264.731 224.219 260.911 225.539 257.693C227.927 251.865 234.513 248.848 240.763 248.065C244.392 247.605 248.359 247.605 251.231 245.332C252.705 244.155 253.712 242.491 254.071 240.638C254.186 240.237 254.15 239.809 253.968 239.434C253.79 239.191 253.551 238.999 253.276 238.877C249.523 236.876 245.007 237.394 240.756 237.297C233.84 237.148 227.099 235.244 220.409 233.49C217.575 232.745 214.515 232.033 211.784 233.082C209.196 234.072 207.443 236.429 205.366 238.262C196.878 245.76 182.786 244.672 175.236 253.115C173.489 255.057 172.176 257.732 172.816 260.276C173.082 261.319 173.651 262.27 173.839 263.332C174.207 265.424 173.017 267.431 172.008 269.296C170.998 271.16 170.119 273.44 171.057 275.337C172.499 278.237 176.88 278.024 179.163 280.322C180.224 281.391 180.729 282.912 181.835 283.948C183.608 285.58 186.319 285.45 188.713 285.243C190.007 285.12 192.122 284.693 191.754 282.958C191.443 281.404 189.392 280.737 190.524 278.807Z" fill="#85596B"/>
<path d="M184.786 288.63C184.786 288.63 195.991 280.212 203.031 282.971C210.07 285.729 211.991 287.244 216.475 285.561C220.959 283.877 222.874 288.979 222.874 288.979L194.95 297.047L184.786 288.63Z" fill="#F8F9FA"/>
<path opacity="0.05" d="M169.666 303.347C169.666 303.347 174.79 290.106 180.975 287.542L169.666 303.347Z" fill="black"/>
<path opacity="0.05" d="M163.047 299.074C163.047 299.074 168.171 285.832 174.356 283.268L163.047 299.074Z" fill="black"/>
<path opacity="0.05" d="M282.972 302.279C282.972 302.279 301.088 293.525 313.271 294.379C325.453 295.234 327.569 287.548 327.569 287.548" fill="black"/>
<path d="M204.603 520.844C203.095 519.439 201.678 517.781 201.239 515.767C200.799 513.754 201.659 511.332 203.587 510.588C205.742 509.759 208.051 511.235 209.798 512.77C211.545 514.304 213.551 516.007 215.835 515.683C214.658 514.616 213.778 513.261 213.281 511.752C212.783 510.243 212.684 508.63 212.994 507.072C213.095 506.428 213.367 505.824 213.784 505.324C214.981 504.029 217.154 504.592 218.584 505.602C223.113 508.839 224.407 515.01 224.439 520.591C224.899 518.578 224.511 516.48 224.524 514.414C224.536 512.349 225.099 510.063 226.84 508.949C227.924 508.366 229.142 508.081 230.372 508.121C232.423 508.043 234.707 508.25 236.105 509.752C237.845 511.617 237.399 514.744 235.878 516.797C234.358 518.85 232.061 520.138 229.945 521.556C228.247 522.569 226.798 523.952 225.708 525.603C225.578 525.833 225.472 526.076 225.391 526.328H212.548C209.664 524.867 206.992 523.022 204.603 520.844Z" fill="#F9A826"/>
<path d="M501.265 463.12C500.265 462.304 499.536 461.202 499.176 459.961C498.904 458.705 499.441 457.202 500.638 456.723C501.977 456.212 503.413 457.138 504.52 458.083C505.626 459.028 506.849 460.097 508.272 459.896C507.54 459.232 506.993 458.39 506.684 457.452C506.374 456.513 506.313 455.51 506.506 454.541C506.568 454.141 506.738 453.765 506.998 453.453C507.742 452.657 509.094 453 509.987 453.628C512.821 455.623 513.61 459.456 513.629 462.946C513.914 461.696 513.674 460.388 513.681 459.106C513.687 457.824 514.037 456.4 515.124 455.713C515.798 455.349 516.557 455.171 517.323 455.195C518.617 455.15 520.015 455.279 520.888 456.212C521.969 457.371 521.691 459.313 520.746 460.589C519.801 461.864 518.372 462.667 517.058 463.548C516.002 464.179 515.102 465.039 514.425 466.067C514.346 466.209 514.281 466.358 514.231 466.513H506.202C504.411 465.61 502.751 464.469 501.265 463.12Z" fill="#F9A826"/>
</g>
<defs>
<linearGradient id="paint0_linear" x1="271.184" y1="398.119" x2="271.184" y2="230.79" gradientUnits="userSpaceOnUse">
<stop stop-color="#808080" stop-opacity="0.25"/>
<stop offset="0.54" stop-color="#808080" stop-opacity="0.12"/>
<stop offset="1" stop-color="#808080" stop-opacity="0.1"/>
</linearGradient>
<clipPath id="clip0">
<rect width="684" height="541" fill="white"/>
</clipPath>
</defs>
</svg>
