<svg width="286" height="234" viewBox="0 0 286 234" fill="none" xmlns="http://www.w3.org/2000/svg">
<g clip-path="url(#clip0)">
<path opacity="0.3" d="M269.57 74.3744C278.175 74.3744 285.151 67.3988 285.151 58.794C285.151 50.1892 278.175 43.2136 269.57 43.2136C260.966 43.2136 253.99 50.1892 253.99 58.794C253.99 67.3988 260.966 74.3744 269.57 74.3744Z" fill="#CCCCCC"/>
<path d="M269.57 67.613C274.441 67.613 278.389 63.6646 278.389 58.794C278.389 53.9233 274.441 49.9749 269.57 49.9749C264.7 49.9749 260.751 53.9233 260.751 58.794C260.751 63.6646 264.7 67.613 269.57 67.613Z" fill="#F9A826"/>
<path opacity="0.3" d="M259.281 31.1608C267.886 31.1608 274.862 24.1852 274.862 15.5804C274.862 6.97558 267.886 0 259.281 0C250.677 0 243.701 6.97558 243.701 15.5804C243.701 24.1852 250.677 31.1608 259.281 31.1608Z" fill="#CCCCCC"/>
<path d="M259.281 24.3995C264.152 24.3995 268.1 20.4511 268.1 15.5804C268.1 10.7098 264.152 6.76135 259.281 6.76135C254.411 6.76135 250.462 10.7098 250.462 15.5804C250.462 20.4511 254.411 24.3995 259.281 24.3995Z" fill="#F9A826"/>
<path opacity="0.3" d="M15.5804 89.9548C24.1852 89.9548 31.1608 82.9792 31.1608 74.3743C31.1608 65.7695 24.1852 58.7939 15.5804 58.7939C6.97558 58.7939 0 65.7695 0 74.3743C0 82.9792 6.97558 89.9548 15.5804 89.9548Z" fill="#CCCCCC"/>
<path d="M15.5804 83.1935C20.451 83.1935 24.3995 79.245 24.3995 74.3744C24.3995 69.5037 20.451 65.5553 15.5804 65.5553C10.7097 65.5553 6.76129 69.5037 6.76129 74.3744C6.76129 79.245 10.7097 83.1935 15.5804 83.1935Z" fill="#F9A826"/>
<path opacity="0.3" d="M29.397 211.07C38.0018 211.07 44.9774 204.095 44.9774 195.49C44.9774 186.885 38.0018 179.91 29.397 179.91C20.7922 179.91 13.8166 186.885 13.8166 195.49C13.8166 204.095 20.7922 211.07 29.397 211.07Z" fill="#CCCCCC"/>
<path d="M29.397 204.309C34.2676 204.309 38.2161 200.361 38.2161 195.49C38.2161 190.619 34.2676 186.671 29.397 186.671C24.5263 186.671 20.5779 190.619 20.5779 195.49C20.5779 200.361 24.5263 204.309 29.397 204.309Z" fill="#F9A826"/>
<path opacity="0.3" d="M50.5628 44.9773C59.1676 44.9773 66.1432 38.0018 66.1432 29.3969C66.1432 20.7921 59.1676 13.8165 50.5628 13.8165C41.958 13.8165 34.9824 20.7921 34.9824 29.3969C34.9824 38.0018 41.958 44.9773 50.5628 44.9773Z" fill="#CCCCCC"/>
<path d="M50.5628 38.2161C55.4335 38.2161 59.3819 34.2676 59.3819 29.397C59.3819 24.5263 55.4335 20.5779 50.5628 20.5779C45.6922 20.5779 41.7437 24.5263 41.7437 29.397C41.7437 34.2676 45.6922 38.2161 50.5628 38.2161Z" fill="#F9A826"/>
<path d="M255.166 126.701C255.166 179.128 217.564 222.773 167.857 232.139C167.663 232.177 167.466 232.213 167.269 232.248C164.179 232.815 161.044 233.245 157.862 233.538C157.665 233.559 157.471 233.577 157.274 233.591C154.175 233.862 151.04 233.998 147.867 234C147.67 234 147.476 234 147.279 233.997C144.11 233.982 140.974 233.829 137.872 233.538C137.675 233.524 137.481 233.503 137.284 233.483C134.106 233.174 130.97 232.726 127.877 232.139C127.68 232.104 127.483 232.066 127.289 232.027C77.8726 222.429 40.5678 178.922 40.5678 126.701C40.5678 67.4425 88.6084 19.402 147.867 19.402C207.125 19.402 255.166 67.4425 255.166 126.701Z" fill="#3F3D56"/>
<path d="M168.151 80.6947H167.563V167.857H168.151V80.6947Z" fill="#F9A826"/>
<path d="M168.151 43.3318H167.563V69.0458H168.151V43.3318Z" fill="#F9A826"/>
<path d="M127.877 40.6487H127.289V167.857H127.877V40.6487Z" fill="#F9A826"/>
<path d="M137.872 29.397H137.284V58.0463H137.872V29.397Z" fill="#F9A826"/>
<path d="M137.872 71.7286H137.284V158.931H137.872V71.7286Z" fill="#F9A826"/>
<path d="M137.872 172.487V233.538C137.675 233.524 137.481 233.503 137.284 233.483V172.487H137.872Z" fill="#F9A826"/>
<path d="M147.867 19.99H147.279V100.934H147.867V19.99Z" fill="#F9A826"/>
<path d="M147.867 112.155V234C147.67 234 147.476 234 147.279 233.997V112.155H147.867Z" fill="#F9A826"/>
<path d="M157.862 29.397H157.274V141.693H157.862V29.397Z" fill="#F9A826"/>
<path d="M157.862 153.746H157.274V216.707H157.862V153.746Z" fill="#F9A826"/>
<path d="M157.862 230.04V233.539C157.665 233.559 157.471 233.577 157.274 233.591V230.04H157.862Z" fill="#F9A826"/>
<path d="M167.857 183.143V232.139C167.663 232.177 167.466 232.213 167.269 232.248V183.143H167.857Z" fill="#F9A826"/>
<path d="M127.877 183.143V232.139C127.68 232.104 127.483 232.066 127.289 232.027V183.143H127.877Z" fill="#F9A826"/>
<path d="M117.882 52.0327H117.294V70.3793H117.882V52.0327Z" fill="#F9A826"/>
<path d="M117.882 84.1564H117.294V167.857H117.882V84.1564Z" fill="#F9A826"/>
<path d="M107.887 58.7939H107.299V167.857H107.887V58.7939Z" fill="#F9A826"/>
<path d="M97.892 67.613H97.304V103.156H97.892V67.613Z" fill="#F9A826"/>
<path d="M97.892 114.933H97.304V167.857H97.892V114.933Z" fill="#F9A826"/>
<path d="M87.897 77.0201H87.3091V136.266H87.897V77.0201Z" fill="#F9A826"/>
<path d="M87.897 147.279H87.3091V167.857H87.897V147.279Z" fill="#F9A826"/>
<path d="M77.902 85.8392H77.3141V105.711H77.902V85.8392Z" fill="#F9A826"/>
<path d="M77.902 118.711H77.3141V167.857H77.902V118.711Z" fill="#F9A826"/>
<path d="M67.907 90.5427H67.3191V167.857H67.907V90.5427Z" fill="#F9A826"/>
<path d="M57.9121 111.708H57.3241V137.265H57.9121V111.708Z" fill="#F9A826"/>
<path d="M57.9121 148.932H57.3241V167.857H57.9121V148.932Z" fill="#F9A826"/>
<path d="M173.857 52.0327H173.553V162.859H173.857V52.0327Z" fill="#F9A826"/>
<path d="M187.847 58.7939H187.259V76.2678H187.847V58.7939Z" fill="#F9A826"/>
<path d="M187.847 87.934H187.259V167.857H187.847V87.934Z" fill="#F9A826"/>
<path d="M197.842 75.5503H197.254V85.8392H197.842V75.5503Z" fill="#F9A826"/>
<path d="M197.842 97.3781H197.254V148.487H197.842V97.3781Z" fill="#F9A826"/>
<path d="M197.842 158.931H197.254V167.857H197.842V158.931Z" fill="#F9A826"/>
<path d="M207.837 77.0201H207.249V167.857H207.837V77.0201Z" fill="#F9A826"/>
<path d="M217.832 85.8392H217.244V114.933H217.832V85.8392Z" fill="#F9A826"/>
<path d="M217.832 125.932H217.244V167.857H217.832V125.932Z" fill="#F9A826"/>
<path d="M227.827 90.5427H227.239V167.857H227.827V90.5427Z" fill="#F9A826"/>
<path d="M127.583 183.437C127.001 183.437 126.433 183.265 125.95 182.942C125.466 182.619 125.089 182.16 124.867 181.622C124.644 181.085 124.586 180.494 124.7 179.924C124.813 179.354 125.093 178.83 125.504 178.419C125.915 178.008 126.439 177.728 127.009 177.614C127.58 177.501 128.171 177.559 128.708 177.782C129.245 178.004 129.704 178.381 130.027 178.864C130.35 179.348 130.523 179.916 130.523 180.497C130.522 181.277 130.212 182.024 129.661 182.575C129.109 183.126 128.362 183.436 127.583 183.437ZM127.583 178.146C127.118 178.146 126.663 178.284 126.276 178.542C125.89 178.8 125.588 179.168 125.41 179.597C125.232 180.027 125.186 180.5 125.276 180.956C125.367 181.412 125.591 181.831 125.92 182.16C126.249 182.489 126.668 182.713 127.124 182.804C127.58 182.895 128.053 182.848 128.483 182.67C128.913 182.492 129.28 182.191 129.538 181.804C129.797 181.417 129.935 180.963 129.935 180.497C129.934 179.874 129.686 179.276 129.245 178.835C128.804 178.394 128.206 178.146 127.583 178.146Z" fill="#F9A826"/>
<path d="M137.578 168.151C136.996 168.151 136.428 167.978 135.945 167.655C135.461 167.332 135.084 166.873 134.862 166.336C134.639 165.799 134.581 165.208 134.695 164.638C134.808 164.067 135.088 163.544 135.499 163.132C135.91 162.721 136.434 162.441 137.004 162.328C137.575 162.214 138.166 162.273 138.703 162.495C139.24 162.718 139.699 163.094 140.022 163.578C140.345 164.061 140.518 164.63 140.518 165.211C140.517 165.99 140.207 166.738 139.656 167.289C139.104 167.84 138.357 168.15 137.578 168.151ZM137.578 162.859C137.113 162.859 136.658 162.997 136.271 163.256C135.885 163.514 135.583 163.881 135.405 164.311C135.227 164.741 135.181 165.214 135.271 165.67C135.362 166.126 135.586 166.545 135.915 166.874C136.244 167.203 136.663 167.427 137.119 167.518C137.575 167.608 138.048 167.562 138.478 167.384C138.908 167.206 139.275 166.904 139.533 166.518C139.792 166.131 139.93 165.676 139.93 165.211C139.929 164.588 139.681 163.99 139.24 163.549C138.799 163.108 138.201 162.86 137.578 162.859Z" fill="#F9A826"/>
<path d="M167.857 183.437C167.275 183.437 166.707 183.265 166.224 182.942C165.74 182.619 165.363 182.16 165.141 181.622C164.918 181.085 164.86 180.494 164.974 179.924C165.087 179.354 165.367 178.83 165.778 178.419C166.189 178.008 166.713 177.728 167.283 177.614C167.854 177.501 168.445 177.559 168.982 177.782C169.519 178.004 169.978 178.381 170.301 178.864C170.624 179.348 170.797 179.916 170.797 180.497C170.796 181.277 170.486 182.024 169.934 182.575C169.383 183.126 168.636 183.436 167.857 183.437ZM167.857 178.146C167.392 178.146 166.937 178.284 166.55 178.542C166.163 178.8 165.862 179.168 165.684 179.597C165.506 180.027 165.46 180.5 165.55 180.956C165.641 181.412 165.865 181.831 166.194 182.16C166.523 182.489 166.942 182.713 167.398 182.804C167.854 182.895 168.327 182.848 168.757 182.67C169.187 182.492 169.554 182.191 169.812 181.804C170.071 181.417 170.209 180.963 170.209 180.497C170.208 179.874 169.96 179.276 169.519 178.835C169.078 178.394 168.48 178.146 167.857 178.146Z" fill="#F9A826"/>
<path d="M157.568 220.183C156.986 220.183 156.418 220.356 155.935 220.679C155.451 221.002 155.074 221.461 154.852 221.998C154.629 222.535 154.571 223.126 154.685 223.697C154.798 224.267 155.078 224.791 155.489 225.202C155.9 225.613 156.424 225.893 156.994 226.006C157.565 226.12 158.156 226.061 158.693 225.839C159.23 225.616 159.689 225.24 160.012 224.756C160.335 224.273 160.508 223.704 160.508 223.123C160.506 222.344 160.196 221.597 159.645 221.046C159.094 220.495 158.347 220.185 157.568 220.183ZM157.568 225.475C157.103 225.475 156.648 225.337 156.261 225.078C155.875 224.82 155.573 224.453 155.395 224.023C155.217 223.593 155.171 223.12 155.261 222.664C155.352 222.208 155.576 221.789 155.905 221.46C156.234 221.131 156.653 220.907 157.109 220.816C157.565 220.726 158.038 220.772 158.468 220.95C158.898 221.128 159.265 221.43 159.523 221.816C159.782 222.203 159.92 222.658 159.92 223.123C159.919 223.747 159.671 224.344 159.23 224.785C158.789 225.226 158.191 225.474 157.568 225.475Z" fill="#F9A826"/>
<path d="M157.568 150.219C156.986 150.219 156.418 150.046 155.935 149.723C155.451 149.4 155.074 148.941 154.852 148.404C154.629 147.867 154.571 147.276 154.685 146.705C154.798 146.135 155.078 145.611 155.489 145.2C155.9 144.789 156.424 144.509 156.994 144.396C157.565 144.282 158.156 144.341 158.693 144.563C159.23 144.786 159.689 145.162 160.012 145.646C160.335 146.129 160.508 146.698 160.508 147.279C160.507 148.058 160.197 148.806 159.646 149.357C159.094 149.908 158.347 150.218 157.568 150.219ZM157.568 144.927C157.103 144.927 156.648 145.065 156.261 145.324C155.875 145.582 155.573 145.949 155.395 146.379C155.217 146.809 155.171 147.282 155.261 147.738C155.352 148.194 155.576 148.613 155.905 148.942C156.234 149.271 156.653 149.495 157.109 149.586C157.565 149.676 158.038 149.63 158.468 149.452C158.898 149.274 159.265 148.972 159.523 148.586C159.782 148.199 159.92 147.744 159.92 147.279C159.919 146.655 159.671 146.058 159.23 145.617C158.789 145.176 158.191 144.928 157.568 144.927Z" fill="#F9A826"/>
<path d="M147.573 109.357C146.991 109.357 146.423 109.184 145.94 108.861C145.456 108.538 145.079 108.079 144.857 107.542C144.634 107.005 144.576 106.414 144.69 105.844C144.803 105.273 145.083 104.75 145.494 104.338C145.905 103.927 146.429 103.647 146.999 103.534C147.57 103.42 148.161 103.479 148.698 103.701C149.235 103.924 149.694 104.3 150.017 104.784C150.34 105.267 150.513 105.836 150.513 106.417C150.512 107.197 150.202 107.944 149.651 108.495C149.099 109.046 148.352 109.356 147.573 109.357Z" fill="#F9A826"/>
<path d="M167.563 77.3141C166.981 77.3141 166.413 77.1417 165.93 76.8187C165.446 76.4957 165.069 76.0366 164.847 75.4994C164.624 74.9622 164.566 74.3711 164.68 73.8009C164.793 73.2307 165.073 72.7068 165.484 72.2957C165.895 71.8846 166.419 71.6046 166.989 71.4912C167.56 71.3777 168.151 71.436 168.688 71.6585C169.225 71.881 169.684 72.2578 170.007 72.7412C170.33 73.2246 170.503 73.793 170.503 74.3744C170.502 75.1538 170.192 75.901 169.64 76.4521C169.089 77.0032 168.342 77.3132 167.563 77.3141ZM167.563 72.0226C167.098 72.0226 166.643 72.1606 166.256 72.419C165.869 72.6774 165.568 73.0447 165.39 73.4744C165.212 73.9042 165.166 74.377 165.256 74.8332C165.347 75.2894 165.571 75.7085 165.9 76.0374C166.229 76.3663 166.648 76.5902 167.104 76.681C167.56 76.7717 168.033 76.7252 168.463 76.5472C168.893 76.3692 169.26 76.0677 169.518 75.681C169.777 75.2942 169.915 74.8395 169.915 74.3744C169.914 73.7509 169.666 73.1531 169.225 72.7122C168.784 72.2714 168.186 72.0234 167.563 72.0226Z" fill="#F9A826"/>
<path d="M97.598 112.003C97.0166 112.003 96.4482 111.83 95.9648 111.507C95.4814 111.184 95.1046 110.725 94.8821 110.188C94.6596 109.651 94.6014 109.06 94.7148 108.489C94.8282 107.919 95.1082 107.395 95.5193 106.984C95.9304 106.573 96.4542 106.293 97.0245 106.18C97.5947 106.066 98.1858 106.124 98.723 106.347C99.2601 106.569 99.7193 106.946 100.042 107.43C100.365 107.913 100.538 108.481 100.538 109.063C100.537 109.842 100.227 110.589 99.6757 111.141C99.1246 111.692 98.3774 112.002 97.598 112.003ZM97.598 106.711C97.1329 106.711 96.6782 106.849 96.2914 107.107C95.9047 107.366 95.6033 107.733 95.4253 108.163C95.2473 108.593 95.2007 109.065 95.2914 109.522C95.3822 109.978 95.6062 110.397 95.9351 110.726C96.264 111.055 96.683 111.279 97.1392 111.369C97.5954 111.46 98.0683 111.414 98.498 111.236C98.9277 111.058 99.295 110.756 99.5534 110.369C99.8118 109.983 99.9498 109.528 99.9498 109.063C99.9491 108.439 99.701 107.842 99.2602 107.401C98.8193 106.96 98.2215 106.712 97.598 106.711Z" fill="#F9A826"/>
<path d="M77.6081 114.648C77.0266 114.648 76.4583 114.476 75.9749 114.153C75.4914 113.83 75.1146 113.371 74.8921 112.833C74.6696 112.296 74.6114 111.705 74.7249 111.135C74.8383 110.565 75.1183 110.041 75.5294 109.63C75.9405 109.219 76.4643 108.939 77.0346 108.825C77.6048 108.712 78.1959 108.77 78.733 108.993C79.2702 109.215 79.7293 109.592 80.0523 110.075C80.3753 110.559 80.5477 111.127 80.5477 111.709C80.5468 112.488 80.2368 113.235 79.6857 113.786C79.1346 114.337 78.3874 114.647 77.6081 114.648ZM77.6081 109.357C77.1429 109.357 76.6882 109.495 76.3015 109.753C75.9148 110.011 75.6133 110.379 75.4353 110.809C75.2573 111.238 75.2108 111.711 75.3015 112.167C75.3922 112.624 75.6162 113.043 75.9451 113.371C76.274 113.7 76.6931 113.924 77.1492 114.015C77.6054 114.106 78.0783 114.059 78.508 113.881C78.9378 113.703 79.305 113.402 79.5635 113.015C79.8219 112.628 79.9598 112.174 79.9598 111.709C79.9591 111.085 79.7111 110.487 79.2702 110.046C78.8293 109.605 78.2316 109.357 77.6081 109.357Z" fill="#F9A826"/>
<path d="M87.603 144.633C87.0216 144.633 86.4533 144.461 85.9698 144.138C85.4864 143.815 85.1096 143.356 84.8871 142.818C84.6646 142.281 84.6064 141.69 84.7198 141.12C84.8332 140.55 85.1132 140.026 85.5244 139.615C85.9355 139.204 86.4593 138.924 87.0295 138.81C87.5998 138.697 88.1909 138.755 88.728 138.978C89.2652 139.2 89.7243 139.577 90.0473 140.06C90.3703 140.544 90.5427 141.112 90.5427 141.693C90.5418 142.473 90.2318 143.22 89.6807 143.771C89.1296 144.322 88.3824 144.632 87.603 144.633Z" fill="#F9A826"/>
<path d="M167.857 43.5076C167.275 43.5076 166.707 43.3352 166.224 43.0121C165.74 42.6891 165.363 42.23 165.141 41.6928C164.918 41.1557 164.86 40.5646 164.974 39.9944C165.087 39.4241 165.367 38.9003 165.778 38.4892C166.189 38.0781 166.713 37.7981 167.283 37.6847C167.854 37.5712 168.445 37.6294 168.982 37.8519C169.519 38.0744 169.978 38.4512 170.301 38.9347C170.624 39.4181 170.797 39.9865 170.797 40.5679C170.796 41.3473 170.486 42.0945 169.934 42.6456C169.383 43.1967 168.636 43.5067 167.857 43.5076ZM167.857 38.2161C167.392 38.2161 166.937 38.354 166.55 38.6125C166.163 38.8709 165.862 39.2382 165.684 39.6679C165.506 40.0976 165.46 40.5705 165.55 41.0267C165.641 41.4829 165.865 41.9019 166.194 42.2308C166.523 42.5597 166.942 42.7837 167.398 42.8744C167.854 42.9652 168.327 42.9186 168.757 42.7406C169.187 42.5626 169.554 42.2612 169.812 41.8744C170.071 41.4877 170.209 41.033 170.209 40.5679C170.208 39.9444 169.96 39.3466 169.519 38.9057C169.078 38.4648 168.48 38.2168 167.857 38.2161Z" fill="#F9A826"/>
<path d="M117.588 79.9598C117.007 79.9598 116.438 79.7874 115.955 79.4644C115.471 79.1414 115.095 78.6823 114.872 78.1451C114.65 77.608 114.591 77.0169 114.705 76.4466C114.818 75.8764 115.098 75.3526 115.509 74.9415C115.92 74.5303 116.444 74.2504 117.014 74.1369C117.585 74.0235 118.176 74.0817 118.713 74.3042C119.25 74.5267 119.709 74.9035 120.032 75.3869C120.355 75.8704 120.528 76.4387 120.528 77.0201C120.527 77.7995 120.217 78.5467 119.666 79.0978C119.115 79.6489 118.367 79.9589 117.588 79.9598ZM117.588 74.6684C117.123 74.6684 116.668 74.8063 116.281 75.0647C115.895 75.3231 115.593 75.6904 115.415 76.1202C115.237 76.5499 115.191 77.0228 115.281 77.4789C115.372 77.9351 115.596 78.3542 115.925 78.6831C116.254 79.012 116.673 79.236 117.129 79.3267C117.585 79.4174 118.058 79.3709 118.488 79.1929C118.918 79.0149 119.285 78.7134 119.543 78.3267C119.802 77.94 119.94 77.4853 119.94 77.0201C119.939 76.3966 119.691 75.7989 119.25 75.358C118.809 74.9171 118.211 74.6691 117.588 74.6684Z" fill="#F9A826"/>
<path d="M107.593 59.0879C107.012 59.0879 106.443 58.9155 105.96 58.5925C105.476 58.2694 105.1 57.8103 104.877 57.2732C104.655 56.736 104.596 56.1449 104.71 55.5747C104.823 55.0044 105.103 54.4806 105.514 54.0695C105.925 53.6584 106.449 53.3784 107.019 53.265C107.59 53.1516 108.181 53.2098 108.718 53.4323C109.255 53.6548 109.714 54.0316 110.037 54.515C110.36 54.9984 110.533 55.5668 110.533 56.1482C110.532 56.9276 110.222 57.6748 109.671 58.2259C109.12 58.777 108.372 59.087 107.593 59.0879ZM107.593 53.7964C107.128 53.7964 106.673 53.9344 106.286 54.1928C105.9 54.4512 105.598 54.8185 105.42 55.2482C105.242 55.6779 105.196 56.1508 105.286 56.607C105.377 57.0632 105.601 57.4822 105.93 57.8111C106.259 58.14 106.678 58.364 107.134 58.4548C107.59 58.5455 108.063 58.4989 108.493 58.3209C108.923 58.1429 109.29 57.8415 109.548 57.4548C109.807 57.068 109.945 56.6133 109.945 56.1482C109.944 55.5247 109.696 54.9269 109.255 54.486C108.814 54.0452 108.216 53.7971 107.593 53.7964Z" fill="#F9A826"/>
<path d="M57.6181 146.103C57.0367 146.103 56.4683 145.931 55.9849 145.608C55.5015 145.285 55.1247 144.825 54.9022 144.288C54.6797 143.751 54.6215 143.16 54.7349 142.59C54.8483 142.02 55.1283 141.496 55.5394 141.085C55.9506 140.674 56.4744 140.394 57.0446 140.28C57.6149 140.167 58.2059 140.225 58.7431 140.447C59.2803 140.67 59.7394 141.047 60.0624 141.53C60.3854 142.014 60.5578 142.582 60.5578 143.163C60.5569 143.943 60.2469 144.69 59.6958 145.241C59.1447 145.792 58.3975 146.102 57.6181 146.103ZM57.6181 140.812C57.153 140.812 56.6983 140.95 56.3115 141.208C55.9248 141.466 55.6234 141.834 55.4454 142.263C55.2674 142.693 55.2208 143.166 55.3115 143.622C55.4023 144.078 55.6263 144.497 55.9552 144.826C56.2841 145.155 56.7031 145.379 57.1593 145.47C57.6155 145.561 58.0884 145.514 58.5181 145.336C58.9478 145.158 59.3151 144.857 59.5735 144.47C59.8319 144.083 59.9699 143.628 59.9699 143.163C59.9692 142.54 59.7212 141.942 59.2803 141.501C58.8394 141.06 58.2416 140.812 57.6181 140.812Z" fill="#F9A826"/>
<path d="M236.94 111.708H236.352V137.265H236.94V111.708Z" fill="#F9A826"/>
<path d="M236.94 148.932H236.352V167.857H236.94V148.932Z" fill="#F9A826"/>
<path d="M236.646 146.103C236.064 146.103 235.496 145.931 235.013 145.608C234.529 145.285 234.152 144.825 233.93 144.288C233.707 143.751 233.649 143.16 233.763 142.59C233.876 142.02 234.156 141.496 234.567 141.085C234.978 140.674 235.502 140.394 236.072 140.28C236.642 140.167 237.234 140.225 237.771 140.447C238.308 140.67 238.767 141.047 239.09 141.53C239.413 142.014 239.585 142.582 239.585 143.163C239.585 143.943 239.275 144.69 238.723 145.241C238.172 145.792 237.425 146.102 236.646 146.103ZM236.646 140.812C236.181 140.812 235.726 140.95 235.339 141.208C234.952 141.466 234.651 141.834 234.473 142.263C234.295 142.693 234.248 143.166 234.339 143.622C234.43 144.078 234.654 144.497 234.983 144.826C235.312 145.155 235.731 145.379 236.187 145.47C236.643 145.561 237.116 145.514 237.546 145.336C237.975 145.158 238.343 144.857 238.601 144.47C238.86 144.083 238.998 143.628 238.998 143.163C238.997 142.54 238.749 141.942 238.308 141.501C237.867 141.06 237.269 140.812 236.646 140.812Z" fill="#F9A826"/>
<path d="M217.538 122.879C216.956 122.879 216.388 122.707 215.905 122.384C215.421 122.061 215.044 121.602 214.822 121.065C214.599 120.528 214.541 119.936 214.655 119.366C214.768 118.796 215.048 118.272 215.459 117.861C215.87 117.45 216.394 117.17 216.964 117.056C217.534 116.943 218.126 117.001 218.663 117.224C219.2 117.446 219.659 117.823 219.982 118.306C220.305 118.79 220.477 119.358 220.477 119.94C220.477 120.719 220.167 121.466 219.615 122.017C219.064 122.569 218.317 122.879 217.538 122.879ZM217.538 117.588C217.073 117.588 216.618 117.726 216.231 117.984C215.844 118.243 215.543 118.61 215.365 119.04C215.187 119.469 215.14 119.942 215.231 120.399C215.322 120.855 215.546 121.274 215.875 121.603C216.204 121.932 216.623 122.156 217.079 122.246C217.535 122.337 218.008 122.29 218.438 122.112C218.867 121.934 219.235 121.633 219.493 121.246C219.752 120.86 219.889 120.405 219.889 119.94C219.889 119.316 219.641 118.718 219.2 118.278C218.759 117.837 218.161 117.589 217.538 117.588Z" fill="#F9A826"/>
<path d="M197.548 156.686C196.966 156.686 196.398 156.514 195.915 156.19C195.431 155.867 195.054 155.408 194.832 154.871C194.609 154.334 194.551 153.743 194.665 153.173C194.778 152.602 195.058 152.079 195.469 151.668C195.88 151.256 196.404 150.976 196.974 150.863C197.544 150.75 198.136 150.808 198.673 151.03C199.21 151.253 199.669 151.63 199.992 152.113C200.315 152.596 200.487 153.165 200.487 153.746C200.487 154.526 200.176 155.273 199.625 155.824C199.074 156.375 198.327 156.685 197.548 156.686ZM197.548 151.394C197.083 151.394 196.628 151.532 196.241 151.791C195.854 152.049 195.553 152.417 195.375 152.846C195.197 153.276 195.15 153.749 195.241 154.205C195.332 154.661 195.556 155.08 195.885 155.409C196.214 155.738 196.633 155.962 197.089 156.053C197.545 156.144 198.018 156.097 198.448 155.919C198.877 155.741 199.245 155.44 199.503 155.053C199.762 154.666 199.899 154.211 199.899 153.746C199.899 153.123 199.651 152.525 199.21 152.084C198.769 151.643 198.171 151.395 197.548 151.394Z" fill="#F9A826"/>
<path d="M137.578 67.907C136.996 67.907 136.428 67.7346 135.945 67.4116C135.461 67.0885 135.084 66.6294 134.862 66.0923C134.639 65.5551 134.581 64.964 134.695 64.3938C134.808 63.8235 135.088 63.2997 135.499 62.8886C135.91 62.4775 136.434 62.1975 137.004 62.0841C137.575 61.9706 138.166 62.0289 138.703 62.2514C139.24 62.4739 139.699 62.8507 140.022 63.3341C140.345 63.8175 140.518 64.3859 140.518 64.9673C140.517 65.7467 140.207 66.4939 139.656 67.045C139.104 67.5961 138.357 67.9061 137.578 67.907Z" fill="#F9A826"/>
<path d="M197.548 94.6583C196.966 94.6583 196.398 94.4859 195.915 94.1629C195.431 93.8399 195.054 93.3808 194.832 92.8436C194.609 92.3065 194.551 91.7154 194.665 91.1451C194.778 90.5749 195.058 90.0511 195.469 89.64C195.88 89.2288 196.404 88.9488 196.974 88.8354C197.544 88.722 198.136 88.7802 198.673 89.0027C199.21 89.2252 199.669 89.602 199.992 90.0854C200.315 90.5689 200.487 91.1372 200.487 91.7186C200.487 92.498 200.177 93.2452 199.625 93.7963C199.074 94.3475 198.327 94.6575 197.548 94.6583ZM197.548 89.3669C197.083 89.3669 196.628 89.5048 196.241 89.7632C195.854 90.0216 195.553 90.3889 195.375 90.8187C195.197 91.2484 195.15 91.7213 195.241 92.1775C195.332 92.6336 195.556 93.0527 195.885 93.3816C196.214 93.7105 196.633 93.9345 197.089 94.0252C197.545 94.116 198.018 94.0694 198.448 93.8914C198.877 93.7134 199.245 93.412 199.503 93.0252C199.762 92.6385 199.899 92.1838 199.899 91.7186C199.899 91.0951 199.651 90.4974 199.21 90.0565C198.769 89.6156 198.171 89.3676 197.548 89.3669Z" fill="#F9A826"/>
<path d="M217.538 86.1332C216.956 86.1332 216.388 85.9608 215.905 85.6377C215.421 85.3147 215.044 84.8556 214.822 84.3184C214.599 83.7813 214.541 83.1902 214.655 82.62C214.768 82.0497 215.048 81.5259 215.459 81.1148C215.87 80.7037 216.394 80.4237 216.964 80.3103C217.534 80.1968 218.126 80.2551 218.663 80.4776C219.2 80.7001 219.659 81.0768 219.982 81.5603C220.305 82.0437 220.477 82.6121 220.477 83.1935C220.477 83.9729 220.167 84.7201 219.615 85.2712C219.064 85.8223 218.317 86.1323 217.538 86.1332Z" fill="#F9A826"/>
<path d="M187.553 84.6633C186.971 84.6633 186.403 84.4909 185.92 84.1679C185.436 83.8449 185.059 83.3858 184.837 82.8486C184.614 82.3115 184.556 81.7204 184.67 81.1501C184.783 80.5799 185.063 80.0561 185.474 79.645C185.885 79.2338 186.409 78.9539 186.979 78.8404C187.549 78.727 188.141 78.7852 188.678 79.0077C189.215 79.2302 189.674 79.607 189.997 80.0904C190.32 80.5739 190.492 81.1422 190.492 81.7236C190.492 82.503 190.182 83.2502 189.63 83.8013C189.079 84.3524 188.332 84.6625 187.553 84.6633Z" fill="#F9A826"/>
<path d="M269.864 84.6683L217.239 83.7814L217.249 83.1934L269.276 84.0704V58.7939H269.864V84.6683Z" fill="#2F2E41"/>
<path d="M187.824 81.837L187.281 81.6101L214.99 15.2864H259.281V15.8743H215.382L187.824 81.837Z" fill="#2F2E41"/>
<path d="M147.867 106.711H15.2864V74.6683H15.8744V106.123H147.867V106.711Z" fill="#2F2E41"/>
<path d="M137.578 65.2613H49.6809V29.397H50.2688V64.6733H137.578V65.2613Z" fill="#2F2E41"/>
<path d="M87.897 195.784H29.397V195.196H87.309V141.4H87.897V195.784Z" fill="#2F2E41"/>
</g>
<defs>
<clipPath id="clip0">
<rect width="285.151" height="234" fill="white"/>
</clipPath>
</defs>
</svg>
