<svg width="350" height="286" viewBox="0 0 350 286" fill="none" xmlns="http://www.w3.org/2000/svg">
<g clip-path="url(#clip0)">
<g opacity="0.3">
<path opacity="0.3" d="M248.008 14.4098C248.669 14.7682 249.327 15.1328 249.981 15.5038" stroke="#2196F3" stroke-width="4" stroke-miterlimit="10"/>
<path opacity="0.3" d="M253.823 17.7406C293.568 41.9248 320.113 85.6428 320.113 135.56C320.121 147.155 318.669 158.704 315.79 169.936" stroke="#2196F3" stroke-width="4" stroke-miterlimit="10" stroke-dasharray="11.85 11.85"/>
<path opacity="0.3" d="M315.226 172.09C315.028 172.815 314.823 173.538 314.613 174.259" stroke="#2196F3" stroke-width="4" stroke-miterlimit="10"/>
</g>
<path opacity="0.21" d="M44.5489 135.56C44.5489 75.6804 82.7481 24.7218 136.105 5.71051" stroke="#2196F3" stroke-width="4" stroke-miterlimit="10" stroke-dasharray="12 12"/>
<path opacity="0.5" d="M248.008 256.714C227.85 267.661 205.269 273.378 182.331 273.342C137.395 273.342 97.4812 251.831 72.3308 218.541" stroke="#2196F3" stroke-width="4" stroke-miterlimit="10" stroke-dasharray="12 12"/>
<g opacity="0.21">
<path opacity="0.21" d="M271.504 161.545C271.293 162.267 271.074 162.986 270.846 163.703" stroke="#2196F3" stroke-width="4" stroke-miterlimit="10"/>
<path opacity="0.21" d="M269.383 167.951C256.226 203.263 222.222 228.417 182.331 228.417C131.049 228.417 89.4737 186.842 89.4737 135.56C89.4737 84.2782 131.049 42.703 182.331 42.703C202.682 42.6734 222.475 49.3599 238.639 61.7256" stroke="#2196F3" stroke-width="4" stroke-miterlimit="10" stroke-dasharray="11.95 11.95"/>
<path opacity="0.21" d="M240.414 63.1016C241 63.5727 241.58 64.0502 242.154 64.5339" stroke="#2196F3" stroke-width="4" stroke-miterlimit="10"/>
</g>
<g opacity="0.5">
<path opacity="0.5" d="M174.444 83.5301C175.195 83.4198 175.947 83.3246 176.699 83.2444" stroke="#2196F3" stroke-width="4" stroke-miterlimit="10"/>
<path opacity="0.5" d="M181.015 82.9474C181.454 82.9474 181.892 82.9474 182.331 82.9474C191.504 82.9474 200.518 85.3448 208.479 89.9022C216.44 94.4595 223.072 101.018 227.717 108.929C232.361 116.839 234.858 125.826 234.959 134.999C235.061 144.171 232.763 153.211 228.293 161.222" stroke="#2196F3" stroke-width="4" stroke-miterlimit="10" stroke-dasharray="11.56 11.56"/>
<path opacity="0.5" d="M227.195 163.094C226.802 163.736 226.395 164.362 225.974 164.974" stroke="#2196F3" stroke-width="4" stroke-miterlimit="10"/>
</g>
<path d="M312.342 204.883L274.455 184.88L294.218 152.515C294.374 152.261 294.621 152.075 294.908 151.996C295.196 151.917 295.503 151.951 295.767 152.09L327.398 168.793C327.659 168.932 327.857 169.164 327.954 169.443C328.051 169.722 328.039 170.027 327.921 170.297L312.342 204.883Z" fill="url(#paint0_linear)"/>
<path d="M311.714 203.143L276.248 184.417L294.714 154.177C294.87 153.922 295.117 153.737 295.405 153.658C295.692 153.579 295.999 153.612 296.263 153.752L325.752 169.323C326.012 169.462 326.21 169.694 326.307 169.973C326.404 170.252 326.392 170.557 326.274 170.827L311.714 203.143Z" fill="#F2F2F2"/>
<path d="M287.327 252.256L249.436 232.256L233.857 266.842C233.739 267.113 233.727 267.417 233.824 267.696C233.921 267.975 234.119 268.207 234.38 268.346L266.019 285.034C266.283 285.173 266.59 285.207 266.877 285.128C267.165 285.049 267.412 284.864 267.568 284.609L287.327 252.256Z" fill="url(#paint1_linear)"/>
<path d="M285.526 252.703L250.06 233.977L235.526 266.293C235.408 266.564 235.397 266.869 235.493 267.147C235.59 267.426 235.789 267.658 236.049 267.797L265.538 283.365C265.801 283.504 266.108 283.538 266.396 283.459C266.684 283.38 266.931 283.194 267.086 282.94L285.526 252.703Z" fill="#F2F2F2"/>
<path d="M268.023 178.479L240.542 230.535C240.316 230.963 240.479 231.493 240.907 231.719L292.963 259.2C293.391 259.426 293.921 259.262 294.147 258.834L321.628 206.778C321.854 206.35 321.69 205.82 321.262 205.595L269.206 178.114C268.778 177.888 268.248 178.051 268.023 178.479Z" fill="url(#paint2_linear)"/>
<path d="M320.059 205.983L269.615 179.354C269.187 179.128 268.657 179.291 268.431 179.719L241.802 230.163C241.576 230.591 241.74 231.121 242.167 231.347L292.611 257.976C293.039 258.202 293.569 258.038 293.795 257.611L320.425 207.167C320.65 206.739 320.487 206.209 320.059 205.983Z" fill="#F2F2F2"/>
<path d="M316.632 217.059L314.404 215.883C314.129 215.738 313.788 215.843 313.642 216.119L309.913 223.183C309.767 223.459 309.873 223.8 310.148 223.945L312.376 225.121C312.651 225.267 312.992 225.161 313.138 224.886L316.867 217.821C317.013 217.546 316.907 217.204 316.632 217.059Z" fill="#F2F2F2"/>
<path d="M316.366 207.124L270.759 183.048C270.332 182.822 269.802 182.986 269.576 183.414L245.5 229.02C245.274 229.448 245.438 229.978 245.865 230.204L291.472 254.28C291.9 254.506 292.43 254.342 292.655 253.914L316.732 208.308C316.957 207.88 316.794 207.35 316.366 207.124Z" fill="#F9A826"/>
<path d="M297.301 218.737L294.977 213.53L278.974 220.613L275.932 213.899L270.538 216.293L275.011 225.981L276.083 228.459L297.301 218.737Z" fill="url(#paint3_linear)"/>
<path d="M297.049 218.507L294.91 213.85L278.823 221.244L275.673 214.395L271.015 216.534L275.241 225.707L276.338 228.026L297.049 218.507Z" fill="white"/>
<path d="M116.627 0.37283L13.4922 44.0447C11.1501 45.0365 10.0554 47.7391 11.0472 50.0812L92.7649 243.064C93.7566 245.406 96.4592 246.501 98.8013 245.509L201.936 201.837C204.278 200.845 205.373 198.143 204.381 195.801L122.663 2.81785C121.672 0.475753 118.969 -0.618919 116.627 0.37283Z" fill="url(#paint4_linear)"/>
<path d="M115.787 3.94164L16.633 45.9278C14.0251 47.0321 12.8063 50.0413 13.9106 52.6492L92.9163 239.228C94.0206 241.836 97.0299 243.054 99.6377 241.95L198.791 199.964C201.399 198.86 202.618 195.85 201.514 193.243L122.508 6.66409C121.404 4.05624 118.394 2.83736 115.787 3.94164Z" fill="white"/>
<path d="M95.5714 18.2857C96.1373 20.4973 95.893 22.8384 94.8829 24.8855C93.8727 26.9327 92.1634 28.5509 90.0639 29.4473L52.5564 45.3346C50.4515 46.2188 48.0996 46.3205 45.9262 45.6213C43.7528 44.9221 41.9013 43.4682 40.7068 41.5225L20.8384 49.9361C20.2963 50.1651 19.8047 50.4987 19.3917 50.9179C18.9786 51.337 18.6523 51.8335 18.4313 52.3789C18.2102 52.9242 18.0989 53.5078 18.1036 54.0963C18.1083 54.6847 18.229 55.2665 18.4587 55.8082L93.8196 233.744C94.0486 234.286 94.3822 234.778 94.8014 235.191C95.2205 235.604 95.717 235.93 96.2624 236.151C96.8077 236.372 97.3913 236.484 97.9798 236.479C98.5682 236.474 99.15 236.354 99.6917 236.124L194.59 195.936C195.132 195.707 195.624 195.373 196.037 194.954C196.45 194.535 196.776 194.039 196.997 193.493C197.218 192.948 197.33 192.364 197.325 191.776C197.32 191.187 197.2 190.606 196.97 190.064L121.617 12.1203C121.388 11.5782 121.054 11.0866 120.635 10.6736C120.216 10.2605 119.719 9.93418 119.174 9.71317C118.628 9.49216 118.045 9.38082 117.456 9.38552C116.868 9.39022 116.286 9.51087 115.744 9.74057L95.5714 18.2857Z" fill="#F9A826"/>
<path d="M80.8446 27.2969L58.0277 36.9587C57.6453 37.1206 57.4666 37.5618 57.6285 37.9442L57.6827 38.0723C57.8447 38.4547 58.2859 38.6334 58.6683 38.4715L81.4852 28.8098C81.8676 28.6478 82.0463 28.2066 81.8844 27.8242L81.8301 27.6961C81.6682 27.3138 81.227 27.135 80.8446 27.2969Z" fill="#DBDBDB"/>
<path d="M87.3166 26.3402C87.8175 26.1281 88.0516 25.5501 87.8395 25.0491C87.6274 24.5482 87.0494 24.3141 86.5485 24.5262C86.0476 24.7383 85.8134 25.3164 86.0255 25.8173C86.2377 26.3182 86.8157 26.5523 87.3166 26.3402Z" fill="#DBDBDB"/>
<path d="M123.782 100.049L113.767 98.0188L107.455 128.744L94.4887 126.199L92.3797 136.564L111.173 140.113L115.898 141.124L123.782 100.049Z" fill="url(#paint5_linear)"/>
<path d="M123.188 100.173L114.165 98.4549L108.222 129.624L94.9474 127.094L93.2256 136.117L111.004 139.492L115.538 140.305L123.188 100.173Z" fill="white"/>
<path opacity="0.3" d="M344.737 14.5113C347.644 14.5113 350 12.1549 350 9.24814C350 6.34138 347.644 3.98499 344.737 3.98499C341.83 3.98499 339.474 6.34138 339.474 9.24814C339.474 12.1549 341.83 14.5113 344.737 14.5113Z" fill="#80DEEA"/>
<path opacity="0.3" d="M290.414 134.282C293.32 134.282 295.677 131.926 295.677 129.019C295.677 126.112 293.32 123.756 290.414 123.756C287.507 123.756 285.15 126.112 285.15 129.019C285.15 131.926 287.507 134.282 290.414 134.282Z" fill="#80DEEA"/>
<path opacity="0.5" d="M5.26316 35.9398C8.16992 35.9398 10.5263 33.5834 10.5263 30.6767C10.5263 27.7699 8.16992 25.4135 5.26316 25.4135C2.3564 25.4135 0 27.7699 0 30.6767C0 33.5834 2.3564 35.9398 5.26316 35.9398Z" fill="#80DEEA"/>
<path opacity="0.3" d="M10.5263 19.7744C13.4331 19.7744 15.7895 17.418 15.7895 14.5113C15.7895 11.6045 13.4331 9.24811 10.5263 9.24811C7.61958 9.24811 5.26318 11.6045 5.26318 14.5113C5.26318 17.418 7.61958 19.7744 10.5263 19.7744Z" fill="#80DEEA"/>
<g opacity="0.2">
<path opacity="0.2" d="M59.3233 47.9662L96.8346 32.0827C98.934 31.1862 100.643 29.5681 101.654 27.5209C102.664 25.4737 102.908 23.1327 102.342 20.9211L121.515 12.797L121.229 12.1241C121 11.582 120.667 11.0904 120.248 10.6774C119.828 10.2643 119.332 9.93797 118.787 9.71696C118.241 9.49594 117.658 9.3846 117.069 9.3893C116.481 9.394 115.899 9.51466 115.357 9.74436L95.188 18.2857C95.7538 20.4973 95.5095 22.8384 94.4994 24.8856C93.4892 26.9327 91.7799 28.5509 89.6804 29.4474L52.1804 45.3346C51.1766 45.7586 50.1069 46.0053 49.0188 46.0639C50.3645 47.3502 52.0565 48.2154 53.8871 48.5533C55.7177 48.8912 57.6071 48.6872 59.3233 47.9662Z" fill="white"/>
<path opacity="0.2" d="M25.2294 58.4361C24.9997 57.8943 24.879 57.3126 24.8743 56.7241C24.8696 56.1357 24.9809 55.5521 25.202 55.0067C25.423 54.4613 25.7493 53.9649 26.1624 53.5457C26.5754 53.1266 27.067 52.7929 27.6091 52.5639L44.7331 45.312C42.9062 44.5374 41.367 43.2112 40.3309 41.5188L20.4624 49.9323C19.9204 50.1614 19.4288 50.495 19.0157 50.9141C18.6027 51.3333 18.2764 51.8298 18.0553 52.3751C17.8343 52.9205 17.723 53.5041 17.7277 54.0926C17.7324 54.681 17.853 55.2627 18.0827 55.8045L93.4436 233.744C93.6727 234.286 94.0063 234.778 94.4255 235.191C94.8446 235.604 95.3411 235.93 95.8865 236.152C96.4318 236.373 97.0154 236.484 97.6039 236.479C98.1923 236.474 98.7741 236.354 99.3158 236.124L100.305 235.707L25.2294 58.4361Z" fill="white"/>
</g>
</g>
<defs>
<linearGradient id="paint0_linear" x1="301.257" y1="204.868" x2="301.256" y2="151.941" gradientUnits="userSpaceOnUse">
<stop stop-color="#808080" stop-opacity="0.25"/>
<stop offset="0.54" stop-color="#808080" stop-opacity="0.12"/>
<stop offset="1" stop-color="#808080" stop-opacity="0.1"/>
</linearGradient>
<linearGradient id="paint1_linear" x1="59034.1" y1="42077.9" x2="55580.2" y2="35455.1" gradientUnits="userSpaceOnUse">
<stop stop-color="#808080" stop-opacity="0.25"/>
<stop offset="0.54" stop-color="#808080" stop-opacity="0.12"/>
<stop offset="1" stop-color="#808080" stop-opacity="0.1"/>
</linearGradient>
<linearGradient id="paint2_linear" x1="39973.6" y1="69450.3" x2="39972.6" y2="56343.4" gradientUnits="userSpaceOnUse">
<stop stop-color="#808080" stop-opacity="0.25"/>
<stop offset="0.54" stop-color="#808080" stop-opacity="0.12"/>
<stop offset="1" stop-color="#808080" stop-opacity="0.1"/>
</linearGradient>
<linearGradient id="paint3_linear" x1="277.668" y1="229.295" x2="288.004" y2="209.823" gradientUnits="userSpaceOnUse">
<stop stop-opacity="0.12"/>
<stop offset="0.55" stop-opacity="0.09"/>
<stop offset="1" stop-opacity="0.02"/>
</linearGradient>
<linearGradient id="paint4_linear" x1="94446.1" y1="129593" x2="125239" y2="10043.4" gradientUnits="userSpaceOnUse">
<stop stop-color="#808080" stop-opacity="0.25"/>
<stop offset="0.54" stop-color="#808080" stop-opacity="0.12"/>
<stop offset="1" stop-color="#808080" stop-opacity="0.1"/>
</linearGradient>
<linearGradient id="paint5_linear" x1="26676.8" y1="15394.4" x2="24651.1" y2="11342.1" gradientUnits="userSpaceOnUse">
<stop stop-opacity="0.12"/>
<stop offset="0.55" stop-opacity="0.09"/>
<stop offset="1" stop-opacity="0.02"/>
</linearGradient>
<clipPath id="clip0">
<rect width="350" height="285.184" fill="white"/>
</clipPath>
</defs>
</svg>
