<svg width="402" height="670" viewBox="0 0 402 670" fill="none" xmlns="http://www.w3.org/2000/svg">
<g clip-path="url(#clip0)">
<path d="M123.53 92H121.53V258.89H123.53V92Z" fill="#F2F2F2"/>
<path d="M190.53 92H188.53V258.89H190.53V92Z" fill="#F2F2F2"/>
<path d="M339 91H36.9998V93H339V91Z" fill="#F2F2F2"/>
<path d="M339 184H36.9998V186H339V184Z" fill="#F2F2F2"/>
<path d="M339 258H36.9998V260H339V258Z" fill="#F2F2F2"/>
<path d="M326.5 348.5H57.4998V350.5H326.5V348.5Z" fill="#3F3D56"/>
<path d="M41.9998 366C38.6375 366 35.3508 365.002 32.5551 363.134C29.7595 361.267 27.5806 358.611 26.2939 355.505C25.0072 352.399 24.6705 348.981 25.3265 345.683C25.9824 342.385 27.6015 339.356 29.979 336.979C32.3565 334.601 35.3856 332.982 38.6833 332.326C41.981 331.67 45.3991 332.007 48.5054 333.294C51.6118 334.58 54.2668 336.759 56.1348 339.555C58.0028 342.35 58.9998 345.637 58.9998 349C58.9948 353.507 57.2021 357.828 54.0151 361.015C50.8281 364.202 46.507 365.994 41.9998 366ZM41.9998 334C39.0331 334 36.133 334.879 33.6663 336.527C31.1995 338.176 29.2769 340.518 28.1416 343.259C27.0063 346 26.7093 349.016 27.2881 351.926C27.8668 354.836 29.2954 357.508 31.3932 359.606C33.491 361.704 36.1638 363.133 39.0735 363.711C41.9832 364.29 44.9992 363.993 47.7401 362.858C50.481 361.722 52.8237 359.8 54.4719 357.333C56.1201 354.866 56.9998 351.966 56.9998 349C56.9954 345.023 55.4136 341.21 52.6015 338.398C49.7895 335.586 45.9767 334.004 41.9998 334Z" fill="#3F3D56"/>
<path d="M123.559 259H121.559V349H123.559V259Z" fill="#3F3D56"/>
<path d="M190.559 185H188.559V349H190.559V185Z" fill="#3F3D56"/>
<path d="M258.559 92H256.559V349H258.559V92Z" fill="#3F3D56"/>
<path d="M122.529 363.588C130.586 363.588 137.118 357.057 137.118 349C137.118 340.943 130.586 334.412 122.529 334.412C114.473 334.412 107.941 340.943 107.941 349C107.941 357.057 114.473 363.588 122.529 363.588Z" fill="#F9A826"/>
<path d="M190 363.588C198.057 363.588 204.588 357.057 204.588 349C204.588 340.943 198.057 334.412 190 334.412C181.943 334.412 175.412 340.943 175.412 349C175.412 357.057 181.943 363.588 190 363.588Z" fill="#F9A826"/>
<path d="M257.471 363.588C265.527 363.588 272.059 357.057 272.059 349C272.059 340.943 265.527 334.412 257.471 334.412C249.414 334.412 242.882 340.943 242.882 349C242.882 357.057 249.414 363.588 257.471 363.588Z" fill="#F9A826"/>
<path d="M258 106C265.732 106 272 99.732 272 92C272 84.268 265.732 78 258 78C250.268 78 244 84.268 244 92C244 99.732 250.268 106 258 106Z" fill="#F9A826"/>
<path d="M257.637 198.89C265.369 198.89 271.637 192.622 271.637 184.89C271.637 177.158 265.369 170.89 257.637 170.89C249.905 170.89 243.637 177.158 243.637 184.89C243.637 192.622 249.905 198.89 257.637 198.89Z" fill="#F9A826"/>
<path d="M190 199C197.732 199 204 192.732 204 185C204 177.268 197.732 171 190 171C182.268 171 176 177.268 176 185C176 192.732 182.268 199 190 199Z" fill="#F9A826"/>
<path d="M189.637 272.89C197.369 272.89 203.637 266.622 203.637 258.89C203.637 251.158 197.369 244.89 189.637 244.89C181.905 244.89 175.637 251.158 175.637 258.89C175.637 266.622 181.905 272.89 189.637 272.89Z" fill="#F9A826"/>
<path d="M123 273C130.732 273 137 266.732 137 259C137 251.268 130.732 245 123 245C115.268 245 109 251.268 109 259C109 266.732 115.268 273 123 273Z" fill="#F9A826"/>
<path d="M13 105C20.1797 105 26 99.1797 26 92C26 84.8203 20.1797 79 13 79C5.8203 79 0 84.8203 0 92C0 99.1797 5.8203 105 13 105Z" fill="#F2F2F2"/>
<path d="M13 197C20.1797 197 26 191.18 26 184C26 176.82 20.1797 171 13 171C5.8203 171 0 176.82 0 184C0 191.18 5.8203 197 13 197Z" fill="#F2F2F2"/>
<path d="M13 272C20.1797 272 26 266.18 26 259C26 251.82 20.1797 246 13 246C5.8203 246 0 251.82 0 259C0 266.18 5.8203 272 13 272Z" fill="#F2F2F2"/>
<path d="M350.637 79.8901H326.637V103.89H350.637V79.8901Z" fill="#F9A826"/>
<path d="M350.637 171.89H326.637V195.89H350.637V171.89Z" fill="#F9A826"/>
<path d="M350.637 246.89H326.637V270.89H350.637V246.89Z" fill="#F9A826"/>
<path d="M351.637 361.89H325.637V335.89H351.637V361.89ZM327.637 359.89H349.637V337.89H327.637V359.89Z" fill="#3F3D56"/>
</g>
<defs>
<clipPath id="clip0">
<rect width="875.274" height="670" fill="white"/>
</clipPath>
</defs>
</svg>
